M48
;Layer_Color=9474304
;FILE_FORMAT=2:4
INCH,TZ
;TYPE=PLATED
T1F00S00C0.0118
T2F00S00C0.0197
T3F00S00C0.0236
T5F00S00C0.0354
T6F00S00C0.0590
T7F00S00C0.0591
;TYPE=NON_PLATED
T10F00S00C0.0256
T11F00S00C0.0392
T12F00S00C0.0454
T13F00S00C0.0669
T14F00S00C0.0670
T15F00S00C0.1181
T16F00S00C0.1200
T17F00S00C0.1570
T18F00S00C0.1575
T19F00S00C0.1732
%
T01
X92202Y-13028
X92008Y-11719
X93402Y-12225
X93606Y-12928
X95502Y-12728
X95496Y-11287
X94925Y-11163
X95002Y-9678
X95502Y-9369
X96202Y-9278
X96725Y-9915
X97396Y-10467
X98902Y-11375
X98406Y-11878
X101902Y-9278
X101402Y-3028
X100852Y-2478
X100902Y-1778
X101602
Y-1028
X100902Y-878
X102252Y-1428
Y-178
X103452Y-428
X103752Y-1428
X100302Y-2728
X99102Y-2978
X99052Y-3628
X97502
Y-2978
X95802
Y-3628
X95152
X95102Y-2978
X94302Y-2228
X93602Y-2878
X93102Y-3378
X92502Y-2828
X91952Y-2328
X92402Y-1778
X93002Y-2178
X91952Y-3778
X92252Y-7828
X91702Y-9628
X93352Y-10028
X96502Y-7678
X97602Y-5228
X91502Y-5578
X91052Y-5078
X91252Y-3828
X90152Y-4078
X89702Y-4278
X89102Y-3828
Y-4828
X88502Y-4328
Y-2128
X89102Y-2628
X90102
X89852Y-1678
X89152
X89852Y-6278
X90352Y-6728
X90252Y-7728
X89602Y-7578
X89556Y-7978
X88711Y-7822
X88702Y-8228
X89052Y-8728
X87952Y-8878
X88142Y-9695
X88448Y-10001
X88142Y-10307
X88754Y-10307
X89060Y-10614
X88754Y-10920
X89367
X89060Y-11226
X88754Y-11532
X88448Y-11226
X88142Y-10920
X88448Y-10614
X87836
X87529Y-10920
X87836Y-11226
X87529Y-11532
X87836Y-11838
X88142Y-12145
X88448Y-11838
X88142Y-11532
X87223Y-11226
X86917Y-10920
X87223Y-10614
X87529Y-10307
X87836Y-10001
X85802Y-10078
X86052Y-9461
X85158Y-10469
X84646
Y-11237
X85152Y-12025
X84152Y-12928
X86502Y-12775
X86702Y-13078
X87802
X87552Y-13628
X87543Y-14034
X90052Y-12628
X90452Y-11678
X90802Y-11578
X91156Y-11678
X91496Y-11719
X91602Y-10528
X90702Y-10728
X90698Y-9878
X90001Y-9141
X90652Y-8278
X82602Y-8978
X82952Y-7178
X82402Y-5778
X97752Y2172
X97602Y3022
X99302Y2672
X100752Y2572
X100757Y1680
X102052Y1822
X103052Y572
X99852Y622
T02
X8896Y-21691
X33162Y-29120
X33752
X34343
Y-30695
X33752
X33162
X54352Y-19778
X53152Y-17028
X57535Y-15670
X58125
X58716
X102052Y-17428
X105252Y-17228
X99272Y-8287
X98681
X98091
Y-6713
X98681
X99272
X90802Y-9428
X79202Y-4978
X65202Y-12728
X58716Y-14095
X58125
X57535
X57052Y-13078
X56602Y-4978
X45352Y-5328
X32502Y-8078
X37602Y-13878
X19702Y-12328
X15902Y-11028
Y-9528
X6811Y-8150
X6220
X5630
Y-6575
X6220
X6811
X1402Y-12678
T03
X95452Y-4378
X100409Y573
X102602Y522
T05
X96552Y-13228
X97552
T06
X51500Y-28000
X54000Y-29000
X56188Y-28000
X58688Y-29000
T07
X91828Y-31575
X93797Y-31772
X83484
X81516Y-31575
X23484Y-31772
X21516Y-31575
X13172Y-31772
X11203Y-31575
X11813Y-29000
X12750
X12234Y-28425
X11297
X11813Y-21500
X11297Y-20925
X7547
X8063Y-21500
X1500
X984Y-20925
X1922Y-28425
X2859
X2438Y-29000
X3375
X21188
X22125
X21609Y-28425
X20672
X22125Y-21500
X21609Y-20925
X29109
X29625Y-21500
X30047Y-28425
X30563Y-29000
X37125Y-21500
X36609Y-20925
X44109
X44625Y-21500
X52125
X51609Y-20925
X59109
X59625Y-21500
X58172Y-28425
X58688Y-29000
X54000
X53484Y-28425
X67125Y-21500
X66609Y-20925
X74109
X74625Y-21500
X82125
X81609Y-20925
X89109
X89625Y-21500
X86297Y-28425
X85359
X85875Y-29000
X86813
X95250
X96188
X95672Y-28425
X94734
X97125Y-21500
X96609Y-20925
X101297
X101812Y-21500
X105562
X105047Y-20925
Y-28425
X104109
X104625Y-29000
X105562
Y-14000
X105047Y-13425
X104109
X103172
X103687Y-14000
X102141Y-13228
X104625Y-6500
X104109Y-5925
X94734
X95250Y-6500
X92859Y-13425
X93375Y-14000
X85875
X85359Y-13425
X77859
X78375Y-14000
X80250Y-6500
X79734Y-5925
X87234
X87750Y-6500
X72750
X72234Y-5925
X64734
X65250Y-6500
X62859Y-13425
X63375Y-14000
X70875
X70359Y-13425
X55359
X55875Y-14000
X48375
X47859Y-13425
X50250Y-6500
X49734Y-5925
X57234
X57750Y-6500
X42750
X42234Y-5925
X34734
X35250Y-6500
X32859Y-13425
X33375Y-14000
X40875
X40359Y-13425
X25359
X25875Y-14000
X18375
X17859Y-13425
X20250Y-6500
X19734Y-5925
X27234
X27750Y-6500
X12750
X12234Y-5925
X10369Y-13425
X10885Y-14000
X6185
X5669Y-13425
X2433Y-10248
X1917Y-9673
X3375Y-6500
X2859Y-5925
X1500Y1000
X984Y1575
X4734
X5250Y1000
X9000
X8484Y1575
X15984
X16500Y1000
X24000
X23484Y1575
X30984
X31500Y1000
X39000
X38484Y1575
X45984
X46500Y1000
X54000
X53484Y1575
X60984
X61500Y1000
X69000
X68484Y1575
X75984
X76500Y1000
X84000
X83484Y1575
X90984
X91500Y1000
X99000
X98484Y1575
X105984
X106500Y1000
T10
X100299Y1685
X102575
T11
X93502Y-10428
Y-9628
X91502Y-10028
T12
X-2398Y-32428
X-2498Y2322
X106052Y2222
T13
X-1062Y-30000
X-125
X2938
X3875
X8313
X9250
X12313
X13250
X12313Y-22500
X8563
X8313
X4563
X2000
X-2000
X18625
X22625
X26125
X27062Y-30000
X22625
X21688
X18625
X17688
X31063
X30125Y-22500
X33625
X37625
X41125
X45125
X48625
X52625
X56125
X60125
X59188Y-30000
X55188
X54500
X50500
X63625Y-22500
X67625
X71125
X75125
X78625
X82625
X86125
X90125
X87313Y-30000
X86375
X83313
X82375
X91750
X92688
X95750
X96688
X101125
X102063
X105125
X106062
Y-22500
X102312
X102063
X98313
X97625
X93625
X93875Y-15000
X100188
X106062
X105125Y-7500
X101125
X95750
X91750
X92000Y0
X95500
X99500
X103000
X107000
X88000
X84500
X80500
X77000
X76750Y-7500
X80750
X84250
X88250
X89875Y-15000
X86375
X82375
X78875
X74875
X71375
X67375
X63875
X65750Y-7500
X69250
X73250
X73000Y0
X69500
X65500
X62000
X61750Y-7500
X58250
X54250
X50750
X46750
X47000Y0
X50500
X54500
X58000
X56375Y-15000
X59875
X52375
X48875
X44875
X41375
X37375
X33875
X29875
X31750Y-7500
X35750
X39250
X43250
X43000Y0
X39500
X35500
X32000
X28000
X24500
X20500
X17000
X16750Y-7500
X20750
X24250
X28250
X26375Y-15000
X22375
X18875
X14875
X11385
X7385
X6685
X2685
X2933Y-11248
X-1067
X-125Y-7500
X3875
X9250
X13250
X13000Y0
X9500
X5750
X5500
X2000
X1750
X-2000
T14
X50500Y-30000
X54500
X55188
T15
X-950Y2750
X8450
T16
X76874Y-32750
X78750
X75000
X37504
X30000
X26250
X11263Y-19750
X1863
X-1817Y-15948
X95612Y-19750
X105013
X9385Y-12250
X-15
X-1817Y-6548
T17
X26250Y-26750
X30000
X37504
X52500Y-30000
X57188
X75000Y-26750
X76874
X78750
T18
X938Y-30000
X1875
X1863Y-25750
X0Y-22500
X-15Y-18250
X4183Y-15948
X9385Y-18250
X10313Y-22500
X6563
X11263Y-25750
X11250Y-30000
X10313
X19688
X20625
X20625Y-22500
X28125
X29062Y-30000
X35625Y-22500
X43125
X50625
X58125
X57188Y-30000
X52500
X65625Y-22500
X73125
X80625
X88125
X85313Y-30000
X84375
X93750
X94688
X95612Y-25750
X95625Y-22500
X100312
X104062
X105013Y-25750
X104062Y-30000
X103125
X104062Y-15000
X102188
X103125Y-7500
X93750
X91875Y-15000
X97500Y0
X105000
X90000
X82500
X78750Y-7500
X86250
X84375Y-15000
X76875
X69375
X61875
X63750Y-7500
X71250
X67500Y0
X75000
X60000
X52500
X45000
X48750Y-7500
X56250
X54375Y-15000
X46875
X39375
X31875
X33750Y-7500
X41250
X37500Y0
X30000
X22500
X15000
X18750Y-7500
X26250
X24375Y-15000
X16875
X9385
X4685
X933Y-11248
X1875Y-7500
X4183Y-6548
X3750Y0
X0
X-950Y-3250
X8450
X7500Y0
X11250Y-7500
T19
X103147Y-16533
M30
