G04*
G04 #@! TF.GenerationSoftware,Altium Limited,Altium Designer,23.6.0 (18)*
G04*
G04 Layer_Color=8388736*
%FSLAX25Y25*%
%MOIN*%
G70*
G04*
G04 #@! TF.SameCoordinates,B66D48C5-E07E-4974-9F6D-D9774B8395A7*
G04*
G04*
G04 #@! TF.FilePolarity,Negative*
G04*
G01*
G75*
%ADD24C,0.03937*%
%ADD31C,0.01098*%
%ADD32R,0.05603X0.04383*%
%ADD33R,0.05367X0.06587*%
%ADD34R,0.04737X0.02965*%
%ADD35R,0.02965X0.04737*%
%ADD36R,0.03753X0.04737*%
%ADD37R,0.03950X0.04147*%
%ADD38R,0.04147X0.03950*%
%ADD39R,0.05524X0.07887*%
%ADD40C,0.03910*%
%ADD41R,0.03162X0.06509*%
%ADD42R,0.01981X0.06509*%
%ADD43C,0.07874*%
%ADD44R,0.07887X0.05524*%
%ADD45R,0.06902X0.03162*%
%ADD46P,0.32311X4X90.0*%
G04:AMPARAMS|DCode=47|XSize=17.84mil|YSize=39.5mil|CornerRadius=0mil|HoleSize=0mil|Usage=FLASHONLY|Rotation=45.000|XOffset=0mil|YOffset=0mil|HoleType=Round|Shape=Round|*
%AMOVALD47*
21,1,0.02165,0.01784,0.00000,0.00000,135.0*
1,1,0.01784,0.00766,-0.00766*
1,1,0.01784,-0.00766,0.00766*
%
%ADD47OVALD47*%

G04:AMPARAMS|DCode=48|XSize=17.84mil|YSize=39.5mil|CornerRadius=0mil|HoleSize=0mil|Usage=FLASHONLY|Rotation=135.000|XOffset=0mil|YOffset=0mil|HoleType=Round|Shape=Round|*
%AMOVALD48*
21,1,0.02165,0.01784,0.00000,0.00000,225.0*
1,1,0.01784,0.00766,0.00766*
1,1,0.01784,-0.00766,-0.00766*
%
%ADD48OVALD48*%

G04:AMPARAMS|DCode=49|XSize=19.81mil|YSize=65.09mil|CornerRadius=0mil|HoleSize=0mil|Usage=FLASHONLY|Rotation=135.000|XOffset=0mil|YOffset=0mil|HoleType=Round|Shape=Round|*
%AMOVALD49*
21,1,0.04528,0.01981,0.00000,0.00000,225.0*
1,1,0.01981,0.01601,0.01601*
1,1,0.01981,-0.01601,-0.01601*
%
%ADD49OVALD49*%

G04:AMPARAMS|DCode=50|XSize=19.81mil|YSize=65.09mil|CornerRadius=0mil|HoleSize=0mil|Usage=FLASHONLY|Rotation=45.000|XOffset=0mil|YOffset=0mil|HoleType=Round|Shape=Round|*
%AMOVALD50*
21,1,0.04528,0.01981,0.00000,0.00000,135.0*
1,1,0.01981,0.01601,-0.01601*
1,1,0.01981,-0.01601,0.01601*
%
%ADD50OVALD50*%

%ADD51R,0.02375X0.02375*%
%ADD52C,0.10800*%
%ADD53C,0.04737*%
G04:AMPARAMS|DCode=54|XSize=133.98mil|YSize=108mil|CornerRadius=0mil|HoleSize=0mil|Usage=FLASHONLY|Rotation=95.000|XOffset=0mil|YOffset=0mil|HoleType=Round|Shape=Round|*
%AMOVALD54*
21,1,0.02598,0.10800,0.00000,0.00000,95.0*
1,1,0.10800,0.00113,-0.01294*
1,1,0.10800,-0.00113,0.01294*
%
%ADD54OVALD54*%

%ADD55C,0.00800*%
%ADD56O,0.10800X0.08674*%
%ADD57C,0.06800*%
%ADD58C,0.23622*%
%ADD59C,0.04343*%
%ADD60O,0.04737X0.09068*%
%ADD61O,0.05918X0.08674*%
%ADD62O,0.10800X0.07690*%
G04:AMPARAMS|DCode=63|XSize=86.74mil|YSize=116.27mil|CornerRadius=0mil|HoleSize=0mil|Usage=FLASHONLY|Rotation=225.000|XOffset=0mil|YOffset=0mil|HoleType=Round|Shape=Round|*
%AMOVALD63*
21,1,0.02953,0.08674,0.00000,0.00000,315.0*
1,1,0.08674,-0.01044,0.01044*
1,1,0.08674,0.01044,-0.01044*
%
%ADD63OVALD63*%

%ADD64C,0.06706*%
%ADD65R,0.06706X0.06706*%
%ADD66C,0.05701*%
%ADD67C,0.03162*%
G36*
X1022978Y-160220D02*
X1022995Y-160221D01*
X1023013Y-160221D01*
X1023022Y-160222D01*
X1023030Y-160223D01*
X1023047Y-160226D01*
X1023065Y-160229D01*
X1023073Y-160232D01*
X1023081Y-160233D01*
X1023098Y-160239D01*
X1023115Y-160244D01*
X1023123Y-160247D01*
X1023131Y-160250D01*
X1023147Y-160258D01*
X1023163Y-160265D01*
X1023170Y-160270D01*
X1023178Y-160273D01*
X1023193Y-160283D01*
X1023208Y-160293D01*
X1023215Y-160298D01*
X1023221Y-160302D01*
X1023235Y-160314D01*
X1023249Y-160326D01*
X1023255Y-160331D01*
X1023261Y-160337D01*
X1023273Y-160351D01*
X1023285Y-160363D01*
X1023290Y-160370D01*
X1023295Y-160376D01*
X1023306Y-160391D01*
X1023316Y-160406D01*
X1023320Y-160413D01*
X1023325Y-160420D01*
X1023333Y-160436D01*
X1023341Y-160452D01*
X1023344Y-160459D01*
X1023348Y-160467D01*
X1023354Y-160484D01*
X1023360Y-160501D01*
X1023362Y-160509D01*
X1023365Y-160517D01*
X1023368Y-160534D01*
X1023372Y-160552D01*
X1023373Y-160560D01*
X1023375Y-160568D01*
X1023376Y-160586D01*
X1023378Y-160604D01*
X1023378Y-160612D01*
X1023378Y-160620D01*
X1023377Y-160638D01*
X1023377Y-160656D01*
X1023375Y-160664D01*
X1023375Y-160673D01*
X1023371Y-160690D01*
X1023369Y-160708D01*
X1023366Y-160716D01*
X1023365Y-160724D01*
X1023359Y-160741D01*
X1023354Y-160758D01*
X1023351Y-160766D01*
X1023348Y-160774D01*
X1023340Y-160790D01*
X1023333Y-160806D01*
X1023124Y-161205D01*
X1022767Y-162025D01*
X1022491Y-162871D01*
X1022297Y-163744D01*
X1022231Y-164189D01*
X1022229Y-164199D01*
X1022227Y-164210D01*
X1022224Y-164220D01*
X1022222Y-164231D01*
X1022221Y-164235D01*
X1022220Y-164240D01*
X1022216Y-164250D01*
X1022213Y-164261D01*
X1022209Y-164271D01*
X1022206Y-164281D01*
X1022204Y-164285D01*
X1022202Y-164289D01*
X1022197Y-164299D01*
X1022193Y-164309D01*
X1022193Y-164309D01*
X1022188Y-164318D01*
X1022183Y-164328D01*
X1022180Y-164332D01*
X1022178Y-164336D01*
X1022172Y-164345D01*
X1022166Y-164354D01*
X1022160Y-164363D01*
X1022154Y-164372D01*
X1022151Y-164375D01*
X1022148Y-164379D01*
X1022141Y-164387D01*
X1022134Y-164396D01*
X1022127Y-164403D01*
X1022120Y-164411D01*
X1022116Y-164415D01*
X1022113Y-164418D01*
X1022105Y-164425D01*
X1022097Y-164433D01*
X1022088Y-164439D01*
X1022081Y-164446D01*
X1022077Y-164449D01*
X1022073Y-164452D01*
X1022064Y-164458D01*
X1022055Y-164464D01*
X1022046Y-164470D01*
X1022037Y-164476D01*
X1022033Y-164478D01*
X1022029Y-164480D01*
X1022019Y-164485D01*
X1022010Y-164490D01*
X1021999Y-164495D01*
X1021990Y-164499D01*
X1021986Y-164501D01*
X1021982Y-164503D01*
X1021971Y-164506D01*
X1021961Y-164510D01*
X1021951Y-164513D01*
X1021941Y-164516D01*
X1021936Y-164517D01*
X1021932Y-164519D01*
X1021921Y-164521D01*
X1021910Y-164523D01*
X1021900Y-164525D01*
X1021889Y-164527D01*
X1021885Y-164527D01*
X1021880Y-164528D01*
X1021869Y-164529D01*
X1021858Y-164530D01*
X1021847Y-164530D01*
X1021837Y-164531D01*
X1021832Y-164530D01*
X1021828Y-164531D01*
X1021817Y-164530D01*
X1021809Y-164530D01*
X1017689D01*
X1017637Y-164526D01*
X1017585Y-164516D01*
X1017536Y-164499D01*
X1017488Y-164476D01*
X1017445Y-164447D01*
X1017406Y-164412D01*
X1017371Y-164373D01*
X1017342Y-164329D01*
X1017319Y-164282D01*
X1017302Y-164233D01*
X1017292Y-164181D01*
X1017288Y-164129D01*
Y-160620D01*
X1017292Y-160568D01*
X1017302Y-160517D01*
X1017319Y-160467D01*
X1017342Y-160420D01*
X1017371Y-160376D01*
X1017406Y-160337D01*
X1017445Y-160302D01*
X1017488Y-160273D01*
X1017536Y-160250D01*
X1017585Y-160233D01*
X1017637Y-160223D01*
X1017689Y-160220D01*
X1022978Y-160220D01*
D02*
G37*
G36*
X1045248Y-160220D02*
X1045300Y-160223D01*
X1045321Y-160227D01*
X1045352Y-160233D01*
X1045401Y-160250D01*
X1045448Y-160273D01*
D01*
X1045448Y-160273D01*
X1045492Y-160302D01*
X1045526Y-160332D01*
X1045531Y-160337D01*
Y-160337D01*
X1045531D01*
X1045536Y-160343D01*
X1045566Y-160376D01*
X1045595Y-160420D01*
X1045595Y-160420D01*
D01*
X1045618Y-160467D01*
X1045635Y-160517D01*
X1045641Y-160548D01*
X1045646Y-160568D01*
X1045649Y-160620D01*
Y-164129D01*
X1045647Y-164160D01*
X1045646Y-164181D01*
X1045646Y-164181D01*
Y-164181D01*
X1045637Y-164222D01*
X1045635Y-164233D01*
X1045635Y-164233D01*
X1045635Y-164233D01*
X1045626Y-164259D01*
X1045618Y-164282D01*
X1045618Y-164282D01*
X1045618Y-164282D01*
X1045612Y-164296D01*
X1045595Y-164329D01*
X1045595Y-164329D01*
X1045595Y-164329D01*
X1045585Y-164344D01*
X1045566Y-164373D01*
X1045566Y-164373D01*
X1045566Y-164373D01*
X1045547Y-164394D01*
X1045532Y-164412D01*
X1045531Y-164412D01*
X1045531Y-164412D01*
X1045514Y-164428D01*
X1045492Y-164447D01*
X1045492Y-164447D01*
X1045492Y-164447D01*
X1045464Y-164466D01*
X1045448Y-164476D01*
X1045448Y-164476D01*
X1045448Y-164476D01*
X1045415Y-164492D01*
X1045401Y-164499D01*
X1045401Y-164499D01*
X1045401Y-164499D01*
X1045378Y-164507D01*
X1045352Y-164516D01*
X1045352Y-164516D01*
X1045352Y-164516D01*
X1045341Y-164518D01*
X1045300Y-164526D01*
X1045300D01*
X1045300Y-164526D01*
X1045279Y-164528D01*
X1045248Y-164530D01*
X1041103Y-164531D01*
X1041080Y-164529D01*
X1041057Y-164528D01*
X1041054Y-164527D01*
X1041050Y-164527D01*
X1041028Y-164523D01*
X1041005Y-164519D01*
X1041002Y-164518D01*
X1040999Y-164517D01*
X1040977Y-164510D01*
X1040955Y-164503D01*
X1040952Y-164501D01*
X1040949Y-164500D01*
X1040928Y-164490D01*
X1040908Y-164480D01*
X1040905Y-164479D01*
X1040902Y-164477D01*
X1040883Y-164464D01*
X1040864Y-164452D01*
X1040861Y-164450D01*
X1040859Y-164448D01*
X1040841Y-164433D01*
X1040824Y-164418D01*
X1040822Y-164416D01*
X1040819Y-164413D01*
X1040804Y-164396D01*
X1040789Y-164379D01*
X1040787Y-164376D01*
X1040785Y-164374D01*
X1040772Y-164355D01*
X1040759Y-164336D01*
X1040757Y-164333D01*
X1040756Y-164330D01*
X1040746Y-164310D01*
X1040735Y-164289D01*
X1040734Y-164286D01*
X1040732Y-164283D01*
X1040725Y-164262D01*
X1040717Y-164240D01*
X1040716Y-164237D01*
X1040716Y-164234D01*
X1040711Y-164211D01*
X1040706Y-164189D01*
X1040640Y-163744D01*
X1040446Y-162871D01*
X1040170Y-162025D01*
X1039813Y-161205D01*
X1039604Y-160806D01*
X1039603Y-160803D01*
X1039601Y-160799D01*
X1039595Y-160786D01*
X1039589Y-160774D01*
X1039587Y-160766D01*
X1039583Y-160758D01*
X1039582Y-160755D01*
X1039581Y-160751D01*
X1039577Y-160737D01*
X1039572Y-160724D01*
X1039571Y-160716D01*
X1039568Y-160708D01*
X1039568Y-160704D01*
X1039567Y-160701D01*
X1039565Y-160686D01*
X1039562Y-160672D01*
X1039562Y-160664D01*
X1039560Y-160656D01*
X1039560Y-160652D01*
X1039560Y-160649D01*
X1039560Y-160634D01*
X1039559Y-160620D01*
X1039559Y-160612D01*
X1039559Y-160603D01*
X1039559Y-160600D01*
X1039559Y-160596D01*
X1039561Y-160582D01*
X1039562Y-160568D01*
X1039564Y-160560D01*
X1039565Y-160551D01*
X1039565Y-160548D01*
X1039566Y-160544D01*
X1039570Y-160530D01*
X1039572Y-160516D01*
X1039575Y-160509D01*
X1039577Y-160501D01*
X1039578Y-160497D01*
X1039579Y-160493D01*
X1039585Y-160480D01*
X1039589Y-160467D01*
X1039593Y-160459D01*
X1039596Y-160451D01*
X1039598Y-160448D01*
X1039599Y-160445D01*
X1039606Y-160432D01*
X1039612Y-160420D01*
X1039617Y-160413D01*
X1039621Y-160406D01*
X1039623Y-160403D01*
X1039625Y-160399D01*
X1039634Y-160388D01*
X1039641Y-160376D01*
X1039647Y-160370D01*
X1039652Y-160363D01*
X1039654Y-160360D01*
X1039657Y-160357D01*
X1039667Y-160347D01*
X1039676Y-160337D01*
X1039682Y-160331D01*
X1039688Y-160325D01*
X1039691Y-160323D01*
X1039694Y-160320D01*
X1039705Y-160311D01*
X1039715Y-160302D01*
X1039722Y-160298D01*
X1039729Y-160292D01*
X1039732Y-160290D01*
X1039735Y-160288D01*
X1039747Y-160281D01*
X1039759Y-160273D01*
X1039767Y-160269D01*
X1039774Y-160265D01*
X1039777Y-160264D01*
X1039780Y-160262D01*
X1039780Y-160262D01*
X1039793Y-160256D01*
X1039806Y-160250D01*
X1039814Y-160247D01*
X1039822Y-160244D01*
X1039825Y-160243D01*
X1039829Y-160241D01*
X1039842Y-160238D01*
X1039856Y-160233D01*
X1039864Y-160231D01*
X1039872Y-160229D01*
X1039876Y-160228D01*
X1039879Y-160227D01*
X1039893Y-160225D01*
X1039907Y-160223D01*
X1039915Y-160222D01*
X1039924Y-160221D01*
X1039927Y-160221D01*
X1039931Y-160220D01*
X1039945Y-160220D01*
X1039960Y-160219D01*
X1045248Y-160220D01*
D02*
G37*
G36*
X1021859Y-166124D02*
X1021880Y-166125D01*
X1021885Y-166126D01*
X1021890Y-166127D01*
X1021911Y-166131D01*
X1021932Y-166135D01*
X1021936Y-166136D01*
X1021941Y-166137D01*
X1021961Y-166144D01*
X1021982Y-166151D01*
X1021986Y-166153D01*
X1021991Y-166155D01*
X1022010Y-166164D01*
X1022029Y-166173D01*
X1022033Y-166176D01*
X1022038Y-166178D01*
X1022055Y-166190D01*
X1022073Y-166202D01*
X1022077Y-166205D01*
X1022081Y-166208D01*
X1022097Y-166222D01*
X1022113Y-166236D01*
X1022116Y-166239D01*
X1022120Y-166243D01*
X1022134Y-166259D01*
X1022148Y-166274D01*
X1022151Y-166278D01*
X1022154Y-166282D01*
X1022166Y-166300D01*
X1022178Y-166317D01*
X1022180Y-166322D01*
X1022183Y-166326D01*
X1022192Y-166345D01*
X1022202Y-166364D01*
X1022204Y-166369D01*
X1022206Y-166373D01*
X1022213Y-166393D01*
X1022220Y-166413D01*
X1022221Y-166418D01*
X1022222Y-166423D01*
X1022226Y-166444D01*
X1022231Y-166465D01*
X1022297Y-166910D01*
X1022491Y-167783D01*
X1022767Y-168629D01*
X1023124Y-169449D01*
X1023333Y-169848D01*
X1023340Y-169864D01*
X1023348Y-169880D01*
X1023351Y-169888D01*
X1023354Y-169896D01*
X1023359Y-169912D01*
X1023365Y-169930D01*
X1023366Y-169938D01*
X1023369Y-169946D01*
X1023371Y-169964D01*
X1023375Y-169981D01*
X1023375Y-169989D01*
X1023377Y-169998D01*
X1023377Y-170016D01*
X1023378Y-170033D01*
Y-170033D01*
D01*
Y-170033D01*
X1023378Y-170042D01*
X1023378Y-170050D01*
X1023376Y-170068D01*
X1023375Y-170086D01*
X1023373Y-170094D01*
X1023372Y-170102D01*
X1023368Y-170120D01*
X1023365Y-170137D01*
X1023362Y-170145D01*
X1023360Y-170153D01*
X1023354Y-170170D01*
X1023348Y-170187D01*
X1023344Y-170194D01*
X1023341Y-170202D01*
X1023333Y-170218D01*
X1023325Y-170234D01*
X1023320Y-170241D01*
X1023316Y-170248D01*
X1023305Y-170263D01*
X1023295Y-170278D01*
X1023290Y-170284D01*
X1023285Y-170290D01*
X1023273Y-170303D01*
X1023261Y-170317D01*
X1023255Y-170322D01*
X1023249Y-170328D01*
X1023235Y-170340D01*
X1023221Y-170351D01*
X1023215Y-170356D01*
X1023208Y-170361D01*
X1023193Y-170371D01*
X1023178Y-170381D01*
X1023170Y-170384D01*
X1023163Y-170389D01*
X1023147Y-170396D01*
X1023131Y-170404D01*
X1023123Y-170406D01*
X1023115Y-170410D01*
X1023098Y-170415D01*
X1023081Y-170421D01*
X1023073Y-170422D01*
X1023065Y-170425D01*
X1023047Y-170427D01*
X1023030Y-170431D01*
X1023022Y-170431D01*
X1023013Y-170433D01*
X1022995Y-170433D01*
X1022978Y-170434D01*
X1022977Y-170434D01*
X1018675Y-170434D01*
X1018623Y-170431D01*
X1018602Y-170426D01*
X1018571Y-170420D01*
X1018521Y-170404D01*
X1018474Y-170380D01*
D01*
X1018474Y-170380D01*
X1018431Y-170351D01*
X1018401Y-170325D01*
X1018391Y-170317D01*
X1017406Y-169331D01*
X1017371Y-169291D01*
X1017342Y-169248D01*
X1017319Y-169201D01*
X1017302Y-169151D01*
X1017292Y-169100D01*
X1017288Y-169047D01*
Y-166525D01*
X1017292Y-166472D01*
X1017302Y-166421D01*
X1017319Y-166371D01*
X1017342Y-166324D01*
X1017371Y-166281D01*
X1017406Y-166241D01*
X1017445Y-166207D01*
X1017488Y-166177D01*
X1017536Y-166154D01*
X1017585Y-166137D01*
X1017637Y-166127D01*
X1017689Y-166124D01*
X1021817D01*
X1021828Y-166123D01*
X1021832Y-166123D01*
X1021838Y-166123D01*
X1021859Y-166124D01*
D02*
G37*
G36*
X1041105Y-166123D02*
X1041109Y-166123D01*
X1041120Y-166124D01*
X1045248D01*
X1045300Y-166127D01*
X1045352Y-166137D01*
X1045401Y-166154D01*
X1045448Y-166177D01*
X1045492Y-166207D01*
X1045531Y-166241D01*
X1045566Y-166281D01*
X1045595Y-166324D01*
X1045618Y-166371D01*
X1045635Y-166421D01*
X1045646Y-166472D01*
X1045649Y-166525D01*
Y-170033D01*
X1045646Y-170086D01*
X1045635Y-170137D01*
X1045618Y-170187D01*
X1045595Y-170234D01*
X1045566Y-170277D01*
X1045531Y-170317D01*
X1045492Y-170351D01*
X1045448Y-170380D01*
X1045401Y-170404D01*
X1045352Y-170420D01*
X1045300Y-170431D01*
X1045248Y-170434D01*
X1039960D01*
X1039955Y-170434D01*
X1039944Y-170434D01*
X1039934Y-170433D01*
X1039924Y-170433D01*
X1039913Y-170431D01*
X1039907Y-170431D01*
X1039902Y-170430D01*
X1039892Y-170429D01*
X1039882Y-170426D01*
X1039872Y-170425D01*
X1039861Y-170421D01*
X1039856Y-170420D01*
X1039851Y-170419D01*
X1039841Y-170416D01*
X1039832Y-170413D01*
X1039822Y-170410D01*
X1039811Y-170405D01*
X1039806Y-170404D01*
X1039802Y-170401D01*
X1039792Y-170398D01*
X1039783Y-170393D01*
X1039774Y-170389D01*
X1039764Y-170383D01*
X1039759Y-170380D01*
X1039755Y-170377D01*
X1039746Y-170373D01*
X1039738Y-170367D01*
X1039729Y-170361D01*
X1039720Y-170354D01*
X1039715Y-170351D01*
X1039711Y-170348D01*
X1039703Y-170342D01*
X1039696Y-170335D01*
X1039688Y-170328D01*
X1039681Y-170321D01*
X1039676Y-170317D01*
X1039672Y-170312D01*
X1039665Y-170306D01*
X1039659Y-170298D01*
X1039652Y-170290D01*
X1039646Y-170282D01*
X1039641Y-170277D01*
X1039638Y-170272D01*
X1039632Y-170265D01*
X1039627Y-170256D01*
X1039621Y-170248D01*
X1039616Y-170239D01*
X1039612Y-170234D01*
X1039610Y-170228D01*
X1039605Y-170220D01*
X1039601Y-170211D01*
X1039596Y-170202D01*
X1039592Y-170193D01*
X1039589Y-170187D01*
X1039587Y-170180D01*
X1039583Y-170173D01*
X1039581Y-170163D01*
X1039577Y-170153D01*
X1039575Y-170144D01*
X1039572Y-170137D01*
X1039571Y-170130D01*
X1039569Y-170122D01*
X1039567Y-170112D01*
X1039565Y-170102D01*
X1039564Y-170093D01*
X1039562Y-170086D01*
X1039562Y-170078D01*
X1039560Y-170070D01*
X1039560Y-170060D01*
X1039559Y-170050D01*
X1039559Y-170041D01*
X1039559Y-170033D01*
X1039559Y-170026D01*
X1039559Y-170018D01*
X1039559Y-170018D01*
X1039560Y-170008D01*
X1039560Y-169998D01*
X1039561Y-169989D01*
X1039562Y-169981D01*
X1039564Y-169973D01*
X1039564Y-169966D01*
X1039567Y-169955D01*
X1039568Y-169946D01*
X1039571Y-169938D01*
X1039572Y-169929D01*
X1039575Y-169922D01*
X1039577Y-169915D01*
X1039581Y-169904D01*
X1039583Y-169896D01*
X1039586Y-169889D01*
X1039589Y-169880D01*
X1039593Y-169873D01*
X1039595Y-169866D01*
X1039601Y-169856D01*
X1039604Y-169848D01*
X1039813Y-169449D01*
X1040170Y-168629D01*
X1040446Y-167783D01*
X1040640Y-166910D01*
X1040706Y-166465D01*
X1040711Y-166444D01*
X1040715Y-166423D01*
X1040716Y-166418D01*
X1040717Y-166413D01*
X1040725Y-166393D01*
X1040731Y-166373D01*
X1040733Y-166369D01*
X1040735Y-166364D01*
X1040745Y-166345D01*
X1040754Y-166326D01*
X1040757Y-166322D01*
X1040759Y-166317D01*
X1040771Y-166300D01*
X1040783Y-166282D01*
X1040786Y-166278D01*
X1040789Y-166274D01*
X1040803Y-166259D01*
X1040817Y-166242D01*
X1040821Y-166239D01*
X1040824Y-166235D01*
X1040841Y-166222D01*
X1040856Y-166207D01*
X1040860Y-166205D01*
X1040864Y-166202D01*
X1040882Y-166190D01*
X1040900Y-166178D01*
X1040904Y-166176D01*
X1040908Y-166173D01*
X1040928Y-166164D01*
X1040947Y-166154D01*
X1040951Y-166153D01*
X1040955Y-166151D01*
X1040976Y-166144D01*
X1040996Y-166137D01*
X1041001Y-166136D01*
X1041005Y-166135D01*
X1041026Y-166131D01*
X1041048Y-166127D01*
X1041052Y-166126D01*
X1041057Y-166125D01*
X1041078Y-166124D01*
X1041100Y-166123D01*
X1041105Y-166123D01*
D02*
G37*
G36*
X637716Y-285314D02*
X637661D01*
Y-285370D01*
Y-285426D01*
Y-285482D01*
Y-285538D01*
Y-285594D01*
X637605D01*
Y-285650D01*
Y-285706D01*
Y-285761D01*
Y-285818D01*
X637549D01*
Y-285873D01*
Y-285929D01*
Y-285985D01*
Y-286041D01*
Y-286097D01*
Y-286153D01*
X637493D01*
Y-286209D01*
Y-286265D01*
Y-286321D01*
Y-286377D01*
Y-286433D01*
X637437D01*
Y-286489D01*
Y-286545D01*
Y-286601D01*
Y-286657D01*
Y-286713D01*
X637381D01*
Y-286769D01*
Y-286825D01*
Y-286880D01*
Y-286936D01*
Y-286993D01*
Y-287048D01*
X637325D01*
Y-287104D01*
Y-287160D01*
Y-287216D01*
Y-287272D01*
Y-287328D01*
X637269D01*
Y-287384D01*
Y-287440D01*
Y-287496D01*
Y-287552D01*
Y-287608D01*
Y-287664D01*
X637213D01*
Y-287720D01*
Y-287776D01*
Y-287832D01*
Y-287888D01*
Y-287944D01*
X637157D01*
Y-288000D01*
Y-288055D01*
Y-288111D01*
Y-288167D01*
Y-288223D01*
Y-288279D01*
X637101D01*
Y-288335D01*
Y-288391D01*
Y-288447D01*
Y-288503D01*
Y-288559D01*
X637045D01*
Y-288615D01*
Y-288671D01*
Y-288727D01*
Y-288783D01*
Y-288839D01*
Y-288895D01*
X636989D01*
Y-288951D01*
Y-289007D01*
Y-289063D01*
Y-289119D01*
Y-289175D01*
Y-289230D01*
X636933D01*
Y-289286D01*
Y-289342D01*
Y-289398D01*
Y-289454D01*
Y-289510D01*
X636877D01*
Y-289566D01*
Y-289622D01*
Y-289678D01*
Y-289734D01*
Y-289790D01*
Y-289846D01*
X636821D01*
Y-289902D01*
Y-289958D01*
Y-290014D01*
Y-290070D01*
Y-290126D01*
Y-290182D01*
X636765D01*
Y-290238D01*
Y-290294D01*
Y-290350D01*
Y-290406D01*
Y-290461D01*
X636709D01*
Y-290517D01*
Y-290573D01*
Y-290629D01*
Y-290685D01*
Y-290741D01*
Y-290797D01*
X636653D01*
Y-290853D01*
Y-290909D01*
Y-290965D01*
Y-291021D01*
Y-291077D01*
X636597D01*
Y-291133D01*
Y-291189D01*
Y-291245D01*
Y-291301D01*
Y-291357D01*
Y-291413D01*
X636542D01*
Y-291469D01*
Y-291525D01*
Y-291580D01*
Y-291636D01*
Y-291692D01*
Y-291748D01*
X636486D01*
Y-291804D01*
Y-291860D01*
Y-291916D01*
Y-291972D01*
Y-292028D01*
X636430D01*
Y-292084D01*
Y-292140D01*
Y-292196D01*
Y-292252D01*
Y-292308D01*
Y-292364D01*
X636374D01*
Y-292420D01*
Y-292476D01*
Y-292532D01*
Y-292588D01*
Y-292643D01*
X636318D01*
Y-292699D01*
Y-292755D01*
Y-292811D01*
Y-292867D01*
Y-292923D01*
Y-292979D01*
X636262D01*
Y-293035D01*
Y-293091D01*
Y-293147D01*
Y-293203D01*
Y-293259D01*
Y-293315D01*
X636206D01*
Y-293371D01*
Y-293427D01*
Y-293483D01*
Y-293539D01*
Y-293595D01*
X636150D01*
Y-293651D01*
Y-293707D01*
Y-293762D01*
Y-293818D01*
Y-293874D01*
Y-293930D01*
X636094D01*
Y-293986D01*
Y-294042D01*
Y-294098D01*
Y-294154D01*
Y-294210D01*
Y-294266D01*
X636038D01*
Y-294322D01*
Y-294378D01*
Y-294434D01*
Y-294490D01*
Y-294546D01*
X635982D01*
Y-294602D01*
Y-294658D01*
Y-294714D01*
Y-294770D01*
Y-294826D01*
Y-294882D01*
X635926D01*
Y-294937D01*
Y-294993D01*
Y-295049D01*
Y-295105D01*
Y-295161D01*
X635870D01*
Y-295217D01*
Y-295273D01*
Y-295329D01*
Y-295385D01*
Y-295441D01*
Y-295497D01*
X635814D01*
Y-295553D01*
Y-295609D01*
Y-295665D01*
Y-295721D01*
Y-295777D01*
Y-295833D01*
X635758D01*
Y-295889D01*
Y-295945D01*
Y-296001D01*
Y-296057D01*
Y-296112D01*
X635702D01*
Y-296168D01*
Y-296224D01*
Y-296280D01*
Y-296336D01*
Y-296392D01*
Y-296448D01*
X635646D01*
Y-296504D01*
Y-296560D01*
Y-296616D01*
Y-296672D01*
Y-296728D01*
X635590D01*
Y-296784D01*
Y-296840D01*
Y-296896D01*
Y-296952D01*
Y-297008D01*
Y-297064D01*
X635534D01*
Y-297120D01*
Y-297176D01*
Y-297232D01*
Y-297287D01*
Y-297343D01*
X635478D01*
Y-297399D01*
Y-297455D01*
Y-297511D01*
Y-297567D01*
Y-297623D01*
Y-297679D01*
X635423D01*
Y-297735D01*
Y-297791D01*
Y-297847D01*
Y-297903D01*
Y-297959D01*
Y-298015D01*
X635367D01*
Y-298071D01*
Y-298127D01*
Y-298183D01*
Y-298239D01*
Y-298294D01*
X635311D01*
Y-298351D01*
Y-298406D01*
Y-298462D01*
Y-298518D01*
Y-298574D01*
Y-298630D01*
X635255D01*
Y-298686D01*
Y-298742D01*
Y-298798D01*
Y-298854D01*
Y-298910D01*
X635199D01*
Y-298966D01*
Y-299022D01*
Y-299078D01*
Y-299134D01*
Y-299190D01*
Y-299246D01*
Y-299302D01*
X635143D01*
Y-299358D01*
Y-299414D01*
Y-299469D01*
Y-299525D01*
Y-299581D01*
X635087D01*
Y-299637D01*
Y-299693D01*
Y-299749D01*
Y-299805D01*
Y-299861D01*
Y-299917D01*
X635031D01*
Y-299973D01*
Y-300029D01*
Y-300085D01*
Y-300141D01*
Y-300197D01*
X634975D01*
Y-300253D01*
Y-300309D01*
Y-300365D01*
Y-300421D01*
Y-300477D01*
Y-300533D01*
X634919D01*
Y-300588D01*
Y-300644D01*
Y-300700D01*
Y-300756D01*
X634863D01*
Y-300812D01*
Y-300868D01*
Y-300924D01*
Y-300980D01*
Y-301036D01*
Y-301092D01*
X634807D01*
Y-301148D01*
Y-301204D01*
Y-301260D01*
Y-301316D01*
Y-301372D01*
X634751D01*
Y-301428D01*
Y-301484D01*
Y-301540D01*
Y-301596D01*
Y-301652D01*
Y-301708D01*
X634695D01*
Y-301764D01*
Y-301819D01*
Y-301875D01*
Y-301931D01*
Y-301987D01*
Y-302043D01*
X634639D01*
Y-302099D01*
Y-302155D01*
Y-302211D01*
Y-302267D01*
Y-302323D01*
X634583D01*
Y-302379D01*
Y-302435D01*
Y-302491D01*
Y-302547D01*
Y-302603D01*
Y-302659D01*
X634527D01*
Y-302715D01*
Y-302771D01*
Y-302827D01*
Y-302883D01*
Y-302939D01*
Y-302994D01*
X634471D01*
Y-303050D01*
Y-303106D01*
Y-303162D01*
Y-303218D01*
Y-303274D01*
X634415D01*
Y-303330D01*
Y-303386D01*
Y-303442D01*
Y-303498D01*
Y-303554D01*
Y-303610D01*
X634360D01*
Y-303666D01*
Y-303722D01*
Y-303778D01*
Y-303834D01*
Y-303890D01*
Y-303946D01*
Y-304001D01*
X634304D01*
Y-304058D01*
Y-304113D01*
Y-304169D01*
Y-304225D01*
Y-304281D01*
Y-304337D01*
Y-304393D01*
X634248D01*
Y-304449D01*
Y-304505D01*
Y-304561D01*
Y-304617D01*
Y-304673D01*
Y-304729D01*
Y-304785D01*
Y-304841D01*
X634304D01*
Y-304897D01*
X634471D01*
Y-304841D01*
X634583D01*
Y-304785D01*
X634695D01*
Y-304729D01*
X634863D01*
Y-304673D01*
X634975D01*
Y-304617D01*
X635143D01*
Y-304561D01*
X635255D01*
Y-304505D01*
X635423D01*
Y-304449D01*
X635534D01*
Y-304393D01*
X635702D01*
Y-304337D01*
X635814D01*
Y-304281D01*
X635982D01*
Y-304225D01*
X636094D01*
Y-304169D01*
X636262D01*
Y-304113D01*
X636430D01*
Y-304058D01*
X636597D01*
Y-304001D01*
X636765D01*
Y-303946D01*
X636877D01*
Y-303890D01*
X637101D01*
Y-303834D01*
X637269D01*
Y-303778D01*
X637437D01*
Y-303722D01*
X637661D01*
Y-303666D01*
X637940D01*
Y-303610D01*
X638220D01*
Y-303554D01*
X639283D01*
Y-303610D01*
X639451D01*
Y-303666D01*
X639619D01*
Y-303722D01*
X639731D01*
Y-303778D01*
X639843D01*
Y-303834D01*
X639899D01*
Y-303890D01*
X639955D01*
Y-303946D01*
X640066D01*
Y-304001D01*
X640122D01*
Y-304058D01*
X640178D01*
Y-304113D01*
X640234D01*
Y-304169D01*
X640290D01*
Y-304225D01*
Y-304281D01*
X640346D01*
Y-304337D01*
Y-304393D01*
Y-304449D01*
Y-304505D01*
Y-304561D01*
Y-304617D01*
Y-304673D01*
Y-304729D01*
Y-304785D01*
Y-304841D01*
Y-304897D01*
Y-304953D01*
Y-305009D01*
Y-305065D01*
X640290D01*
Y-305121D01*
Y-305176D01*
Y-305233D01*
Y-305288D01*
Y-305344D01*
Y-305400D01*
Y-305456D01*
Y-305512D01*
Y-305568D01*
Y-305624D01*
Y-305680D01*
Y-305736D01*
X640346D01*
Y-305792D01*
X640402D01*
Y-305736D01*
X640570D01*
Y-305680D01*
X640682D01*
Y-305624D01*
X640850D01*
Y-305568D01*
X640962D01*
Y-305512D01*
X641129D01*
Y-305456D01*
X641353D01*
Y-305400D01*
X641521D01*
Y-305344D01*
X641745D01*
Y-305288D01*
X642025D01*
Y-305233D01*
X642360D01*
Y-305176D01*
X642920D01*
Y-305121D01*
X642976D01*
Y-305176D01*
X643368D01*
Y-305233D01*
X643479D01*
Y-305288D01*
X643591D01*
Y-305344D01*
X643647D01*
Y-305400D01*
X643759D01*
Y-305456D01*
X643815D01*
Y-305512D01*
X643871D01*
Y-305568D01*
X643927D01*
Y-305624D01*
Y-305680D01*
X643983D01*
Y-305736D01*
X644039D01*
Y-305792D01*
Y-305848D01*
X644095D01*
Y-305904D01*
Y-305960D01*
Y-306016D01*
X644151D01*
Y-306072D01*
Y-306128D01*
Y-306184D01*
Y-306240D01*
Y-306295D01*
Y-306351D01*
Y-306407D01*
Y-306463D01*
Y-306519D01*
Y-306575D01*
Y-306631D01*
X644095D01*
Y-306687D01*
Y-306743D01*
X644039D01*
Y-306799D01*
Y-306855D01*
X643983D01*
Y-306911D01*
Y-306967D01*
X643927D01*
Y-307023D01*
X643871D01*
Y-307079D01*
X643815D01*
Y-307135D01*
X643759D01*
Y-307191D01*
X643647D01*
Y-307247D01*
X643591D01*
Y-307303D01*
X643535D01*
Y-307359D01*
X643424D01*
Y-307415D01*
X643312D01*
Y-307470D01*
X643256D01*
Y-307526D01*
X643088D01*
Y-307582D01*
X642864D01*
Y-307638D01*
X642640D01*
Y-307694D01*
X642584D01*
Y-307750D01*
X642472D01*
Y-307806D01*
X642193D01*
Y-307862D01*
X642025D01*
Y-307806D01*
Y-307750D01*
X642137D01*
Y-307694D01*
X642193D01*
Y-307638D01*
X642248D01*
Y-307582D01*
X642305D01*
Y-307526D01*
X642360D01*
Y-307470D01*
Y-307415D01*
Y-307359D01*
Y-307303D01*
Y-307247D01*
Y-307191D01*
X642305D01*
Y-307135D01*
X642248D01*
Y-307079D01*
X642193D01*
Y-307023D01*
X642137D01*
Y-306967D01*
X641465D01*
Y-307023D01*
X641186D01*
Y-307079D01*
X641018D01*
Y-307135D01*
X640794D01*
Y-307191D01*
X640626D01*
Y-307247D01*
X640458D01*
Y-307303D01*
X640290D01*
Y-307359D01*
X640178D01*
Y-307415D01*
X640010D01*
Y-307470D01*
X639843D01*
Y-307526D01*
X639675D01*
Y-307582D01*
X639507D01*
Y-307638D01*
X639339D01*
Y-307694D01*
X639115D01*
Y-307750D01*
X638780D01*
Y-307806D01*
X638556D01*
Y-307750D01*
X638388D01*
Y-307694D01*
X638332D01*
Y-307638D01*
X638276D01*
Y-307582D01*
X638220D01*
Y-307526D01*
Y-307470D01*
X638164D01*
Y-307415D01*
Y-307359D01*
Y-307303D01*
Y-307247D01*
Y-307191D01*
Y-307135D01*
X638108D01*
Y-307079D01*
Y-307023D01*
Y-306967D01*
Y-306911D01*
Y-306855D01*
Y-306799D01*
Y-306743D01*
Y-306687D01*
Y-306631D01*
Y-306575D01*
Y-306519D01*
Y-306463D01*
Y-306407D01*
Y-306351D01*
Y-306295D01*
Y-306240D01*
X638052D01*
Y-306184D01*
Y-306128D01*
Y-306072D01*
X637996D01*
Y-306016D01*
X637884D01*
Y-305960D01*
X637549D01*
Y-306016D01*
X637325D01*
Y-306072D01*
X637157D01*
Y-306128D01*
X636989D01*
Y-306184D01*
X636821D01*
Y-306240D01*
X636709D01*
Y-306295D01*
X636542D01*
Y-306351D01*
X636374D01*
Y-306407D01*
X636262D01*
Y-306463D01*
X636150D01*
Y-306519D01*
X635982D01*
Y-306575D01*
X635870D01*
Y-306631D01*
X635702D01*
Y-306687D01*
X635590D01*
Y-306743D01*
X635478D01*
Y-306799D01*
X635367D01*
Y-306855D01*
X635255D01*
Y-306911D01*
X635143D01*
Y-306967D01*
X634975D01*
Y-307023D01*
X634863D01*
Y-307079D01*
X634751D01*
Y-307135D01*
X634695D01*
Y-307191D01*
X634527D01*
Y-307247D01*
X634415D01*
Y-307303D01*
X634360D01*
Y-307359D01*
X634248D01*
Y-307415D01*
X634136D01*
Y-307470D01*
X634024D01*
Y-307526D01*
X633912D01*
Y-307582D01*
X633800D01*
Y-307638D01*
X633688D01*
Y-307694D01*
X633632D01*
Y-307750D01*
X633520D01*
Y-307806D01*
X633408D01*
Y-307862D01*
X633296D01*
Y-307918D01*
X633184D01*
Y-307974D01*
X633128D01*
Y-308030D01*
X633017D01*
Y-308086D01*
X632905D01*
Y-308142D01*
X632793D01*
Y-308198D01*
X632737D01*
Y-308254D01*
X632625D01*
Y-308310D01*
X632513D01*
Y-308366D01*
X632457D01*
Y-308422D01*
X632345D01*
Y-308478D01*
X632233D01*
Y-308534D01*
X632177D01*
Y-308590D01*
X632065D01*
Y-308646D01*
X631954D01*
Y-308701D01*
X631898D01*
Y-308757D01*
X631786D01*
Y-308813D01*
X631674D01*
Y-308869D01*
X631618D01*
Y-308925D01*
X631506D01*
Y-308981D01*
X631394D01*
Y-309037D01*
X631282D01*
Y-309093D01*
X631226D01*
Y-309149D01*
X631114D01*
Y-309205D01*
X631002D01*
Y-309261D01*
X630891D01*
Y-309317D01*
X630779D01*
Y-309373D01*
X630723D01*
Y-309429D01*
X630611D01*
Y-309373D01*
Y-309317D01*
Y-309261D01*
Y-309205D01*
X630667D01*
Y-309149D01*
Y-309093D01*
Y-309037D01*
Y-308981D01*
Y-308925D01*
Y-308869D01*
Y-308813D01*
X630723D01*
Y-308757D01*
Y-308701D01*
Y-308646D01*
Y-308590D01*
Y-308534D01*
Y-308478D01*
X630779D01*
Y-308422D01*
Y-308366D01*
Y-308310D01*
Y-308254D01*
Y-308198D01*
Y-308142D01*
X630835D01*
Y-308086D01*
Y-308030D01*
Y-307974D01*
Y-307918D01*
Y-307862D01*
Y-307806D01*
X630891D01*
Y-307750D01*
Y-307694D01*
Y-307638D01*
Y-307582D01*
Y-307526D01*
X630946D01*
Y-307470D01*
Y-307415D01*
Y-307359D01*
Y-307303D01*
Y-307247D01*
Y-307191D01*
X631002D01*
Y-307135D01*
Y-307079D01*
Y-307023D01*
Y-306967D01*
Y-306911D01*
Y-306855D01*
X631058D01*
Y-306799D01*
Y-306743D01*
Y-306687D01*
Y-306631D01*
Y-306575D01*
X631114D01*
Y-306519D01*
Y-306463D01*
Y-306407D01*
Y-306351D01*
Y-306295D01*
Y-306240D01*
X631170D01*
Y-306184D01*
Y-306128D01*
Y-306072D01*
Y-306016D01*
Y-305960D01*
Y-305904D01*
X631226D01*
Y-305848D01*
Y-305792D01*
Y-305736D01*
Y-305680D01*
Y-305624D01*
X631282D01*
Y-305568D01*
Y-305512D01*
Y-305456D01*
Y-305400D01*
Y-305344D01*
Y-305288D01*
Y-305233D01*
X631338D01*
Y-305176D01*
Y-305121D01*
Y-305065D01*
Y-305009D01*
Y-304953D01*
X631394D01*
Y-304897D01*
Y-304841D01*
Y-304785D01*
Y-304729D01*
Y-304673D01*
Y-304617D01*
X631450D01*
Y-304561D01*
Y-304505D01*
Y-304449D01*
X631506D01*
Y-304393D01*
Y-304337D01*
Y-304281D01*
Y-304225D01*
Y-304169D01*
Y-304113D01*
X631562D01*
Y-304058D01*
Y-304001D01*
Y-303946D01*
Y-303890D01*
Y-303834D01*
Y-303778D01*
X631618D01*
Y-303722D01*
Y-303666D01*
Y-303610D01*
Y-303554D01*
Y-303498D01*
X631674D01*
Y-303442D01*
Y-303386D01*
Y-303330D01*
Y-303274D01*
Y-303218D01*
Y-303162D01*
X631730D01*
Y-303106D01*
Y-303050D01*
Y-302994D01*
Y-302939D01*
Y-302883D01*
X631786D01*
Y-302827D01*
Y-302771D01*
Y-302715D01*
Y-302659D01*
Y-302603D01*
Y-302547D01*
X631842D01*
Y-302491D01*
Y-302435D01*
Y-302379D01*
Y-302323D01*
Y-302267D01*
Y-302211D01*
X631898D01*
Y-302155D01*
Y-302099D01*
Y-302043D01*
Y-301987D01*
Y-301931D01*
Y-301875D01*
X631954D01*
Y-301819D01*
Y-301764D01*
Y-301708D01*
Y-301652D01*
Y-301596D01*
X632010D01*
Y-301540D01*
Y-301484D01*
Y-301428D01*
Y-301372D01*
Y-301316D01*
Y-301260D01*
X632065D01*
Y-301204D01*
Y-301148D01*
Y-301092D01*
Y-301036D01*
Y-300980D01*
X632121D01*
Y-300924D01*
Y-300868D01*
Y-300812D01*
Y-300756D01*
Y-300700D01*
Y-300644D01*
X632177D01*
Y-300588D01*
Y-300533D01*
Y-300477D01*
Y-300421D01*
Y-300365D01*
Y-300309D01*
X632233D01*
Y-300253D01*
Y-300197D01*
Y-300141D01*
Y-300085D01*
Y-300029D01*
X632289D01*
Y-299973D01*
Y-299917D01*
Y-299861D01*
Y-299805D01*
Y-299749D01*
Y-299693D01*
X632345D01*
Y-299637D01*
Y-299581D01*
Y-299525D01*
Y-299469D01*
Y-299414D01*
X632401D01*
Y-299358D01*
Y-299302D01*
Y-299246D01*
Y-299190D01*
Y-299134D01*
Y-299078D01*
X632457D01*
Y-299022D01*
Y-298966D01*
X632289D01*
Y-298910D01*
Y-298854D01*
X631226D01*
Y-298910D01*
X630331D01*
Y-298966D01*
X629660D01*
Y-299022D01*
X628876D01*
Y-299078D01*
Y-299134D01*
X628820D01*
Y-299190D01*
Y-299246D01*
Y-299302D01*
X628764D01*
Y-299358D01*
Y-299414D01*
Y-299469D01*
Y-299525D01*
X628708D01*
Y-299581D01*
Y-299637D01*
Y-299693D01*
X628652D01*
Y-299749D01*
Y-299805D01*
Y-299861D01*
X628596D01*
Y-299917D01*
Y-299973D01*
Y-300029D01*
X628541D01*
Y-300085D01*
Y-300141D01*
Y-300197D01*
X628485D01*
Y-300253D01*
Y-300309D01*
Y-300365D01*
X628429D01*
Y-300421D01*
Y-300477D01*
X628373D01*
Y-300533D01*
Y-300588D01*
Y-300644D01*
X628317D01*
Y-300700D01*
Y-300756D01*
X628261D01*
Y-300812D01*
Y-300868D01*
X628205D01*
Y-300924D01*
Y-300980D01*
X628149D01*
Y-301036D01*
X628093D01*
Y-301092D01*
Y-301148D01*
X628037D01*
Y-301204D01*
Y-301260D01*
X627981D01*
Y-301316D01*
X627925D01*
Y-301372D01*
Y-301428D01*
X627869D01*
Y-301484D01*
X627813D01*
Y-301540D01*
Y-301596D01*
X627757D01*
Y-301652D01*
X627701D01*
Y-301708D01*
X627645D01*
Y-301764D01*
Y-301819D01*
X627589D01*
Y-301875D01*
X627533D01*
Y-301931D01*
X627478D01*
Y-301987D01*
X627422D01*
Y-302043D01*
X627366D01*
Y-302099D01*
X627310D01*
Y-302155D01*
X627254D01*
Y-302211D01*
X627198D01*
Y-302267D01*
X627142D01*
Y-302323D01*
X627086D01*
Y-302379D01*
X627030D01*
Y-302435D01*
X626974D01*
Y-302491D01*
X626918D01*
Y-302547D01*
X626862D01*
Y-302603D01*
X626806D01*
Y-302659D01*
X626694D01*
Y-302715D01*
X626638D01*
Y-302771D01*
X626526D01*
Y-302827D01*
X626470D01*
Y-302883D01*
X626414D01*
Y-302939D01*
X626302D01*
Y-302994D01*
X626191D01*
Y-303050D01*
X626135D01*
Y-303106D01*
X626023D01*
Y-303162D01*
X625911D01*
Y-303218D01*
X625799D01*
Y-303274D01*
X625631D01*
Y-303330D01*
X625519D01*
Y-303386D01*
X625351D01*
Y-303442D01*
X625128D01*
Y-303498D01*
X624904D01*
Y-303554D01*
X624512D01*
Y-303610D01*
X623841D01*
Y-303554D01*
X623449D01*
Y-303498D01*
X623225D01*
Y-303442D01*
X623057D01*
Y-303386D01*
X622890D01*
Y-303330D01*
X622778D01*
Y-303274D01*
X622666D01*
Y-303218D01*
X622554D01*
Y-303162D01*
X622442D01*
Y-303106D01*
X622330D01*
Y-303050D01*
X622274D01*
Y-302994D01*
X622218D01*
Y-302939D01*
X622106D01*
Y-302883D01*
X622050D01*
Y-302827D01*
X621994D01*
Y-302771D01*
X621938D01*
Y-302715D01*
X621882D01*
Y-302659D01*
X621827D01*
Y-302603D01*
X621715D01*
Y-302547D01*
Y-302491D01*
X621659D01*
Y-302435D01*
X621603D01*
Y-302379D01*
X621547D01*
Y-302323D01*
X621491D01*
Y-302267D01*
Y-302211D01*
X621435D01*
Y-302155D01*
X621379D01*
Y-302099D01*
Y-302043D01*
X621323D01*
Y-301987D01*
X621267D01*
Y-301931D01*
Y-301875D01*
X621211D01*
Y-301819D01*
Y-301764D01*
X621155D01*
Y-301708D01*
Y-301652D01*
X621099D01*
Y-301596D01*
Y-301540D01*
Y-301484D01*
X621043D01*
Y-301428D01*
Y-301372D01*
Y-301316D01*
X620987D01*
Y-301260D01*
Y-301204D01*
Y-301148D01*
X620931D01*
Y-301092D01*
Y-301036D01*
Y-300980D01*
Y-300924D01*
Y-300868D01*
X620875D01*
Y-300812D01*
Y-300756D01*
Y-300700D01*
Y-300644D01*
Y-300588D01*
Y-300533D01*
Y-300477D01*
Y-300421D01*
Y-300365D01*
Y-300309D01*
Y-300253D01*
Y-300197D01*
Y-300141D01*
Y-300085D01*
Y-300029D01*
Y-299973D01*
Y-299917D01*
Y-299861D01*
Y-299805D01*
X620931D01*
Y-299749D01*
Y-299693D01*
Y-299637D01*
Y-299581D01*
Y-299525D01*
X620987D01*
Y-299469D01*
Y-299414D01*
Y-299358D01*
Y-299302D01*
X621043D01*
Y-299246D01*
Y-299190D01*
Y-299134D01*
X621099D01*
Y-299078D01*
Y-299022D01*
Y-298966D01*
X621155D01*
Y-298910D01*
Y-298854D01*
X621211D01*
Y-298798D01*
Y-298742D01*
X621267D01*
Y-298686D01*
Y-298630D01*
X621323D01*
Y-298574D01*
Y-298518D01*
X621379D01*
Y-298462D01*
X621435D01*
Y-298406D01*
Y-298351D01*
X621491D01*
Y-298294D01*
X621547D01*
Y-298239D01*
X621603D01*
Y-298183D01*
X621659D01*
Y-298127D01*
X621715D01*
Y-298071D01*
X621770D01*
Y-298015D01*
X621827D01*
Y-297959D01*
X621882D01*
Y-297903D01*
X621938D01*
Y-297847D01*
X621994D01*
Y-297791D01*
X622050D01*
Y-297735D01*
X622162D01*
Y-297679D01*
X622218D01*
Y-297623D01*
X622330D01*
Y-297567D01*
X622442D01*
Y-297511D01*
X622498D01*
Y-297455D01*
X622610D01*
Y-297399D01*
X622722D01*
Y-297343D01*
X622890D01*
Y-297287D01*
X623001D01*
Y-297232D01*
X623169D01*
Y-297176D01*
X623337D01*
Y-297120D01*
X623505D01*
Y-297064D01*
X623729D01*
Y-297008D01*
X623953D01*
Y-296952D01*
X624176D01*
Y-296896D01*
X624512D01*
Y-296840D01*
X624848D01*
Y-296784D01*
X625295D01*
Y-296728D01*
X625855D01*
Y-296672D01*
X626359D01*
Y-296616D01*
X626750D01*
Y-296560D01*
X627086D01*
Y-296504D01*
X627366D01*
Y-296448D01*
X627478D01*
Y-296392D01*
X627533D01*
Y-296336D01*
Y-296280D01*
X627589D01*
Y-296224D01*
Y-296168D01*
X627645D01*
Y-296112D01*
Y-296057D01*
Y-296001D01*
X627701D01*
Y-295945D01*
Y-295889D01*
Y-295833D01*
X627757D01*
Y-295777D01*
Y-295721D01*
X627813D01*
Y-295665D01*
Y-295609D01*
Y-295553D01*
X627869D01*
Y-295497D01*
Y-295441D01*
Y-295385D01*
X627925D01*
Y-295329D01*
Y-295273D01*
Y-295217D01*
X627981D01*
Y-295161D01*
Y-295105D01*
Y-295049D01*
X628037D01*
Y-294993D01*
Y-294937D01*
Y-294882D01*
X628093D01*
Y-294826D01*
Y-294770D01*
Y-294714D01*
X628149D01*
Y-294658D01*
Y-294602D01*
Y-294546D01*
X628205D01*
Y-294490D01*
Y-294434D01*
Y-294378D01*
X628261D01*
Y-294322D01*
Y-294266D01*
Y-294210D01*
X628317D01*
Y-294154D01*
Y-294098D01*
X628373D01*
Y-294042D01*
Y-293986D01*
Y-293930D01*
X628429D01*
Y-293874D01*
Y-293818D01*
Y-293762D01*
X628485D01*
Y-293707D01*
Y-293651D01*
X628541D01*
Y-293595D01*
Y-293539D01*
Y-293483D01*
X628596D01*
Y-293427D01*
Y-293371D01*
X628652D01*
Y-293315D01*
Y-293259D01*
X628708D01*
Y-293203D01*
Y-293147D01*
Y-293091D01*
X628764D01*
Y-293035D01*
Y-292979D01*
X628820D01*
Y-292923D01*
Y-292867D01*
X628876D01*
Y-292811D01*
Y-292755D01*
Y-292699D01*
X628932D01*
Y-292643D01*
Y-292588D01*
X628988D01*
Y-292532D01*
Y-292476D01*
X629044D01*
Y-292420D01*
Y-292364D01*
X629100D01*
Y-292308D01*
Y-292252D01*
X629156D01*
Y-292196D01*
Y-292140D01*
X629212D01*
Y-292084D01*
Y-292028D01*
X629268D01*
Y-291972D01*
Y-291916D01*
X629324D01*
Y-291860D01*
Y-291804D01*
X629380D01*
Y-291748D01*
Y-291692D01*
X629436D01*
Y-291636D01*
Y-291580D01*
X629492D01*
Y-291525D01*
Y-291469D01*
X629548D01*
Y-291413D01*
Y-291357D01*
X629604D01*
Y-291301D01*
Y-291245D01*
X629660D01*
Y-291189D01*
Y-291133D01*
X629715D01*
Y-291077D01*
Y-291021D01*
X629772D01*
Y-290965D01*
Y-290909D01*
X629827D01*
Y-290853D01*
X629883D01*
Y-290797D01*
Y-290741D01*
X629939D01*
Y-290685D01*
Y-290629D01*
X629995D01*
Y-290573D01*
Y-290517D01*
X630051D01*
Y-290461D01*
X630107D01*
Y-290406D01*
Y-290350D01*
X630163D01*
Y-290294D01*
Y-290238D01*
X630219D01*
Y-290182D01*
X630275D01*
Y-290126D01*
Y-290070D01*
X630331D01*
Y-290014D01*
X630387D01*
Y-289958D01*
Y-289902D01*
X630443D01*
Y-289846D01*
Y-289790D01*
X630499D01*
Y-289734D01*
X630555D01*
Y-289678D01*
Y-289622D01*
X630611D01*
Y-289566D01*
X630667D01*
Y-289510D01*
Y-289454D01*
X630723D01*
Y-289398D01*
X630779D01*
Y-289342D01*
Y-289286D01*
X630835D01*
Y-289230D01*
X630891D01*
Y-289175D01*
Y-289119D01*
X630946D01*
Y-289063D01*
X631002D01*
Y-289007D01*
X631058D01*
Y-288951D01*
Y-288895D01*
X631114D01*
Y-288839D01*
X631170D01*
Y-288783D01*
X631226D01*
Y-288727D01*
Y-288671D01*
X631282D01*
Y-288615D01*
X631338D01*
Y-288559D01*
X631394D01*
Y-288503D01*
Y-288447D01*
X631450D01*
Y-288391D01*
X631506D01*
Y-288335D01*
X631562D01*
Y-288279D01*
Y-288223D01*
X631618D01*
Y-288167D01*
X631674D01*
Y-288111D01*
X631730D01*
Y-288055D01*
X631786D01*
Y-288000D01*
X631842D01*
Y-287944D01*
X631898D01*
Y-287888D01*
Y-287832D01*
X631954D01*
Y-287776D01*
X632010D01*
Y-287720D01*
X632065D01*
Y-287664D01*
X632121D01*
Y-287608D01*
X632177D01*
Y-287552D01*
X632233D01*
Y-287496D01*
X632289D01*
Y-287440D01*
X632345D01*
Y-287384D01*
X632401D01*
Y-287328D01*
X632457D01*
Y-287272D01*
X632513D01*
Y-287216D01*
X632569D01*
Y-287160D01*
X632625D01*
Y-287104D01*
X632681D01*
Y-287048D01*
X632737D01*
Y-286993D01*
X632793D01*
Y-286936D01*
X632849D01*
Y-286880D01*
X632905D01*
Y-286825D01*
X632961D01*
Y-286769D01*
X633017D01*
Y-286713D01*
X633128D01*
Y-286657D01*
X633184D01*
Y-286601D01*
X633240D01*
Y-286545D01*
X633296D01*
Y-286489D01*
X633408D01*
Y-286433D01*
X633464D01*
Y-286377D01*
X633520D01*
Y-286321D01*
X633632D01*
Y-286265D01*
X633688D01*
Y-286209D01*
X633800D01*
Y-286153D01*
X633856D01*
Y-286097D01*
X633968D01*
Y-286041D01*
X634080D01*
Y-285985D01*
X634192D01*
Y-285929D01*
X634304D01*
Y-285873D01*
X634415D01*
Y-285818D01*
X634583D01*
Y-285761D01*
X634751D01*
Y-285706D01*
X634919D01*
Y-285650D01*
X635143D01*
Y-285594D01*
X635423D01*
Y-285538D01*
X635702D01*
Y-285482D01*
X635982D01*
Y-285426D01*
X636318D01*
Y-285370D01*
X636765D01*
Y-285314D01*
X637269D01*
Y-285258D01*
X637716D01*
Y-285314D01*
D02*
G37*
%LPC*%
G36*
X634136Y-288503D02*
X633912D01*
Y-288559D01*
X633856D01*
Y-288615D01*
X633744D01*
Y-288671D01*
X633688D01*
Y-288727D01*
X633632D01*
Y-288783D01*
X633576D01*
Y-288839D01*
X633520D01*
Y-288895D01*
X633464D01*
Y-288951D01*
X633408D01*
Y-289007D01*
X633352D01*
Y-289063D01*
X633296D01*
Y-289119D01*
X633240D01*
Y-289175D01*
X633184D01*
Y-289230D01*
X633128D01*
Y-289286D01*
Y-289342D01*
X633073D01*
Y-289398D01*
X633017D01*
Y-289454D01*
X632961D01*
Y-289510D01*
X632905D01*
Y-289566D01*
Y-289622D01*
X632849D01*
Y-289678D01*
X632793D01*
Y-289734D01*
X632737D01*
Y-289790D01*
Y-289846D01*
X632681D01*
Y-289902D01*
X632625D01*
Y-289958D01*
X632569D01*
Y-290014D01*
Y-290070D01*
X632513D01*
Y-290126D01*
X632457D01*
Y-290182D01*
X632401D01*
Y-290238D01*
Y-290294D01*
X632345D01*
Y-290350D01*
X632289D01*
Y-290406D01*
Y-290461D01*
X632233D01*
Y-290517D01*
X632177D01*
Y-290573D01*
X632121D01*
Y-290629D01*
Y-290685D01*
X632065D01*
Y-290741D01*
X632010D01*
Y-290797D01*
Y-290853D01*
X631954D01*
Y-290909D01*
X631898D01*
Y-290965D01*
Y-291021D01*
X631842D01*
Y-291077D01*
X631786D01*
Y-291133D01*
Y-291189D01*
X631730D01*
Y-291245D01*
Y-291301D01*
X631674D01*
Y-291357D01*
X631618D01*
Y-291413D01*
Y-291469D01*
X631562D01*
Y-291525D01*
X631506D01*
Y-291580D01*
Y-291636D01*
X631450D01*
Y-291692D01*
Y-291748D01*
X631394D01*
Y-291804D01*
X631338D01*
Y-291860D01*
Y-291916D01*
X631282D01*
Y-291972D01*
Y-292028D01*
X631226D01*
Y-292084D01*
Y-292140D01*
X631170D01*
Y-292196D01*
X631114D01*
Y-292252D01*
Y-292308D01*
X631058D01*
Y-292364D01*
Y-292420D01*
X631002D01*
Y-292476D01*
Y-292532D01*
X630946D01*
Y-292588D01*
Y-292643D01*
X630891D01*
Y-292699D01*
Y-292755D01*
X630835D01*
Y-292811D01*
Y-292867D01*
X630779D01*
Y-292923D01*
Y-292979D01*
X630723D01*
Y-293035D01*
Y-293091D01*
X630667D01*
Y-293147D01*
Y-293203D01*
X630611D01*
Y-293259D01*
Y-293315D01*
X630555D01*
Y-293371D01*
Y-293427D01*
X630499D01*
Y-293483D01*
Y-293539D01*
Y-293595D01*
X630443D01*
Y-293651D01*
Y-293707D01*
X630387D01*
Y-293762D01*
Y-293818D01*
X630331D01*
Y-293874D01*
Y-293930D01*
X630275D01*
Y-293986D01*
Y-294042D01*
Y-294098D01*
X630219D01*
Y-294154D01*
Y-294210D01*
X630163D01*
Y-294266D01*
Y-294322D01*
X630107D01*
Y-294378D01*
Y-294434D01*
Y-294490D01*
X630051D01*
Y-294546D01*
Y-294602D01*
X629995D01*
Y-294658D01*
Y-294714D01*
X629939D01*
Y-294770D01*
Y-294826D01*
Y-294882D01*
X629883D01*
Y-294937D01*
Y-294993D01*
X629827D01*
Y-295049D01*
Y-295105D01*
Y-295161D01*
X629772D01*
Y-295217D01*
Y-295273D01*
X629715D01*
Y-295329D01*
Y-295385D01*
Y-295441D01*
X629660D01*
Y-295497D01*
Y-295553D01*
X629604D01*
Y-295609D01*
Y-295665D01*
Y-295721D01*
X629548D01*
Y-295777D01*
Y-295833D01*
Y-295889D01*
X629492D01*
Y-295945D01*
Y-296001D01*
X629436D01*
Y-296057D01*
Y-296112D01*
Y-296168D01*
Y-296224D01*
X629380D01*
Y-296280D01*
Y-296336D01*
Y-296392D01*
X630723D01*
Y-296336D01*
X631506D01*
Y-296280D01*
X632121D01*
Y-296224D01*
X632569D01*
Y-296168D01*
X632737D01*
Y-296112D01*
Y-296057D01*
Y-296001D01*
Y-295945D01*
X632793D01*
Y-295889D01*
Y-295833D01*
Y-295777D01*
Y-295721D01*
X632849D01*
Y-295665D01*
Y-295609D01*
Y-295553D01*
Y-295497D01*
X632905D01*
Y-295441D01*
Y-295385D01*
Y-295329D01*
Y-295273D01*
Y-295217D01*
X632961D01*
Y-295161D01*
Y-295105D01*
Y-295049D01*
Y-294993D01*
Y-294937D01*
X633017D01*
Y-294882D01*
Y-294826D01*
Y-294770D01*
Y-294714D01*
X633073D01*
Y-294658D01*
Y-294602D01*
Y-294546D01*
Y-294490D01*
Y-294434D01*
X633128D01*
Y-294378D01*
Y-294322D01*
Y-294266D01*
Y-294210D01*
Y-294154D01*
X633184D01*
Y-294098D01*
Y-294042D01*
Y-293986D01*
Y-293930D01*
Y-293874D01*
X633240D01*
Y-293818D01*
Y-293762D01*
Y-293707D01*
Y-293651D01*
Y-293595D01*
X633296D01*
Y-293539D01*
Y-293483D01*
Y-293427D01*
Y-293371D01*
Y-293315D01*
X633352D01*
Y-293259D01*
Y-293203D01*
Y-293147D01*
Y-293091D01*
Y-293035D01*
Y-292979D01*
X633408D01*
Y-292923D01*
Y-292867D01*
Y-292811D01*
Y-292755D01*
Y-292699D01*
X633464D01*
Y-292643D01*
Y-292588D01*
Y-292532D01*
Y-292476D01*
Y-292420D01*
X633520D01*
Y-292364D01*
Y-292308D01*
Y-292252D01*
Y-292196D01*
Y-292140D01*
X633576D01*
Y-292084D01*
Y-292028D01*
Y-291972D01*
Y-291916D01*
Y-291860D01*
Y-291804D01*
X633632D01*
Y-291748D01*
Y-291692D01*
Y-291636D01*
Y-291580D01*
Y-291525D01*
X633688D01*
Y-291469D01*
Y-291413D01*
Y-291357D01*
Y-291301D01*
Y-291245D01*
X633744D01*
Y-291189D01*
Y-291133D01*
Y-291077D01*
Y-291021D01*
Y-290965D01*
X633800D01*
Y-290909D01*
Y-290853D01*
Y-290797D01*
Y-290741D01*
Y-290685D01*
Y-290629D01*
X633856D01*
Y-290573D01*
Y-290517D01*
Y-290461D01*
Y-290406D01*
Y-290350D01*
X633912D01*
Y-290294D01*
Y-290238D01*
Y-290182D01*
Y-290126D01*
Y-290070D01*
Y-290014D01*
X633968D01*
Y-289958D01*
Y-289902D01*
Y-289846D01*
Y-289790D01*
Y-289734D01*
X634024D01*
Y-289678D01*
Y-289622D01*
Y-289566D01*
Y-289510D01*
Y-289454D01*
Y-289398D01*
X634080D01*
Y-289342D01*
Y-289286D01*
Y-289230D01*
Y-289175D01*
Y-289119D01*
Y-289063D01*
Y-289007D01*
X634136D01*
Y-288951D01*
Y-288895D01*
Y-288839D01*
Y-288783D01*
Y-288727D01*
Y-288671D01*
Y-288615D01*
Y-288559D01*
Y-288503D01*
D02*
G37*
G36*
X626470Y-299134D02*
X626191D01*
Y-299190D01*
X625295D01*
Y-299246D01*
X624624D01*
Y-299302D01*
X624176D01*
Y-299358D01*
X623841D01*
Y-299414D01*
X623617D01*
Y-299469D01*
X623393D01*
Y-299525D01*
X623281D01*
Y-299581D01*
X623169D01*
Y-299637D01*
X623057D01*
Y-299693D01*
X623001D01*
Y-299749D01*
X622945D01*
Y-299805D01*
X622890D01*
Y-299861D01*
X622834D01*
Y-299917D01*
X622778D01*
Y-299973D01*
X622722D01*
Y-300029D01*
Y-300085D01*
X622666D01*
Y-300141D01*
Y-300197D01*
X622610D01*
Y-300253D01*
Y-300309D01*
X622554D01*
Y-300365D01*
Y-300421D01*
Y-300477D01*
Y-300533D01*
X622498D01*
Y-300588D01*
Y-300644D01*
Y-300700D01*
Y-300756D01*
Y-300812D01*
Y-300868D01*
X622554D01*
Y-300924D01*
Y-300980D01*
Y-301036D01*
X622610D01*
Y-301092D01*
Y-301148D01*
Y-301204D01*
X622666D01*
Y-301260D01*
Y-301316D01*
X622722D01*
Y-301372D01*
X622778D01*
Y-301428D01*
X622834D01*
Y-301484D01*
X622890D01*
Y-301540D01*
Y-301596D01*
X622945D01*
Y-301652D01*
X623057D01*
Y-301708D01*
X623113D01*
Y-301764D01*
X623169D01*
Y-301819D01*
X623281D01*
Y-301875D01*
X623393D01*
Y-301931D01*
X623505D01*
Y-301987D01*
X623729D01*
Y-302043D01*
X624344D01*
Y-301987D01*
X624568D01*
Y-301931D01*
X624792D01*
Y-301875D01*
X624904D01*
Y-301819D01*
X625072D01*
Y-301764D01*
X625128D01*
Y-301708D01*
X625240D01*
Y-301652D01*
X625351D01*
Y-301596D01*
X625407D01*
Y-301540D01*
X625519D01*
Y-301484D01*
X625575D01*
Y-301428D01*
X625631D01*
Y-301372D01*
X625743D01*
Y-301316D01*
X625799D01*
Y-301260D01*
X625855D01*
Y-301204D01*
X625911D01*
Y-301148D01*
X625967D01*
Y-301092D01*
X626023D01*
Y-301036D01*
X626079D01*
Y-300980D01*
X626135D01*
Y-300924D01*
X626191D01*
Y-300868D01*
Y-300812D01*
X626247D01*
Y-300756D01*
X626302D01*
Y-300700D01*
X626359D01*
Y-300644D01*
Y-300588D01*
X626414D01*
Y-300533D01*
X626470D01*
Y-300477D01*
Y-300421D01*
X626526D01*
Y-300365D01*
Y-300309D01*
X626582D01*
Y-300253D01*
Y-300197D01*
X626638D01*
Y-300141D01*
Y-300085D01*
X626694D01*
Y-300029D01*
Y-299973D01*
X626750D01*
Y-299917D01*
Y-299861D01*
X626806D01*
Y-299805D01*
Y-299749D01*
X626862D01*
Y-299693D01*
Y-299637D01*
X626918D01*
Y-299581D01*
Y-299525D01*
Y-299469D01*
Y-299414D01*
Y-299358D01*
Y-299302D01*
X626862D01*
Y-299246D01*
X626806D01*
Y-299190D01*
X626470D01*
Y-299134D01*
D02*
G37*
%LPD*%
D24*
X992717Y-82874D02*
D03*
X980906D02*
D03*
X986811D02*
D03*
X980906Y-67126D02*
D03*
X992717D02*
D03*
X986811D02*
D03*
X587157Y-156697D02*
D03*
X575347D02*
D03*
X581252D02*
D03*
X575347Y-140949D02*
D03*
X587157D02*
D03*
X581252D02*
D03*
X343429Y-306949D02*
D03*
X331618D02*
D03*
X337524D02*
D03*
X331618Y-291201D02*
D03*
X343429D02*
D03*
X337524D02*
D03*
X68110Y-81496D02*
D03*
X56299D02*
D03*
X62205D02*
D03*
X56299Y-65748D02*
D03*
X68110D02*
D03*
X62205D02*
D03*
D31*
X647393Y-296562D02*
X647322Y-295565D01*
X647183Y-294576D01*
X646977Y-293598D01*
X646705Y-292636D01*
X646368Y-291695D01*
X645967Y-290780D01*
X645505Y-289894D01*
X644983Y-289041D01*
X644405Y-288226D01*
X643773Y-287452D01*
X643088Y-286723D01*
X642356Y-286043D01*
X641580Y-285414D01*
X640762Y-284840D01*
X639907Y-284322D01*
X639018Y-283865D01*
X638101Y-283469D01*
X637158Y-283136D01*
X636196Y-282868D01*
X635217Y-282667D01*
X634226Y-282533D01*
X633229Y-282467D01*
X632230Y-282469D01*
X631233Y-282539D01*
X630243Y-282677D01*
X629265Y-282882D01*
X628303Y-283153D01*
X627362Y-283490D01*
X626446Y-283889D01*
X625559Y-284351D01*
X624706Y-284871D01*
X623890Y-285449D01*
X623116Y-286081D01*
X622387Y-286764D01*
X621706Y-287496D01*
X621076Y-288272D01*
X620501Y-289089D01*
X619983Y-289944D01*
X619524Y-290832D01*
X619127Y-291749D01*
X618794Y-292691D01*
X618525Y-293654D01*
X618323Y-294632D01*
X618188Y-295623D01*
X618121Y-296620D01*
X618122Y-297619D01*
X618191Y-298616D01*
X618328Y-299606D01*
X618533Y-300585D01*
X618803Y-301547D01*
X619138Y-302488D01*
X619537Y-303404D01*
X619998Y-304291D01*
X620518Y-305145D01*
X621095Y-305961D01*
X621726Y-306736D01*
X622408Y-307466D01*
X623139Y-308148D01*
X623915Y-308778D01*
X624732Y-309354D01*
X625586Y-309873D01*
X626473Y-310332D01*
X627390Y-310730D01*
X628332Y-311065D01*
X629294Y-311334D01*
X630273Y-311537D01*
X631263Y-311673D01*
X632260Y-311741D01*
X633259Y-311741D01*
X634257Y-311672D01*
X635247Y-311536D01*
X636225Y-311333D01*
X637187Y-311064D01*
X638129Y-310729D01*
X639046Y-310331D01*
X639933Y-309871D01*
X640787Y-309352D01*
X641604Y-308776D01*
X642380Y-308145D01*
X643110Y-307464D01*
X643793Y-306733D01*
X644424Y-305958D01*
X645000Y-305142D01*
X645520Y-304289D01*
X645980Y-303401D01*
X646379Y-302485D01*
X646714Y-301543D01*
X646984Y-300581D01*
X647189Y-299603D01*
X647325Y-298613D01*
X647394Y-297616D01*
X647395Y-296616D01*
D32*
X544024Y-239311D02*
D03*
Y-226437D02*
D03*
X126524Y-151437D02*
D03*
Y-164311D02*
D03*
X943024Y-1437D02*
D03*
Y-14311D02*
D03*
X932024D02*
D03*
Y-1437D02*
D03*
X862524D02*
D03*
Y-14311D02*
D03*
X787524Y-1437D02*
D03*
Y-14311D02*
D03*
X712524Y-1437D02*
D03*
Y-14311D02*
D03*
X637524Y-1437D02*
D03*
Y-14311D02*
D03*
X562524Y-1437D02*
D03*
Y-14311D02*
D03*
X487524Y-1437D02*
D03*
Y-14311D02*
D03*
X412524Y-1437D02*
D03*
Y-14311D02*
D03*
X337524Y-1437D02*
D03*
Y-14311D02*
D03*
X262524Y-1437D02*
D03*
Y-14311D02*
D03*
X187524Y-1437D02*
D03*
Y-14311D02*
D03*
X116524Y-1437D02*
D03*
Y-14311D02*
D03*
X108524Y-1437D02*
D03*
Y-14311D02*
D03*
X1019024Y-70842D02*
D03*
Y-83716D02*
D03*
X925524Y-70842D02*
D03*
Y-83716D02*
D03*
X754524Y-76437D02*
D03*
Y-89311D02*
D03*
X745524Y-76437D02*
D03*
Y-89311D02*
D03*
X679524Y-76437D02*
D03*
Y-89311D02*
D03*
X670524Y-76437D02*
D03*
Y-89311D02*
D03*
X529024Y-76437D02*
D03*
Y-89311D02*
D03*
X521024Y-76437D02*
D03*
Y-89311D02*
D03*
X375024Y-76437D02*
D03*
Y-89311D02*
D03*
X300524Y-76437D02*
D03*
Y-89311D02*
D03*
X229524Y-76437D02*
D03*
Y-89311D02*
D03*
X220024Y-76437D02*
D03*
Y-89311D02*
D03*
X140524Y-76437D02*
D03*
Y-89311D02*
D03*
X150024Y-76437D02*
D03*
Y-89311D02*
D03*
X991024Y-151437D02*
D03*
Y-164311D02*
D03*
X951024Y-151437D02*
D03*
Y-164311D02*
D03*
X806524D02*
D03*
Y-151437D02*
D03*
X731524D02*
D03*
Y-164311D02*
D03*
X662024Y-151437D02*
D03*
Y-164311D02*
D03*
X650524Y-151437D02*
D03*
Y-164311D02*
D03*
X506024Y-151437D02*
D03*
Y-164311D02*
D03*
X427283Y-151437D02*
D03*
Y-164311D02*
D03*
X356024Y-151437D02*
D03*
Y-164311D02*
D03*
X281524Y-151437D02*
D03*
Y-164311D02*
D03*
X206524Y-151437D02*
D03*
Y-164311D02*
D03*
X135524Y-151437D02*
D03*
Y-164311D02*
D03*
X66024Y-293563D02*
D03*
Y-306437D02*
D03*
X17524Y-151437D02*
D03*
Y-164311D02*
D03*
X914524Y-226437D02*
D03*
Y-239311D02*
D03*
X922764Y-226437D02*
D03*
Y-239311D02*
D03*
X843524Y-226437D02*
D03*
Y-239311D02*
D03*
X768524Y-226437D02*
D03*
Y-239311D02*
D03*
X693524Y-226437D02*
D03*
Y-239311D02*
D03*
X619024Y-226437D02*
D03*
Y-239311D02*
D03*
X469024Y-226437D02*
D03*
Y-239311D02*
D03*
X394024Y-226437D02*
D03*
Y-239311D02*
D03*
X318524Y-226437D02*
D03*
Y-239311D02*
D03*
X243524Y-226437D02*
D03*
Y-239311D02*
D03*
X161024Y-226437D02*
D03*
Y-239311D02*
D03*
X152524Y-226437D02*
D03*
Y-239311D02*
D03*
X33524Y-226437D02*
D03*
Y-239311D02*
D03*
X994524Y-293563D02*
D03*
Y-306437D02*
D03*
X986024Y-293563D02*
D03*
Y-306437D02*
D03*
X159024Y-76437D02*
D03*
Y-89311D02*
D03*
X891213Y-293563D02*
D03*
Y-306437D02*
D03*
X472024Y-293563D02*
D03*
Y-306437D02*
D03*
X151024Y-293563D02*
D03*
Y-306437D02*
D03*
X159024Y-293563D02*
D03*
Y-306437D02*
D03*
X57024Y-293563D02*
D03*
Y-306437D02*
D03*
D33*
X980902Y29221D02*
D03*
X988146D02*
D03*
D34*
X949248Y-123020D02*
D03*
Y-115539D02*
D03*
X939799Y-119280D02*
D03*
X983413Y-104504D02*
D03*
X973964Y-108245D02*
D03*
Y-100764D02*
D03*
X1017937Y1961D02*
D03*
X1007110D02*
D03*
X1007110Y-1780D02*
D03*
X1007110Y-5520D02*
D03*
X1017937Y-1780D02*
D03*
Y-5520D02*
D03*
D35*
X969024Y-51555D02*
D03*
X965283Y-61004D02*
D03*
X972764D02*
D03*
D36*
X977905Y-165091D02*
D03*
X963142D02*
D03*
Y-141469D02*
D03*
X977905D02*
D03*
D37*
X982465Y22220D02*
D03*
X987583D02*
D03*
X851583Y-116279D02*
D03*
X846465D02*
D03*
X851583Y-100779D02*
D03*
X846465D02*
D03*
X914965Y-113279D02*
D03*
X920083D02*
D03*
X954965Y-122280D02*
D03*
X960083D02*
D03*
X1026965Y-14279D02*
D03*
X1032083D02*
D03*
X954965Y-116779D02*
D03*
X960083D02*
D03*
X945083Y-129279D02*
D03*
X939965D02*
D03*
X1032083Y-8280D02*
D03*
X1026965D02*
D03*
D38*
X891024Y-83339D02*
D03*
Y-78220D02*
D03*
X871524Y-135221D02*
D03*
Y-140339D02*
D03*
X977524Y-48839D02*
D03*
Y-43720D02*
D03*
X934024Y-118339D02*
D03*
Y-113221D02*
D03*
X967248Y-108174D02*
D03*
Y-103055D02*
D03*
X989024Y-104720D02*
D03*
Y-109839D02*
D03*
X1052559Y-162461D02*
D03*
Y-167579D02*
D03*
X965024Y-66720D02*
D03*
Y-71839D02*
D03*
X1010024Y-163221D02*
D03*
Y-168339D02*
D03*
X928524Y-118339D02*
D03*
Y-113221D02*
D03*
X1004524Y-163221D02*
D03*
Y-168339D02*
D03*
D39*
X959709Y-43780D02*
D03*
X970339D02*
D03*
D40*
X920024Y-102779D02*
D03*
X925024Y-97780D02*
D03*
Y-102779D02*
D03*
X930339D02*
D03*
X920024Y-97780D02*
D03*
X930024D02*
D03*
D41*
X1024016Y11161D02*
D03*
X1004724D02*
D03*
X1027165D02*
D03*
X1001575D02*
D03*
D42*
X1015354D02*
D03*
X1013386D02*
D03*
X1011417D02*
D03*
X1009449D02*
D03*
X1017323D02*
D03*
X1019291D02*
D03*
X1021260D02*
D03*
X1007480D02*
D03*
D43*
X822024Y-79280D02*
D03*
X1074524Y-325279D02*
D03*
X-12976Y-262280D02*
D03*
X1072524Y24721D02*
D03*
D44*
X891142Y-43169D02*
D03*
Y-21122D02*
D03*
D45*
X906398Y-38051D02*
D03*
Y-34114D02*
D03*
Y-30177D02*
D03*
Y-26240D02*
D03*
D46*
X881417Y-109198D02*
D03*
D47*
X864297Y-107388D02*
D03*
X865688Y-105996D02*
D03*
X867080Y-104604D02*
D03*
X868472Y-103212D02*
D03*
X869864Y-101820D02*
D03*
X871256Y-100428D02*
D03*
X872648Y-99036D02*
D03*
X874040Y-97645D02*
D03*
X875432Y-96253D02*
D03*
X876824Y-94861D02*
D03*
X878216Y-93469D02*
D03*
X879608Y-92077D02*
D03*
X898538Y-111007D02*
D03*
X897146Y-112399D02*
D03*
X895754Y-113791D02*
D03*
X894363Y-115183D02*
D03*
X892970Y-116575D02*
D03*
X891579Y-117967D02*
D03*
X890187Y-119359D02*
D03*
X888795Y-120751D02*
D03*
X887403Y-122143D02*
D03*
X886011Y-123535D02*
D03*
X884619Y-124926D02*
D03*
X883227Y-126319D02*
D03*
D48*
Y-92077D02*
D03*
X884619Y-93469D02*
D03*
X886011Y-94861D02*
D03*
X887403Y-96253D02*
D03*
X888795Y-97645D02*
D03*
X890187Y-99036D02*
D03*
X891579Y-100428D02*
D03*
X892970Y-101820D02*
D03*
X894363Y-103212D02*
D03*
X895754Y-104604D02*
D03*
X897146Y-105996D02*
D03*
X898538Y-107388D02*
D03*
X879608Y-126319D02*
D03*
X878216Y-124926D02*
D03*
X876824Y-123535D02*
D03*
X875432Y-122143D02*
D03*
X874040Y-120751D02*
D03*
X872648Y-119359D02*
D03*
X871256Y-117967D02*
D03*
X869864Y-116575D02*
D03*
X868472Y-115183D02*
D03*
X867080Y-113791D02*
D03*
X865688Y-112399D02*
D03*
X864297Y-111007D02*
D03*
D49*
X862000Y-113303D02*
D03*
X863392Y-114695D02*
D03*
X864784Y-116087D02*
D03*
X866176Y-117479D02*
D03*
X867568Y-118871D02*
D03*
X868960Y-120263D02*
D03*
X870351Y-121655D02*
D03*
X871743Y-123047D02*
D03*
X873135Y-124439D02*
D03*
X874527Y-125831D02*
D03*
X875919Y-127223D02*
D03*
X877311Y-128615D02*
D03*
X900835Y-105091D02*
D03*
X899443Y-103699D02*
D03*
X898051Y-102307D02*
D03*
X896659Y-100915D02*
D03*
X895267Y-99523D02*
D03*
X893875Y-98131D02*
D03*
X892483Y-96739D02*
D03*
X891091Y-95347D02*
D03*
X889699Y-93955D02*
D03*
X888307Y-92563D02*
D03*
X886916Y-91171D02*
D03*
X885524Y-89780D02*
D03*
D50*
Y-128615D02*
D03*
X886916Y-127223D02*
D03*
X888307Y-125831D02*
D03*
X889699Y-124439D02*
D03*
X891091Y-123047D02*
D03*
X892483Y-121655D02*
D03*
X893875Y-120263D02*
D03*
X895267Y-118871D02*
D03*
X896659Y-117479D02*
D03*
X898051Y-116087D02*
D03*
X899443Y-114695D02*
D03*
X900835Y-113303D02*
D03*
X877311Y-89780D02*
D03*
X875919Y-91171D02*
D03*
X874527Y-92563D02*
D03*
X873135Y-93955D02*
D03*
X871743Y-95347D02*
D03*
X870351Y-96739D02*
D03*
X868960Y-98131D02*
D03*
X867568Y-99523D02*
D03*
X866176Y-100915D02*
D03*
X864784Y-102307D02*
D03*
X863392Y-103699D02*
D03*
X862000Y-105091D02*
D03*
D51*
X1019658Y-162374D02*
D03*
X1043279Y-168280D02*
D03*
Y-162374D02*
D03*
X1019658Y-168280D02*
D03*
D52*
X1019281Y-132283D02*
D03*
X1038966Y-134252D02*
D03*
X586877Y-290000D02*
D03*
X581719Y-284252D02*
D03*
X937967Y-317717D02*
D03*
X918283Y-315748D02*
D03*
X234842Y-317717D02*
D03*
X215158Y-315748D02*
D03*
X131718Y-317717D02*
D03*
X112032Y-315748D02*
D03*
X834842Y-317717D02*
D03*
X815158Y-315748D02*
D03*
X540002Y-290000D02*
D03*
X534844Y-284252D02*
D03*
X75472Y-209252D02*
D03*
X80630Y-215000D02*
D03*
X118130D02*
D03*
X1055625D02*
D03*
X1050467Y-209252D02*
D03*
X1018125Y-215000D02*
D03*
X1012967Y-209252D02*
D03*
X19173Y-96732D02*
D03*
X24331Y-102480D02*
D03*
X56693Y-134252D02*
D03*
X61850Y-140000D02*
D03*
X1036875D02*
D03*
X1031717Y-134252D02*
D03*
X1050467D02*
D03*
X1055625Y-140000D02*
D03*
X52500Y10000D02*
D03*
X47343Y15748D02*
D03*
X15000Y10000D02*
D03*
X9843Y15748D02*
D03*
X971250Y-215000D02*
D03*
X966092Y-209252D02*
D03*
X127502Y-290000D02*
D03*
X118127D02*
D03*
X113757Y-284252D02*
D03*
X122345D02*
D03*
X956719D02*
D03*
X961877Y-290000D02*
D03*
X948132Y-284252D02*
D03*
X952502Y-290000D02*
D03*
X20007Y-284252D02*
D03*
X24377Y-290000D02*
D03*
X28594Y-284252D02*
D03*
X33752Y-290000D02*
D03*
X207507Y-284252D02*
D03*
X211877Y-290000D02*
D03*
X216094Y-284252D02*
D03*
X221252Y-290000D02*
D03*
X858752D02*
D03*
X854382Y-284252D02*
D03*
X868127Y-290000D02*
D03*
X862969Y-284252D02*
D03*
X1046250Y-290000D02*
D03*
X1041880Y-284252D02*
D03*
X1055625Y-290000D02*
D03*
X1050467Y-284252D02*
D03*
X28593Y-59252D02*
D03*
X33750Y-65000D02*
D03*
X221251Y-215000D02*
D03*
X216093Y-209252D02*
D03*
X296251Y-215000D02*
D03*
X291093Y-209252D02*
D03*
X371252Y-215000D02*
D03*
X366094Y-209252D02*
D03*
X446251Y-215000D02*
D03*
X441093Y-209252D02*
D03*
X521251Y-215000D02*
D03*
X516093Y-209252D02*
D03*
X596251Y-215000D02*
D03*
X591093Y-209252D02*
D03*
X671251Y-215000D02*
D03*
X666093Y-209252D02*
D03*
X746251Y-215000D02*
D03*
X741093Y-209252D02*
D03*
X821251Y-215000D02*
D03*
X816094Y-209252D02*
D03*
X896251Y-215000D02*
D03*
X891094Y-209252D02*
D03*
X305625Y-290000D02*
D03*
X300467Y-284252D02*
D03*
X183750Y-140000D02*
D03*
X178593Y-134252D02*
D03*
X258750Y-140000D02*
D03*
X253592Y-134252D02*
D03*
X333750Y-140000D02*
D03*
X328592Y-134252D02*
D03*
X408750Y-140000D02*
D03*
X403592Y-134252D02*
D03*
X483750Y-140000D02*
D03*
X478592Y-134252D02*
D03*
X558750Y-140000D02*
D03*
X553592Y-134252D02*
D03*
X633750Y-140000D02*
D03*
X628592Y-134252D02*
D03*
X708750Y-140000D02*
D03*
X703592Y-134252D02*
D03*
X783750Y-140000D02*
D03*
X778592Y-134252D02*
D03*
X858750Y-140000D02*
D03*
X15000Y-215000D02*
D03*
X9843Y-209252D02*
D03*
X933750Y-140000D02*
D03*
X928592Y-134252D02*
D03*
X108850Y-140000D02*
D03*
X103693Y-134252D02*
D03*
X127500Y-65000D02*
D03*
X122343Y-59252D02*
D03*
X202500Y-65000D02*
D03*
X197343Y-59252D02*
D03*
X277500Y-65000D02*
D03*
X272342Y-59252D02*
D03*
X352500Y-65000D02*
D03*
X347342Y-59252D02*
D03*
X427500Y-65000D02*
D03*
X422342Y-59252D02*
D03*
X577500Y-65000D02*
D03*
X572342Y-59252D02*
D03*
X727500Y-65000D02*
D03*
X722342Y-59252D02*
D03*
X802500Y-65000D02*
D03*
X797342Y-59252D02*
D03*
X877500Y-65000D02*
D03*
X872342Y-59252D02*
D03*
X1046250Y-65000D02*
D03*
X1041092Y-59252D02*
D03*
X502500Y-65000D02*
D03*
X497342Y-59252D02*
D03*
X652500Y-65000D02*
D03*
X647342Y-59252D02*
D03*
X952500Y-65000D02*
D03*
X947342Y-59252D02*
D03*
X90000Y10000D02*
D03*
X84842Y15748D02*
D03*
X165000Y10000D02*
D03*
X159843Y15748D02*
D03*
X240000Y10000D02*
D03*
X234842Y15748D02*
D03*
X315000Y10000D02*
D03*
X309842Y15748D02*
D03*
X390000Y10000D02*
D03*
X384842Y15748D02*
D03*
X465000Y10000D02*
D03*
X459842Y15748D02*
D03*
X540000Y10000D02*
D03*
X534842Y15748D02*
D03*
X615000Y10000D02*
D03*
X609842Y15748D02*
D03*
X690000Y10000D02*
D03*
X684842Y15748D02*
D03*
X765000Y10000D02*
D03*
X759842Y15748D02*
D03*
X840000Y10000D02*
D03*
X834842Y15748D02*
D03*
X915000Y10000D02*
D03*
X909842Y15748D02*
D03*
X1065000Y10000D02*
D03*
X1059842Y15748D02*
D03*
X540002Y-290000D02*
D03*
X561877Y-280000D02*
D03*
X515002D02*
D03*
X586877Y-290000D02*
D03*
D53*
X591877Y-300000D02*
D03*
X551877D02*
D03*
X571877D02*
D03*
X545002D02*
D03*
X505002D02*
D03*
X525002D02*
D03*
X45630Y-225000D02*
D03*
X85630D02*
D03*
X83130D02*
D03*
X123130D02*
D03*
X65630D02*
D03*
X103130D02*
D03*
X1003125D02*
D03*
X1040625D02*
D03*
X1060625D02*
D03*
X1020625D02*
D03*
X1023125D02*
D03*
X983125D02*
D03*
X9331Y-112480D02*
D03*
X-10669D02*
D03*
X29331D02*
D03*
X26850Y-150000D02*
D03*
X66850D02*
D03*
X46850D02*
D03*
X1001875D02*
D03*
X1060625D02*
D03*
X1040625D02*
D03*
X1021875D02*
D03*
X37500Y0D02*
D03*
X0D02*
D03*
X57500D02*
D03*
X17500D02*
D03*
X20000D02*
D03*
X-20000D02*
D03*
X976250Y-225000D02*
D03*
X936250D02*
D03*
X956250D02*
D03*
X112502Y-300000D02*
D03*
X123127D02*
D03*
X83127D02*
D03*
X132502D02*
D03*
X92502D02*
D03*
X103127D02*
D03*
X937502D02*
D03*
X946877D02*
D03*
X926877D02*
D03*
X966877D02*
D03*
X917502D02*
D03*
X957502D02*
D03*
X9377D02*
D03*
X-10623D02*
D03*
X29377D02*
D03*
X18752D02*
D03*
X-1248D02*
D03*
X38752D02*
D03*
X18752D02*
D03*
X9377D02*
D03*
X196877D02*
D03*
X176877D02*
D03*
X216877D02*
D03*
X206252D02*
D03*
X186252D02*
D03*
X226252D02*
D03*
X206252D02*
D03*
X196877D02*
D03*
X863752D02*
D03*
X823752D02*
D03*
X873127D02*
D03*
X833127D02*
D03*
X843752D02*
D03*
X853127D02*
D03*
X1051250D02*
D03*
X1011250D02*
D03*
X1060625D02*
D03*
X1020625D02*
D03*
X1031250D02*
D03*
X1040625D02*
D03*
X18750Y-75000D02*
D03*
X-1250D02*
D03*
X38750D02*
D03*
X1031468Y-165327D02*
D03*
X226251Y-225000D02*
D03*
X186251D02*
D03*
X206251D02*
D03*
X301251D02*
D03*
X261251D02*
D03*
X281251D02*
D03*
X376252D02*
D03*
X336252D02*
D03*
X356252D02*
D03*
X451251D02*
D03*
X411251D02*
D03*
X431251D02*
D03*
X526251D02*
D03*
X486251D02*
D03*
X506251D02*
D03*
X601251D02*
D03*
X561251D02*
D03*
X581251D02*
D03*
X676251D02*
D03*
X636251D02*
D03*
X656251D02*
D03*
X751251D02*
D03*
X711251D02*
D03*
X731251D02*
D03*
X826251D02*
D03*
X786251D02*
D03*
X806251D02*
D03*
X901251D02*
D03*
X861251D02*
D03*
X881251D02*
D03*
X310625Y-300000D02*
D03*
X270625D02*
D03*
X290625D02*
D03*
X188750Y-150000D02*
D03*
X148750D02*
D03*
X168750D02*
D03*
X263750D02*
D03*
X223750D02*
D03*
X243750D02*
D03*
X338750D02*
D03*
X298750D02*
D03*
X318750D02*
D03*
X413750D02*
D03*
X373750D02*
D03*
X393750D02*
D03*
X488750D02*
D03*
X448750D02*
D03*
X468750D02*
D03*
X563750D02*
D03*
X523750D02*
D03*
X543750D02*
D03*
X638750D02*
D03*
X598750D02*
D03*
X618750D02*
D03*
X713750D02*
D03*
X673750D02*
D03*
X693750D02*
D03*
X788750D02*
D03*
X748750D02*
D03*
X768750D02*
D03*
X863750D02*
D03*
X823750D02*
D03*
X843750D02*
D03*
X20000Y-225000D02*
D03*
X-20000D02*
D03*
X0D02*
D03*
X938750Y-150000D02*
D03*
X898750D02*
D03*
X918750D02*
D03*
X113850D02*
D03*
X73850D02*
D03*
X93850D02*
D03*
X132500Y-75000D02*
D03*
X92500D02*
D03*
X112500D02*
D03*
X207500D02*
D03*
X167500D02*
D03*
X187500D02*
D03*
X282500D02*
D03*
X242500D02*
D03*
X262500D02*
D03*
X357500D02*
D03*
X317500D02*
D03*
X337500D02*
D03*
X432500D02*
D03*
X392500D02*
D03*
X412500D02*
D03*
X582500D02*
D03*
X542500D02*
D03*
X562500D02*
D03*
X732500D02*
D03*
X692500D02*
D03*
X712500D02*
D03*
X807500D02*
D03*
X767500D02*
D03*
X787500D02*
D03*
X882500D02*
D03*
X842500D02*
D03*
X862500D02*
D03*
X1051250D02*
D03*
X1011250D02*
D03*
X1031250D02*
D03*
X507500D02*
D03*
X467500D02*
D03*
X487500D02*
D03*
X657500D02*
D03*
X617500D02*
D03*
X637500D02*
D03*
X957500D02*
D03*
X917500D02*
D03*
X937500D02*
D03*
X95000Y0D02*
D03*
X55000D02*
D03*
X75000D02*
D03*
X170000D02*
D03*
X130000D02*
D03*
X150000D02*
D03*
X245000D02*
D03*
X205000D02*
D03*
X225000D02*
D03*
X320000D02*
D03*
X280000D02*
D03*
X300000D02*
D03*
X395000D02*
D03*
X355000D02*
D03*
X375000D02*
D03*
X470000D02*
D03*
X430000D02*
D03*
X450000D02*
D03*
X545000D02*
D03*
X505000D02*
D03*
X525000D02*
D03*
X620000D02*
D03*
X580000D02*
D03*
X600000D02*
D03*
X695000D02*
D03*
X655000D02*
D03*
X675000D02*
D03*
X770000D02*
D03*
X730000D02*
D03*
X750000D02*
D03*
X845000D02*
D03*
X805000D02*
D03*
X825000D02*
D03*
X920000D02*
D03*
X880000D02*
D03*
X900000D02*
D03*
X995000D02*
D03*
X955000D02*
D03*
X975000D02*
D03*
X1070000D02*
D03*
X1030000D02*
D03*
X1050000D02*
D03*
X551877Y-300000D02*
D03*
X545002D02*
D03*
X525002D02*
D03*
X505002D02*
D03*
X571877D02*
D03*
D54*
X562035Y-281142D02*
D03*
X515160D02*
D03*
X55787Y-206142D02*
D03*
X93287D02*
D03*
X1030783D02*
D03*
X993283D02*
D03*
X-512Y-93622D02*
D03*
X37008Y-131142D02*
D03*
X1012033D02*
D03*
X1030783D02*
D03*
X27657Y18858D02*
D03*
X-9843D02*
D03*
X946408Y-206142D02*
D03*
X102659Y-281142D02*
D03*
X93284D02*
D03*
X937034D02*
D03*
X927659D02*
D03*
X-466D02*
D03*
X8909D02*
D03*
X187034D02*
D03*
X196409D02*
D03*
X833909D02*
D03*
X843284D02*
D03*
X1021408D02*
D03*
X1030783D02*
D03*
X8907Y-56142D02*
D03*
X196408Y-206142D02*
D03*
X271409D02*
D03*
X346410D02*
D03*
X421409D02*
D03*
X496409D02*
D03*
X571409D02*
D03*
X646409D02*
D03*
X721409D02*
D03*
X796409D02*
D03*
X871408D02*
D03*
X280783Y-281142D02*
D03*
X158907Y-131142D02*
D03*
X233908D02*
D03*
X308908D02*
D03*
X383908D02*
D03*
X458908D02*
D03*
X533908D02*
D03*
X608908D02*
D03*
X683908D02*
D03*
X758908D02*
D03*
X833908D02*
D03*
X-9843Y-206142D02*
D03*
X908908Y-131142D02*
D03*
X84008D02*
D03*
X102657Y-56142D02*
D03*
X177657D02*
D03*
X252658D02*
D03*
X327658D02*
D03*
X402658D02*
D03*
X552658D02*
D03*
X702658D02*
D03*
X777658D02*
D03*
X852658D02*
D03*
X1021408D02*
D03*
X477658D02*
D03*
X627658D02*
D03*
X927658D02*
D03*
X65158Y18858D02*
D03*
X140157D02*
D03*
X215158D02*
D03*
X290158D02*
D03*
X365158D02*
D03*
X440158D02*
D03*
X515158D02*
D03*
X590158D02*
D03*
X665158D02*
D03*
X740158D02*
D03*
X815158D02*
D03*
X890158D02*
D03*
X965158D02*
D03*
X1040158D02*
D03*
D55*
X590657Y-300000D02*
D03*
X1002992Y16850D02*
D03*
X1025748D02*
D03*
X605656Y-290000D02*
D03*
X580656Y-280000D02*
D03*
X610656Y-300000D02*
D03*
D56*
X112972Y-209252D02*
D03*
X984842Y15157D02*
D03*
D57*
X112630Y-197500D02*
D03*
Y-257500D02*
D03*
X18630D02*
D03*
Y-197500D02*
D03*
X1050125D02*
D03*
Y-257500D02*
D03*
X956125D02*
D03*
Y-197500D02*
D03*
X-18169Y-65480D02*
D03*
X41831D02*
D03*
Y-159480D02*
D03*
X-18169D02*
D03*
X-150Y-122500D02*
D03*
Y-182500D02*
D03*
X93850D02*
D03*
Y-122500D02*
D03*
X-9500Y27500D02*
D03*
Y-32500D02*
D03*
X84500D02*
D03*
Y27500D02*
D03*
X262502Y-327500D02*
D03*
Y-267500D02*
D03*
X787502D02*
D03*
Y-327500D02*
D03*
X768742D02*
D03*
Y-267500D02*
D03*
X375041D02*
D03*
Y-327500D02*
D03*
X750002D02*
D03*
Y-267500D02*
D03*
X300002Y-327500D02*
D03*
Y-267500D02*
D03*
D58*
X986811Y-75000D02*
D03*
X581252Y-148823D02*
D03*
X337524Y-299075D02*
D03*
X62205Y-73622D02*
D03*
D59*
X915024Y-100279D02*
D03*
X935024Y-96280D02*
D03*
Y-104279D02*
D03*
D60*
X997362Y14764D02*
D03*
X1031378D02*
D03*
D61*
Y31220D02*
D03*
X997362D02*
D03*
D62*
X853592Y-134252D02*
D03*
D63*
X990000Y10000D02*
D03*
D64*
X975524Y-132280D02*
D03*
D65*
X965524D02*
D03*
D66*
X-23976Y-324279D02*
D03*
X-24976Y23221D02*
D03*
X1060524Y22220D02*
D03*
D67*
X893666Y-109198D02*
D03*
X887542Y-115322D02*
D03*
X881417Y-121447D02*
D03*
X887542Y-109198D02*
D03*
X881417Y-115322D02*
D03*
X887542Y-103073D02*
D03*
X881417Y-109198D02*
D03*
X875293Y-115322D02*
D03*
X881417Y-103073D02*
D03*
X875293Y-109198D02*
D03*
X881417Y-96948D02*
D03*
X875293Y-103073D02*
D03*
X869168Y-109198D02*
D03*
X890604Y-112260D02*
D03*
X884480Y-118384D02*
D03*
X890604Y-106135D02*
D03*
X884480Y-112260D02*
D03*
X878355Y-118384D02*
D03*
X884480Y-106135D02*
D03*
X878355Y-112260D02*
D03*
X884480Y-100011D02*
D03*
X878355Y-106135D02*
D03*
X872231Y-112260D02*
D03*
X878355Y-100011D02*
D03*
X872231Y-106135D02*
D03*
M02*
