G04*
G04 #@! TF.GenerationSoftware,Altium Limited,Altium Designer,23.6.0 (18)*
G04*
G04 Layer_Color=16711935*
%FSLAX25Y25*%
%MOIN*%
G70*
G04*
G04 #@! TF.SameCoordinates,B66D48C5-E07E-4974-9F6D-D9774B8395A7*
G04*
G04*
G04 #@! TF.FilePolarity,Positive*
G04*
G01*
G75*
%ADD95C,0.00394*%
D95*
X568854Y35431D02*
X569121Y34462D01*
X569463Y33518D01*
X569879Y32603D01*
X570365Y31724D01*
X570919Y30885D01*
X571538Y30094D01*
X572217Y29353D01*
X572952Y28668D01*
X573739Y28044D01*
X574573Y27483D01*
X575449Y26990D01*
X576360Y26567D01*
X577302Y26218D01*
X578269Y25944D01*
X579254Y25747D01*
X580252Y25628D01*
X581256Y25589D01*
X582260Y25628D01*
X583258Y25747D01*
X584243Y25944D01*
X585210Y26218D01*
X586152Y26567D01*
X587063Y26990D01*
X587939Y27483D01*
X588773Y28044D01*
X589560Y28668D01*
X590295Y29353D01*
X590974Y30094D01*
X591593Y30885D01*
X592147Y31724D01*
X592633Y32603D01*
X593049Y33518D01*
X593391Y34462D01*
X593657Y35431D01*
X910150Y-333244D02*
X909971Y-332261D01*
X909743Y-331287D01*
X909466Y-330327D01*
X909141Y-329382D01*
X908769Y-328454D01*
X908350Y-327547D01*
X907886Y-326661D01*
X907378Y-325801D01*
X906826Y-324967D01*
X906234Y-324162D01*
X905601Y-323389D01*
X904930Y-322648D01*
X904222Y-321942D01*
X903480Y-321272D01*
X902704Y-320642D01*
X901898Y-320051D01*
X901063Y-319501D01*
X900201Y-318995D01*
X899315Y-318533D01*
X898407Y-318116D01*
X897478Y-317746D01*
X896532Y-317423D01*
X895571Y-317148D01*
X894597Y-316923D01*
X893613Y-316747D01*
X892622Y-316621D01*
X891625Y-316545D01*
X890626Y-316520D01*
X889627Y-316545D01*
X888630Y-316621D01*
X887638Y-316747D01*
X886655Y-316923D01*
X885681Y-317148D01*
X884720Y-317423D01*
X883774Y-317746D01*
X882845Y-318116D01*
X881937Y-318533D01*
X881051Y-318995D01*
X880189Y-319501D01*
X879354Y-320051D01*
X878547Y-320642D01*
X877772Y-321272D01*
X877030Y-321942D01*
X876322Y-322648D01*
X875651Y-323389D01*
X875019Y-324162D01*
X874426Y-324967D01*
X873874Y-325801D01*
X873366Y-326661D01*
X872902Y-327547D01*
X872483Y-328454D01*
X872110Y-329382D01*
X871786Y-330327D01*
X871509Y-331287D01*
X871281Y-332261D01*
X871102Y-333244D01*
X178898D02*
X178719Y-332261D01*
X178491Y-331287D01*
X178215Y-330327D01*
X177890Y-329382D01*
X177517Y-328454D01*
X177098Y-327547D01*
X176634Y-326661D01*
X176126Y-325801D01*
X175574Y-324967D01*
X174981Y-324162D01*
X174349Y-323389D01*
X173678Y-322648D01*
X172970Y-321942D01*
X172228Y-321272D01*
X171452Y-320642D01*
X170646Y-320051D01*
X169811Y-319501D01*
X168949Y-318995D01*
X168063Y-318533D01*
X167155Y-318116D01*
X166226Y-317746D01*
X165280Y-317423D01*
X164319Y-317148D01*
X163345Y-316923D01*
X162361Y-316747D01*
X161370Y-316621D01*
X160373Y-316545D01*
X159374Y-316520D01*
X158375Y-316545D01*
X157378Y-316621D01*
X156387Y-316747D01*
X155403Y-316923D01*
X154429Y-317148D01*
X153468Y-317423D01*
X152522Y-317746D01*
X151593Y-318116D01*
X150685Y-318533D01*
X149799Y-318995D01*
X148937Y-319501D01*
X148102Y-320051D01*
X147295Y-320642D01*
X146520Y-321272D01*
X145778Y-321942D01*
X145070Y-322648D01*
X144399Y-323389D01*
X143766Y-324162D01*
X143174Y-324967D01*
X142622Y-325801D01*
X142114Y-326661D01*
X141650Y-327547D01*
X141231Y-328454D01*
X140859Y-329382D01*
X140533Y-330327D01*
X140257Y-331287D01*
X140029Y-332261D01*
X139850Y-333244D01*
X-161Y35433D02*
X158Y34492D01*
X550Y33578D01*
X1012Y32698D01*
X1541Y31856D01*
X2133Y31058D01*
X2786Y30308D01*
X3495Y29611D01*
X4255Y28971D01*
X5064Y28392D01*
X5914Y27877D01*
X6802Y27430D01*
X7722Y27054D01*
X8669Y26750D01*
X9636Y26520D01*
X10618Y26366D01*
X11609Y26289D01*
X12603D01*
X13595Y26366D01*
X14577Y26520D01*
X15544Y26750D01*
X16490Y27054D01*
X17411Y27430D01*
X18298Y27877D01*
X19149Y28392D01*
X19957Y28971D01*
X20718Y29611D01*
X21427Y30308D01*
X22080Y31058D01*
X22672Y31856D01*
X23201Y32698D01*
X23662Y33578D01*
X24054Y34492D01*
X24374Y35433D01*
X51382Y-333185D02*
X51173Y-332217D01*
X50895Y-331265D01*
X50551Y-330336D01*
X50143Y-329433D01*
X49671Y-328562D01*
X49139Y-327726D01*
X48549Y-326929D01*
X47904Y-326177D01*
X47208Y-325472D01*
X46464Y-324818D01*
X45675Y-324218D01*
X44846Y-323675D01*
X43980Y-323193D01*
X43083Y-322773D01*
X42158Y-322417D01*
X41210Y-322128D01*
X40244Y-321907D01*
X39265Y-321754D01*
X38278Y-321671D01*
X37287Y-321658D01*
X36297Y-321715D01*
X35315Y-321842D01*
X34343Y-322039D01*
X33388Y-322303D01*
X32454Y-322634D01*
X31546Y-323031D01*
X30668Y-323490D01*
X29825Y-324011D01*
X29021Y-324590D01*
X28260Y-325224D01*
X325410Y-335433D02*
X326270Y-335263D01*
X327000Y-334776D01*
X327487Y-334046D01*
X327658Y-333185D01*
X354035Y26280D02*
X355060Y26320D01*
X356078Y26443D01*
X357083Y26647D01*
X358068Y26930D01*
X359027Y27292D01*
X359954Y27729D01*
X360844Y28239D01*
X361689Y28819D01*
X362486Y29465D01*
X363228Y30172D01*
X363911Y30936D01*
X364531Y31753D01*
X365083Y32617D01*
X365565Y33522D01*
X365972Y34463D01*
X366303Y35433D01*
X696917Y-326323D02*
X698010Y-326107D01*
X698937Y-325488D01*
X724590Y35433D02*
X723730Y35263D01*
X723000Y34776D01*
X722513Y34046D01*
X722342Y33185D01*
X842976D02*
X842806Y34046D01*
X842319Y34776D01*
X841589Y35263D01*
X840728Y35433D01*
X-35433Y-327559D02*
X-35365Y-328587D01*
X-35164Y-329597D01*
X-34833Y-330572D01*
X-34377Y-331495D01*
X-33805Y-332352D01*
X-33126Y-333126D01*
X-32352Y-333805D01*
X-31495Y-334377D01*
X-30572Y-334833D01*
X-29597Y-335164D01*
X-28587Y-335365D01*
X-27559Y-335433D01*
X12106Y-326279D02*
X11082Y-326320D01*
X10064Y-326443D01*
X9059Y-326647D01*
X8074Y-326930D01*
X7115Y-327292D01*
X6187Y-327729D01*
X5298Y-328239D01*
X4453Y-328819D01*
X3656Y-329465D01*
X2914Y-330172D01*
X2231Y-330936D01*
X1611Y-331753D01*
X1058Y-332617D01*
X577Y-333522D01*
X169Y-334463D01*
X-161Y-335433D01*
X128630Y35433D02*
X127769Y35263D01*
X127039Y34776D01*
X126552Y34046D01*
X126382Y33185D01*
X868913Y-335433D02*
X870007Y-335139D01*
X870809Y-334338D01*
X871102Y-333244D01*
X842976Y33185D02*
X843155Y32201D01*
X843383Y31228D01*
X843659Y30268D01*
X843985Y29323D01*
X844357Y28395D01*
X844776Y27488D01*
X845240Y26602D01*
X845749Y25742D01*
X846300Y24908D01*
X846893Y24103D01*
X847525Y23329D01*
X848196Y22589D01*
X848904Y21883D01*
X849646Y21213D01*
X850422Y20583D01*
X851228Y19992D01*
X852063Y19442D01*
X852925Y18936D01*
X853811Y18474D01*
X854719Y18057D01*
X855648Y17687D01*
X856594Y17364D01*
X857555Y17089D01*
X858529Y16864D01*
X859513Y16688D01*
X860504Y16562D01*
X861501Y16486D01*
X862500Y16461D01*
X863499Y16486D01*
X864496Y16562D01*
X865487Y16688D01*
X866471Y16864D01*
X867445Y17089D01*
X868406Y17364D01*
X869352Y17687D01*
X870281Y18057D01*
X871189Y18474D01*
X872075Y18936D01*
X872937Y19442D01*
X873772Y19992D01*
X874578Y20583D01*
X875354Y21213D01*
X876096Y21883D01*
X876804Y22589D01*
X877475Y23329D01*
X878107Y24103D01*
X878700Y24908D01*
X879251Y25742D01*
X879760Y26602D01*
X880224Y27488D01*
X880643Y28395D01*
X881015Y29323D01*
X881341Y30268D01*
X881617Y31228D01*
X881845Y32201D01*
X882024Y33185D01*
X953425Y35433D02*
X952564Y35263D01*
X951835Y34776D01*
X951347Y34046D01*
X951177Y33185D01*
X137661Y-335433D02*
X138756Y-335139D01*
X139557Y-334338D01*
X139850Y-333244D01*
X351055Y-325480D02*
X350302Y-324817D01*
X349503Y-324210D01*
X348662Y-323661D01*
X347785Y-323175D01*
X346875Y-322752D01*
X345936Y-322395D01*
X344975Y-322107D01*
X343996Y-321888D01*
X343003Y-321740D01*
X342003Y-321664D01*
X340999Y-321659D01*
X339998Y-321726D01*
X339004Y-321865D01*
X338022Y-322075D01*
X337058Y-322355D01*
X336117Y-322702D01*
X335203Y-323117D01*
X334321Y-323596D01*
X333476Y-324136D01*
X332671Y-324736D01*
X331912Y-325393D01*
X331201Y-326101D01*
X330543Y-326859D01*
X329942Y-327662D01*
X329399Y-328506D01*
X328918Y-329387D01*
X328501Y-330300D01*
X328151Y-331241D01*
X327870Y-332204D01*
X327658Y-333185D01*
X327658Y33185D02*
X327487Y34046D01*
X327000Y34776D01*
X326270Y35263D01*
X325410Y35433D01*
X699075Y25358D02*
X699832Y24709D01*
X700634Y24115D01*
X701475Y23580D01*
X702353Y23106D01*
X703263Y22696D01*
X704199Y22351D01*
X705157Y22075D01*
X706133Y21867D01*
X707121Y21729D01*
X708116Y21661D01*
X709113Y21665D01*
X710108Y21740D01*
X711095Y21885D01*
X712069Y22101D01*
X713025Y22385D01*
X713959Y22737D01*
X714865Y23154D01*
X715739Y23634D01*
X716577Y24176D01*
X717374Y24776D01*
X718126Y25431D01*
X718830Y26138D01*
X719481Y26893D01*
X720078Y27693D01*
X720615Y28533D01*
X721092Y29409D01*
X721505Y30317D01*
X721852Y31253D01*
X722132Y32210D01*
X722342Y33185D01*
X996370Y-335433D02*
X997231Y-335263D01*
X997961Y-334776D01*
X998448Y-334046D01*
X998618Y-333185D01*
X1022110Y-325571D02*
X1022894Y-326095D01*
X1023819Y-326279D01*
X351055Y-325480D02*
X351939Y-326070D01*
X352980Y-326279D01*
X884272Y35433D02*
X883411Y35263D01*
X882681Y34776D01*
X882194Y34046D01*
X882024Y33185D01*
X923618Y33185D02*
X923829Y32207D01*
X924110Y31247D01*
X924459Y30310D01*
X924873Y29399D01*
X925352Y28521D01*
X925891Y27679D01*
X926490Y26878D01*
X927145Y26121D01*
X927851Y25414D01*
X928607Y24758D01*
X929407Y24158D01*
X930248Y23617D01*
X931126Y23137D01*
X932036Y22721D01*
X932973Y22371D01*
X933932Y22089D01*
X934910Y21876D01*
X935900Y21734D01*
X936897Y21663D01*
X937898D01*
X938895Y21734D01*
X939886Y21876D01*
X940863Y22089D01*
X941823Y22371D01*
X942760Y22721D01*
X943669Y23137D01*
X944547Y23617D01*
X945388Y24158D01*
X946188Y24758D01*
X946944Y25414D01*
X947651Y26121D01*
X948305Y26878D01*
X948904Y27679D01*
X949444Y28521D01*
X949922Y29399D01*
X950337Y30310D01*
X950685Y31247D01*
X950966Y32207D01*
X951177Y33185D01*
X1077559Y-335433D02*
X1078587Y-335365D01*
X1079597Y-335164D01*
X1080572Y-334833D01*
X1081495Y-334377D01*
X1082352Y-333805D01*
X1083126Y-333126D01*
X1083805Y-332352D01*
X1084377Y-331495D01*
X1084833Y-330572D01*
X1085164Y-329597D01*
X1085365Y-328587D01*
X1085433Y-327559D01*
X51382Y-333185D02*
X51552Y-334046D01*
X52039Y-334776D01*
X52769Y-335263D01*
X53630Y-335433D01*
X167976Y33185D02*
X168155Y32201D01*
X168383Y31228D01*
X168659Y30268D01*
X168985Y29323D01*
X169357Y28395D01*
X169776Y27488D01*
X170240Y26602D01*
X170748Y25742D01*
X171300Y24908D01*
X171892Y24103D01*
X172525Y23329D01*
X173196Y22589D01*
X173904Y21883D01*
X174646Y21213D01*
X175422Y20583D01*
X176228Y19992D01*
X177063Y19442D01*
X177925Y18936D01*
X178811Y18474D01*
X179719Y18057D01*
X180648Y17687D01*
X181594Y17364D01*
X182555Y17089D01*
X183529Y16864D01*
X184512Y16688D01*
X185504Y16562D01*
X186501Y16486D01*
X187500Y16461D01*
X188499Y16486D01*
X189496Y16562D01*
X190487Y16688D01*
X191471Y16864D01*
X192445Y17089D01*
X193406Y17364D01*
X194352Y17687D01*
X195281Y18057D01*
X196189Y18474D01*
X197075Y18936D01*
X197937Y19442D01*
X198772Y19992D01*
X199578Y20583D01*
X200354Y21213D01*
X201096Y21883D01*
X201804Y22589D01*
X202475Y23329D01*
X203107Y24103D01*
X203700Y24908D01*
X204251Y25742D01*
X204760Y26602D01*
X205224Y27487D01*
X205643Y28395D01*
X206015Y29323D01*
X206341Y30268D01*
X206617Y31228D01*
X206845Y32201D01*
X207024Y33185D01*
X366303Y-335433D02*
X365972Y-334463D01*
X365565Y-333522D01*
X365083Y-332617D01*
X364531Y-331753D01*
X363911Y-330936D01*
X363228Y-330172D01*
X362486Y-329465D01*
X361689Y-328819D01*
X360844Y-328239D01*
X359954Y-327729D01*
X359027Y-327292D01*
X358068Y-326930D01*
X357083Y-326647D01*
X356078Y-326443D01*
X355060Y-326320D01*
X354035Y-326279D01*
X683697Y35433D02*
X684028Y34463D01*
X684435Y33522D01*
X684917Y32617D01*
X685469Y31753D01*
X686089Y30936D01*
X686772Y30172D01*
X687514Y29465D01*
X688311Y28819D01*
X689156Y28239D01*
X690046Y27729D01*
X690973Y27292D01*
X691932Y26930D01*
X692917Y26647D01*
X693922Y26443D01*
X694940Y26320D01*
X695965Y26280D01*
X910150Y-333244D02*
X910443Y-334338D01*
X911244Y-335139D01*
X912339Y-335433D01*
X98823Y33185D02*
X99034Y32207D01*
X99315Y31247D01*
X99663Y30310D01*
X100078Y29399D01*
X100556Y28521D01*
X101096Y27679D01*
X101695Y26878D01*
X102349Y26121D01*
X103056Y25414D01*
X103812Y24758D01*
X104612Y24158D01*
X105453Y23617D01*
X106331Y23137D01*
X107240Y22721D01*
X108177Y22371D01*
X109137Y22089D01*
X110115Y21876D01*
X111105Y21734D01*
X112102Y21663D01*
X113102D01*
X114100Y21734D01*
X115090Y21876D01*
X116068Y22089D01*
X117027Y22371D01*
X117964Y22721D01*
X118874Y23137D01*
X119752Y23617D01*
X120593Y24158D01*
X121393Y24758D01*
X122149Y25414D01*
X122855Y26121D01*
X123510Y26878D01*
X124109Y27679D01*
X124648Y28521D01*
X125127Y29399D01*
X125541Y30310D01*
X125890Y31247D01*
X126171Y32207D01*
X126382Y33185D01*
X167976Y33185D02*
X167806Y34046D01*
X167319Y34776D01*
X166589Y35263D01*
X165728Y35433D01*
X178898Y-333244D02*
X179192Y-334338D01*
X179992Y-335139D01*
X181087Y-335433D01*
X353035Y26280D02*
X351942Y26064D01*
X351016Y25445D01*
X1022110Y-325571D02*
X1021360Y-324898D01*
X1020563Y-324281D01*
X1019723Y-323723D01*
X1018846Y-323227D01*
X1017935Y-322795D01*
X1016996Y-322430D01*
X1016033Y-322133D01*
X1015051Y-321907D01*
X1014055Y-321751D01*
X1013050Y-321668D01*
X1012043Y-321657D01*
X1011036Y-321719D01*
X1010038Y-321853D01*
X1009051Y-322059D01*
X1008082Y-322335D01*
X1007135Y-322680D01*
X1006215Y-323092D01*
X1005327Y-323570D01*
X1004476Y-324110D01*
X1003666Y-324710D01*
X1002901Y-325366D01*
X1002186Y-326076D01*
X1001524Y-326836D01*
X1000918Y-327641D01*
X1000371Y-328488D01*
X999887Y-329372D01*
X999467Y-330288D01*
X999115Y-331233D01*
X998831Y-332200D01*
X998618Y-333185D01*
X25717Y-326279D02*
X26647Y-326156D01*
X27515Y-325796D01*
X28260Y-325224D01*
X327658Y33185D02*
X327869Y32206D01*
X328151Y31245D01*
X328500Y30306D01*
X328916Y29394D01*
X329395Y28515D01*
X329936Y27672D01*
X330537Y26870D01*
X331193Y26113D01*
X331901Y25405D01*
X332658Y24749D01*
X333461Y24150D01*
X334304Y23609D01*
X335183Y23129D01*
X336095Y22714D01*
X337034Y22365D01*
X337995Y22085D01*
X338974Y21873D01*
X339966Y21732D01*
X340965Y21663D01*
X341967Y21665D01*
X342966Y21739D01*
X343957Y21883D01*
X344935Y22099D01*
X345896Y22384D01*
X346833Y22737D01*
X347743Y23156D01*
X348621Y23639D01*
X349462Y24183D01*
X350261Y24786D01*
X351016Y25445D01*
X695917Y-326323D02*
X694893Y-326364D01*
X693875Y-326486D01*
X692870Y-326690D01*
X691885Y-326974D01*
X690926Y-327335D01*
X689998Y-327773D01*
X689109Y-328283D01*
X688264Y-328862D01*
X687467Y-329508D01*
X686725Y-330215D01*
X686042Y-330980D01*
X685422Y-331796D01*
X684869Y-332660D01*
X684388Y-333565D01*
X683980Y-334506D01*
X683650Y-335476D01*
X722342Y-333185D02*
X722130Y-332204D01*
X721848Y-331241D01*
X721498Y-330300D01*
X721081Y-329387D01*
X720599Y-328506D01*
X720056Y-327662D01*
X719454Y-326858D01*
X718796Y-326101D01*
X718085Y-325392D01*
X717325Y-324736D01*
X716520Y-324136D01*
X715674Y-323595D01*
X714792Y-323117D01*
X713877Y-322703D01*
X712936Y-322355D01*
X711971Y-322076D01*
X710990Y-321867D01*
X709995Y-321728D01*
X708994Y-321661D01*
X707990Y-321666D01*
X706989Y-321743D01*
X705996Y-321892D01*
X705017Y-322111D01*
X704055Y-322400D01*
X703117Y-322757D01*
X702207Y-323180D01*
X701329Y-323668D01*
X700489Y-324217D01*
X699690Y-324825D01*
X698937Y-325488D01*
X699075Y25358D02*
X698056Y26039D01*
X696854Y26280D01*
X1033500Y35433D02*
X1033820Y34492D01*
X1034212Y33578D01*
X1034674Y32698D01*
X1035202Y31856D01*
X1035795Y31058D01*
X1036447Y30308D01*
X1037156Y29611D01*
X1037917Y28971D01*
X1038725Y28392D01*
X1039576Y27877D01*
X1040464Y27430D01*
X1041384Y27054D01*
X1042330Y26750D01*
X1043297Y26520D01*
X1044279Y26366D01*
X1045271Y26289D01*
X1046265D01*
X1047256Y26366D01*
X1048238Y26520D01*
X1049205Y26750D01*
X1050152Y27054D01*
X1051072Y27430D01*
X1051960Y27877D01*
X1052810Y28392D01*
X1053619Y28971D01*
X1054379Y29611D01*
X1055088Y30308D01*
X1055741Y31058D01*
X1056333Y31856D01*
X1056862Y32698D01*
X1057324Y33578D01*
X1057716Y34492D01*
X1058035Y35433D01*
X-27559D02*
X-28587Y35365D01*
X-29597Y35164D01*
X-30572Y34833D01*
X-31495Y34377D01*
X-32352Y33805D01*
X-33126Y33126D01*
X-33805Y32352D01*
X-34377Y31495D01*
X-34833Y30572D01*
X-35164Y29597D01*
X-35365Y28587D01*
X-35433Y27559D01*
X98823Y33185D02*
X98653Y34046D01*
X98165Y34776D01*
X97436Y35263D01*
X96575Y35433D01*
X209272D02*
X208411Y35263D01*
X207681Y34776D01*
X207194Y34046D01*
X207024Y33185D01*
X722342Y-333185D02*
X722513Y-334046D01*
X723000Y-334776D01*
X723730Y-335263D01*
X724590Y-335433D01*
X923618Y33185D02*
X923448Y34046D01*
X922961Y34776D01*
X922231Y35263D01*
X921370Y35433D01*
X1050161Y-335433D02*
X1049831Y-334463D01*
X1049423Y-333522D01*
X1048942Y-332617D01*
X1048389Y-331753D01*
X1047770Y-330936D01*
X1047086Y-330172D01*
X1046344Y-329465D01*
X1045548Y-328819D01*
X1044702Y-328239D01*
X1043813Y-327729D01*
X1042885Y-327292D01*
X1041926Y-326930D01*
X1040941Y-326647D01*
X1039936Y-326443D01*
X1038918Y-326320D01*
X1037894Y-326279D01*
X1085433Y27559D02*
X1085365Y28587D01*
X1085164Y29597D01*
X1084833Y30572D01*
X1084377Y31495D01*
X1083805Y32352D01*
X1083126Y33126D01*
X1082352Y33805D01*
X1081495Y34377D01*
X1080572Y34833D01*
X1079597Y35164D01*
X1078587Y35365D01*
X1077559Y35433D01*
X366303D02*
X568854D01*
X1085433Y-182579D02*
X1085433Y27559D01*
X695965Y26280D02*
X696854D01*
X724590Y-335433D02*
X868913D01*
X1050161D02*
X1077559D01*
X1058035Y35433D02*
X1077559D01*
X128630D02*
X165728D01*
X953425D02*
X1033500D01*
X1085433Y-182579D02*
X1085433Y-327559D01*
X-27559Y-335433D02*
X-161D01*
X695917Y-326323D02*
X696917D01*
X1023819Y-326279D02*
X1037894D01*
X-35433Y-181890D02*
Y27559D01*
X53630Y-335433D02*
X137661D01*
X724590Y35433D02*
X840728D01*
X-35433Y-182579D02*
Y-181890D01*
X-27559Y35433D02*
X-161D01*
X366303Y-335433D02*
X683650D01*
X12106Y-326279D02*
X25717D01*
X181087Y-335433D02*
X325410D01*
X352980Y-326279D02*
X354035D01*
X912339Y-335433D02*
X996370D01*
X-35433Y-182579D02*
X-35433Y-327559D01*
X209272Y35433D02*
X325410D01*
X593657Y35433D02*
X683697Y35433D01*
X24374D02*
X96575D01*
X353035Y26280D02*
X354035D01*
X884272Y35433D02*
X921370D01*
M02*
