M48
;Layer_Color=9474304
;FILE_FORMAT=2:4
INCH,TZ
;TYPE=PLATED
T4F00S00C0.0236
T8F00S00C0.0630
T9F00S00C0.0984
;TYPE=NON_PLATED
%
G90
G05
T04
G00X99736Y1693
M15
G01Y1260
M16
G00X99736Y3240
M15
G01Y3004
M16
G00X103138Y3240
M15
G01Y3004
M16
G00X103138Y1693
M15
G01Y1260
M16
T08
G00X-36Y-28232
M15
G01X-57Y-27997
M16
G00X901Y-28232
M15
G01X881Y-27997
M16
G00X9339Y-28232
M15
G01X9318Y-27997
M16
G00X10276Y-28232
M15
G01X10256Y-27997
M16
G00X9339Y-20732
M15
G01X9318Y-20497
M16
G00X5589Y-20732
M15
G01X5568Y-20497
M16
G00X-974Y-20732
M15
G01X-995Y-20497
M16
G00X19651Y-20732
M15
G01X19631Y-20497
M16
G00X27151Y-20732
M15
G01X27131Y-20497
M16
G00X28089Y-28232
M15
G01X28068Y-27997
M16
G00X19651Y-28232
M15
G01X19631Y-27997
M16
G00X18714Y-28232
M15
G01X18693Y-27997
M16
G00X34651Y-20732
M15
G01X34631Y-20497
M16
G00X42151Y-20732
M15
G01X42131Y-20497
M16
G00X49651Y-20732
M15
G01X49631Y-20497
M16
G00X57151Y-20732
M15
G01X57131Y-20497
M16
G00X56214Y-28232
M15
G01X56193Y-27997
M16
G00X51526Y-28232
M15
G01X51506Y-27997
M16
G00X64651Y-20732
M15
G01X64631Y-20497
M16
G00X72151Y-20732
M15
G01X72131Y-20497
M16
G00X79651Y-20732
M15
G01X79631Y-20497
M16
G00X87151Y-20732
M15
G01X87131Y-20497
M16
G00X84339Y-28232
M15
G01X84318Y-27997
M16
G00X83401Y-28232
M15
G01X83381Y-27997
M16
G00X92776Y-28232
M15
G01X92756Y-27997
M16
G00X93714Y-28232
M15
G01X93693Y-27997
M16
G00X94651Y-20732
M15
G01X94630Y-20497
M16
G00X99339Y-20732
M15
G01X99318Y-20497
M16
G00X103089Y-20732
M15
G01X103068Y-20497
M16
G00X103089Y-28232
M15
G01X103068Y-27997
M16
G00X102151Y-28232
M15
G01X102130Y-27997
M16
G00X101214Y-13232
M15
G01X101193Y-12997
M16
G00X103089Y-13232
M15
G01X103068Y-12997
M16
G00X102151Y-5732
M15
G01X102130Y-5497
M16
G00X92776Y-5732
M15
G01X92755Y-5497
M16
G00X85276Y-5732
M15
G01X85255Y-5497
M16
G00X77776Y-5732
M15
G01X77755Y-5497
M16
G00X83401Y-13232
M15
G01X83380Y-12997
M16
G00X90901Y-13232
M15
G01X90880Y-12997
M16
G00X75901Y-13232
M15
G01X75880Y-12997
M16
G00X68401Y-13232
M15
G01X68380Y-12997
M16
G00X60901Y-13232
M15
G01X60880Y-12997
M16
G00X62776Y-5732
M15
G01X62755Y-5497
M16
G00X70276Y-5732
M15
G01X70255Y-5497
M16
G00X55276Y-5732
M15
G01X55255Y-5497
M16
G00X47776Y-5732
M15
G01X47755Y-5497
M16
G00X45901Y-13232
M15
G01X45880Y-12997
M16
G00X53401Y-13232
M15
G01X53380Y-12997
M16
G00X38401Y-13232
M15
G01X38380Y-12997
M16
G00X30901Y-13232
M15
G01X30880Y-12997
M16
G00X32776Y-5732
M15
G01X32755Y-5497
M16
G00X40276Y-5732
M15
G01X40255Y-5497
M16
G00X25276Y-5732
M15
G01X25255Y-5497
M16
G00X17776Y-5732
M15
G01X17755Y-5497
M16
G00X15901Y-13232
M15
G01X15880Y-12997
M16
G00X23401Y-13232
M15
G01X23380Y-12997
M16
G00X8411Y-13232
M15
G01X8390Y-12997
M16
G00X3711Y-13232
M15
G01X3690Y-12997
M16
G00X-41Y-9480
M15
G01X-61Y-9245
M16
G00X901Y-5732
M15
G01X880Y-5497
M16
G00X10276Y-5732
M15
G01X10255Y-5497
M16
G00X6526Y1768
M15
G01X6505Y2003
M16
G00X2776Y1768
M15
G01X2755Y2003
M16
G00X-974Y1768
M15
G01X-995Y2003
M16
G00X14026Y1768
M15
G01X14005Y2003
M16
G00X21526Y1768
M15
G01X21505Y2003
M16
G00X29026Y1768
M15
G01X29005Y2003
M16
G00X36526Y1768
M15
G01X36505Y2003
M16
G00X44026Y1768
M15
G01X44005Y2003
M16
G00X51526Y1768
M15
G01X51505Y2003
M16
G00X59026Y1768
M15
G01X59005Y2003
M16
G00X66526Y1768
M15
G01X66505Y2003
M16
G00X74026Y1768
M15
G01X74005Y2003
M16
G00X81526Y1768
M15
G01X81505Y2003
M16
G00X89026Y1768
M15
G01X89005Y2003
M16
G00X96526Y1768
M15
G01X96505Y2003
M16
G00X104026Y1768
M15
G01X104005Y2003
M16
T09
G00X34244Y-29907
M15
G01X33260
M16
G00X99173Y-7500
M15
G01X98189
M16
G00X58617Y-14882
M15
G01X57633
M16
G00X6713Y-7362
M15
G01X5728
M16
M17
M30
