G04*
G04 #@! TF.GenerationSoftware,Altium Limited,Altium Designer,23.6.0 (18)*
G04*
G04 Layer_Color=8421504*
%FSLAX25Y25*%
%MOIN*%
G70*
G04*
G04 #@! TF.SameCoordinates,B66D48C5-E07E-4974-9F6D-D9774B8395A7*
G04*
G04*
G04 #@! TF.FilePolarity,Positive*
G04*
G01*
G75*
%ADD13R,0.04803X0.03583*%
%ADD14R,0.04567X0.05787*%
%ADD15R,0.03937X0.02165*%
%ADD16R,0.02165X0.03937*%
%ADD17R,0.02953X0.03937*%
%ADD18R,0.03150X0.03347*%
%ADD19R,0.03347X0.03150*%
%ADD20R,0.04724X0.07087*%
%ADD21C,0.00039*%
%ADD22R,0.02362X0.05709*%
%ADD23R,0.01181X0.05709*%
%ADD24C,0.03937*%
%ADD25R,0.07087X0.04724*%
%ADD26R,0.06102X0.02362*%
%ADD27P,0.31180X4X90.0*%
G04:AMPARAMS|DCode=28|XSize=9.84mil|YSize=31.5mil|CornerRadius=0mil|HoleSize=0mil|Usage=FLASHONLY|Rotation=45.000|XOffset=0mil|YOffset=0mil|HoleType=Round|Shape=Round|*
%AMOVALD28*
21,1,0.02165,0.00984,0.00000,0.00000,135.0*
1,1,0.00984,0.00766,-0.00766*
1,1,0.00984,-0.00766,0.00766*
%
%ADD28OVALD28*%

G04:AMPARAMS|DCode=29|XSize=9.84mil|YSize=31.5mil|CornerRadius=0mil|HoleSize=0mil|Usage=FLASHONLY|Rotation=135.000|XOffset=0mil|YOffset=0mil|HoleType=Round|Shape=Round|*
%AMOVALD29*
21,1,0.02165,0.00984,0.00000,0.00000,225.0*
1,1,0.00984,0.00766,0.00766*
1,1,0.00984,-0.00766,-0.00766*
%
%ADD29OVALD29*%

%ADD30R,0.01575X0.01575*%
G36*
X1021902Y-166983D02*
X1022104Y-167889D01*
X1022392Y-168771D01*
X1022762Y-169622D01*
X1022978Y-170033D01*
X1018675Y-170033D01*
X1017689Y-169047D01*
Y-166525D01*
X1021826D01*
X1021834Y-166524D01*
X1021902Y-166983D01*
D02*
G37*
G36*
X1022978Y-170033D02*
Y-170033D01*
X1022978Y-170033D01*
X1022978D01*
D02*
G37*
G36*
X1022978Y-160620D02*
X1022762Y-161032D01*
X1022392Y-161882D01*
X1022104Y-162765D01*
X1021902Y-163671D01*
X1021834Y-164130D01*
X1021826Y-164129D01*
X1017689D01*
Y-160620D01*
X1022978Y-160620D01*
D02*
G37*
G36*
X1021834Y-164130D02*
X1021834Y-164130D01*
Y-164130D01*
X1021834D01*
D02*
G37*
G36*
X1041110Y-166525D02*
X1045248D01*
Y-170033D01*
X1039960D01*
X1040175Y-169622D01*
X1040545Y-168771D01*
X1040833Y-167889D01*
X1041034Y-166983D01*
X1041103Y-166524D01*
X1041110Y-166525D01*
D02*
G37*
G36*
X1039960Y-170033D02*
X1039960Y-170033D01*
X1039960D01*
X1039960Y-170033D01*
D02*
G37*
G36*
X1045248Y-160620D02*
Y-164129D01*
X1041103Y-164130D01*
X1041034Y-163671D01*
X1040833Y-162765D01*
X1040545Y-161882D01*
X1040175Y-161031D01*
X1039960Y-160620D01*
X1039960Y-160620D01*
X1045248Y-160620D01*
D02*
G37*
D13*
X544024Y-239311D02*
D03*
Y-226437D02*
D03*
X126524Y-151437D02*
D03*
Y-164311D02*
D03*
X943024Y-1437D02*
D03*
Y-14311D02*
D03*
X932024D02*
D03*
Y-1437D02*
D03*
X862524D02*
D03*
Y-14311D02*
D03*
X787524Y-1437D02*
D03*
Y-14311D02*
D03*
X712524Y-1437D02*
D03*
Y-14311D02*
D03*
X637524Y-1437D02*
D03*
Y-14311D02*
D03*
X562524Y-1437D02*
D03*
Y-14311D02*
D03*
X487524Y-1437D02*
D03*
Y-14311D02*
D03*
X412524Y-1437D02*
D03*
Y-14311D02*
D03*
X337524Y-1437D02*
D03*
Y-14311D02*
D03*
X262524Y-1437D02*
D03*
Y-14311D02*
D03*
X187524Y-1437D02*
D03*
Y-14311D02*
D03*
X116524Y-1437D02*
D03*
Y-14311D02*
D03*
X108524Y-1437D02*
D03*
Y-14311D02*
D03*
X1019024Y-70842D02*
D03*
Y-83716D02*
D03*
X925524Y-70842D02*
D03*
Y-83716D02*
D03*
X754524Y-76437D02*
D03*
Y-89311D02*
D03*
X745524Y-76437D02*
D03*
Y-89311D02*
D03*
X679524Y-76437D02*
D03*
Y-89311D02*
D03*
X670524Y-76437D02*
D03*
Y-89311D02*
D03*
X529024Y-76437D02*
D03*
Y-89311D02*
D03*
X521024Y-76437D02*
D03*
Y-89311D02*
D03*
X375024Y-76437D02*
D03*
Y-89311D02*
D03*
X300524Y-76437D02*
D03*
Y-89311D02*
D03*
X229524Y-76437D02*
D03*
Y-89311D02*
D03*
X220024Y-76437D02*
D03*
Y-89311D02*
D03*
X140524Y-76437D02*
D03*
Y-89311D02*
D03*
X150024Y-76437D02*
D03*
Y-89311D02*
D03*
X991024Y-151437D02*
D03*
Y-164311D02*
D03*
X951024Y-151437D02*
D03*
Y-164311D02*
D03*
X806524D02*
D03*
Y-151437D02*
D03*
X731524D02*
D03*
Y-164311D02*
D03*
X662024Y-151437D02*
D03*
Y-164311D02*
D03*
X650524Y-151437D02*
D03*
Y-164311D02*
D03*
X506024Y-151437D02*
D03*
Y-164311D02*
D03*
X427283Y-151437D02*
D03*
Y-164311D02*
D03*
X356024Y-151437D02*
D03*
Y-164311D02*
D03*
X281524Y-151437D02*
D03*
Y-164311D02*
D03*
X206524Y-151437D02*
D03*
Y-164311D02*
D03*
X135524Y-151437D02*
D03*
Y-164311D02*
D03*
X66024Y-293563D02*
D03*
Y-306437D02*
D03*
X17524Y-151437D02*
D03*
Y-164311D02*
D03*
X914524Y-226437D02*
D03*
Y-239311D02*
D03*
X922764Y-226437D02*
D03*
Y-239311D02*
D03*
X843524Y-226437D02*
D03*
Y-239311D02*
D03*
X768524Y-226437D02*
D03*
Y-239311D02*
D03*
X693524Y-226437D02*
D03*
Y-239311D02*
D03*
X619024Y-226437D02*
D03*
Y-239311D02*
D03*
X469024Y-226437D02*
D03*
Y-239311D02*
D03*
X394024Y-226437D02*
D03*
Y-239311D02*
D03*
X318524Y-226437D02*
D03*
Y-239311D02*
D03*
X243524Y-226437D02*
D03*
Y-239311D02*
D03*
X161024Y-226437D02*
D03*
Y-239311D02*
D03*
X152524Y-226437D02*
D03*
Y-239311D02*
D03*
X33524Y-226437D02*
D03*
Y-239311D02*
D03*
X994524Y-293563D02*
D03*
Y-306437D02*
D03*
X986024Y-293563D02*
D03*
Y-306437D02*
D03*
X159024Y-76437D02*
D03*
Y-89311D02*
D03*
X891213Y-293563D02*
D03*
Y-306437D02*
D03*
X472024Y-293563D02*
D03*
Y-306437D02*
D03*
X151024Y-293563D02*
D03*
Y-306437D02*
D03*
X159024Y-293563D02*
D03*
Y-306437D02*
D03*
X57024Y-293563D02*
D03*
Y-306437D02*
D03*
D14*
X980902Y29221D02*
D03*
X988146D02*
D03*
D15*
X949248Y-123020D02*
D03*
Y-115539D02*
D03*
X939799Y-119280D02*
D03*
X983413Y-104504D02*
D03*
X973964Y-108245D02*
D03*
Y-100764D02*
D03*
X1017937Y1961D02*
D03*
X1007110D02*
D03*
X1007110Y-1780D02*
D03*
X1007110Y-5520D02*
D03*
X1017937Y-1780D02*
D03*
Y-5520D02*
D03*
D16*
X969024Y-51555D02*
D03*
X965283Y-61004D02*
D03*
X972764D02*
D03*
D17*
X977905Y-165091D02*
D03*
X963142D02*
D03*
Y-141469D02*
D03*
X977905D02*
D03*
D18*
X982465Y22220D02*
D03*
X987583D02*
D03*
X851583Y-116279D02*
D03*
X846465D02*
D03*
X851583Y-100779D02*
D03*
X846465D02*
D03*
X914965Y-113279D02*
D03*
X920083D02*
D03*
X954965Y-122280D02*
D03*
X960083D02*
D03*
X1026965Y-14279D02*
D03*
X1032083D02*
D03*
X954965Y-116779D02*
D03*
X960083D02*
D03*
X945083Y-129279D02*
D03*
X939965D02*
D03*
X1032083Y-8280D02*
D03*
X1026965D02*
D03*
D19*
X891024Y-83339D02*
D03*
Y-78220D02*
D03*
X871524Y-135221D02*
D03*
Y-140339D02*
D03*
X977524Y-48839D02*
D03*
Y-43720D02*
D03*
X934024Y-118339D02*
D03*
Y-113221D02*
D03*
X967248Y-108174D02*
D03*
Y-103055D02*
D03*
X989024Y-104720D02*
D03*
Y-109839D02*
D03*
X1052559Y-162461D02*
D03*
Y-167579D02*
D03*
X965024Y-66720D02*
D03*
Y-71839D02*
D03*
X1010024Y-163221D02*
D03*
Y-168339D02*
D03*
X928524Y-118339D02*
D03*
Y-113221D02*
D03*
X1004524Y-163221D02*
D03*
Y-168339D02*
D03*
D20*
X959709Y-43780D02*
D03*
X970339D02*
D03*
D21*
X920024Y-102779D02*
D03*
X925024Y-97780D02*
D03*
Y-102779D02*
D03*
X930339D02*
D03*
X920024Y-97780D02*
D03*
X930024D02*
D03*
D22*
X1024016Y11161D02*
D03*
X1004724D02*
D03*
X1027165D02*
D03*
X1001575D02*
D03*
D23*
X1015354D02*
D03*
X1013386D02*
D03*
X1011417D02*
D03*
X1009449D02*
D03*
X1017323D02*
D03*
X1019291D02*
D03*
X1021260D02*
D03*
X1007480D02*
D03*
D24*
X822024Y-79280D02*
D03*
X1074524Y-325279D02*
D03*
X-12976Y-262280D02*
D03*
X1072524Y24721D02*
D03*
D25*
X891142Y-43169D02*
D03*
Y-21122D02*
D03*
D26*
X906398Y-38051D02*
D03*
Y-34114D02*
D03*
Y-30177D02*
D03*
Y-26240D02*
D03*
D27*
X881417Y-109198D02*
D03*
D28*
X864297Y-107388D02*
D03*
X865688Y-105996D02*
D03*
X867080Y-104604D02*
D03*
X868472Y-103212D02*
D03*
X869864Y-101820D02*
D03*
X871256Y-100428D02*
D03*
X872648Y-99036D02*
D03*
X874040Y-97645D02*
D03*
X875432Y-96253D02*
D03*
X876824Y-94861D02*
D03*
X878216Y-93469D02*
D03*
X879608Y-92077D02*
D03*
X898538Y-111007D02*
D03*
X897146Y-112399D02*
D03*
X895754Y-113791D02*
D03*
X894363Y-115183D02*
D03*
X892970Y-116575D02*
D03*
X891579Y-117967D02*
D03*
X890187Y-119359D02*
D03*
X888795Y-120751D02*
D03*
X887403Y-122143D02*
D03*
X886011Y-123535D02*
D03*
X884619Y-124926D02*
D03*
X883227Y-126319D02*
D03*
D29*
Y-92077D02*
D03*
X884619Y-93469D02*
D03*
X886011Y-94861D02*
D03*
X887403Y-96253D02*
D03*
X888795Y-97645D02*
D03*
X890187Y-99036D02*
D03*
X891579Y-100428D02*
D03*
X892970Y-101820D02*
D03*
X894363Y-103212D02*
D03*
X895754Y-104604D02*
D03*
X897146Y-105996D02*
D03*
X898538Y-107388D02*
D03*
X879608Y-126319D02*
D03*
X878216Y-124926D02*
D03*
X876824Y-123535D02*
D03*
X875432Y-122143D02*
D03*
X874040Y-120751D02*
D03*
X872648Y-119359D02*
D03*
X871256Y-117967D02*
D03*
X869864Y-116575D02*
D03*
X868472Y-115183D02*
D03*
X867080Y-113791D02*
D03*
X865688Y-112399D02*
D03*
X864297Y-111007D02*
D03*
D30*
X1019658Y-162374D02*
D03*
X1043279Y-168280D02*
D03*
Y-162374D02*
D03*
X1019658Y-168280D02*
D03*
M02*
