G04*
G04 #@! TF.GenerationSoftware,Altium Limited,Altium Designer,23.6.0 (18)*
G04*
G04 Layer_Color=32896*
%FSLAX25Y25*%
%MOIN*%
G70*
G04*
G04 #@! TF.SameCoordinates,B66D48C5-E07E-4974-9F6D-D9774B8395A7*
G04*
G04*
G04 #@! TF.FilePolarity,Positive*
G04*
G01*
G75*
%ADD12C,0.00787*%
%ADD93C,0.01575*%
%ADD94C,0.00500*%
G36*
X789936Y-244259D02*
X787805D01*
X787722D01*
X787644D01*
X787572Y-244265D01*
X787505D01*
X787450Y-244270D01*
X787395D01*
X787345Y-244276D01*
X787300D01*
X787233Y-244287D01*
X787184Y-244292D01*
X787156Y-244298D01*
X787145D01*
X787073Y-244315D01*
X787011Y-244342D01*
X786956Y-244376D01*
X786906Y-244409D01*
X786867Y-244442D01*
X786839Y-244470D01*
X786823Y-244492D01*
X786817Y-244498D01*
X786773Y-244565D01*
X786740Y-244648D01*
X786717Y-244725D01*
X786701Y-244809D01*
X786690Y-244881D01*
X786684Y-244936D01*
Y-244992D01*
X786690Y-245108D01*
X786706Y-245208D01*
X786728Y-245297D01*
X786756Y-245375D01*
X786778Y-245430D01*
X786801Y-245475D01*
X786817Y-245497D01*
X786823Y-245508D01*
X786878Y-245569D01*
X786945Y-245619D01*
X787006Y-245663D01*
X787067Y-245691D01*
X787122Y-245713D01*
X787167Y-245730D01*
X787195Y-245741D01*
X787206D01*
X787239Y-245747D01*
X787272Y-245752D01*
X787317D01*
X787367Y-245758D01*
X787472Y-245763D01*
X787583D01*
X787683Y-245769D01*
X787727D01*
X787772D01*
X787805D01*
X787827D01*
X787844D01*
X787850D01*
X789936D01*
Y-246546D01*
X787883D01*
X787766D01*
X787655Y-246540D01*
X787550D01*
X787456Y-246535D01*
X787367Y-246529D01*
X787289Y-246524D01*
X787217Y-246518D01*
X787150Y-246507D01*
X787095Y-246501D01*
X787045Y-246496D01*
X787000Y-246490D01*
X786967Y-246485D01*
X786939Y-246479D01*
X786923D01*
X786912Y-246474D01*
X786906D01*
X786823Y-246446D01*
X786745Y-246418D01*
X786673Y-246379D01*
X786612Y-246346D01*
X786556Y-246313D01*
X786512Y-246285D01*
X786490Y-246263D01*
X786479Y-246257D01*
X786407Y-246191D01*
X786340Y-246118D01*
X786284Y-246041D01*
X786235Y-245969D01*
X786196Y-245908D01*
X786168Y-245852D01*
X786151Y-245819D01*
X786146Y-245813D01*
Y-245808D01*
X786124Y-245752D01*
X786107Y-245691D01*
X786074Y-245552D01*
X786051Y-245414D01*
X786040Y-245280D01*
X786035Y-245219D01*
X786029Y-245158D01*
Y-245108D01*
X786024Y-245058D01*
Y-244970D01*
X786029Y-244809D01*
X786040Y-244664D01*
X786062Y-244537D01*
X786085Y-244431D01*
X786090Y-244387D01*
X786101Y-244342D01*
X786112Y-244309D01*
X786124Y-244281D01*
X786129Y-244259D01*
X786135Y-244243D01*
X786140Y-244237D01*
Y-244232D01*
X786185Y-244132D01*
X786240Y-244043D01*
X786290Y-243965D01*
X786340Y-243899D01*
X786384Y-243848D01*
X786418Y-243810D01*
X786440Y-243788D01*
X786451Y-243782D01*
X786529Y-243721D01*
X786612Y-243671D01*
X786690Y-243632D01*
X786767Y-243599D01*
X786834Y-243577D01*
X786889Y-243560D01*
X786906Y-243554D01*
X786923D01*
X786928Y-243549D01*
X786934D01*
X786995Y-243538D01*
X787062Y-243527D01*
X787134Y-243515D01*
X787206Y-243510D01*
X787372Y-243499D01*
X787533Y-243488D01*
X787605D01*
X787677D01*
X787744Y-243482D01*
X787800D01*
X787844D01*
X787883D01*
X787905D01*
X787911D01*
X789936D01*
Y-244259D01*
D02*
G37*
G36*
X788188Y-247201D02*
X788371Y-247212D01*
X788538Y-247229D01*
X788693Y-247256D01*
X788837Y-247284D01*
X788965Y-247312D01*
X789082Y-247351D01*
X789182Y-247384D01*
X789276Y-247417D01*
X789348Y-247450D01*
X789415Y-247484D01*
X789470Y-247512D01*
X789509Y-247539D01*
X789537Y-247556D01*
X789553Y-247567D01*
X789559Y-247573D01*
X789631Y-247634D01*
X789692Y-247700D01*
X789742Y-247772D01*
X789792Y-247845D01*
X789831Y-247917D01*
X789859Y-247989D01*
X789886Y-248055D01*
X789909Y-248128D01*
X789925Y-248194D01*
X789936Y-248250D01*
X789948Y-248305D01*
X789953Y-248350D01*
X789959Y-248388D01*
Y-248444D01*
X789953Y-248544D01*
X789942Y-248638D01*
X789920Y-248732D01*
X789897Y-248816D01*
X789864Y-248893D01*
X789831Y-248966D01*
X789798Y-249027D01*
X789759Y-249088D01*
X789720Y-249138D01*
X789687Y-249188D01*
X789653Y-249226D01*
X789620Y-249254D01*
X789598Y-249282D01*
X789576Y-249299D01*
X789565Y-249310D01*
X789559Y-249315D01*
X789465Y-249382D01*
X789354Y-249437D01*
X789237Y-249487D01*
X789115Y-249532D01*
X788987Y-249565D01*
X788854Y-249598D01*
X788727Y-249621D01*
X788599Y-249643D01*
X788477Y-249654D01*
X788366Y-249665D01*
X788260Y-249676D01*
X788171Y-249682D01*
X788099Y-249687D01*
X788044D01*
X788022D01*
X788005D01*
X787999D01*
X787994D01*
X787794Y-249682D01*
X787611Y-249671D01*
X787439Y-249654D01*
X787284Y-249632D01*
X787145Y-249609D01*
X787017Y-249582D01*
X786906Y-249548D01*
X786806Y-249515D01*
X786723Y-249487D01*
X786645Y-249454D01*
X786584Y-249426D01*
X786534Y-249398D01*
X786501Y-249382D01*
X786473Y-249365D01*
X786456Y-249354D01*
X786451Y-249349D01*
X786373Y-249282D01*
X786312Y-249210D01*
X786251Y-249138D01*
X786207Y-249060D01*
X786162Y-248988D01*
X786129Y-248910D01*
X786101Y-248838D01*
X786079Y-248766D01*
X786057Y-248699D01*
X786046Y-248638D01*
X786035Y-248583D01*
X786029Y-248538D01*
Y-248499D01*
X786024Y-248466D01*
Y-248444D01*
X786029Y-248344D01*
X786040Y-248250D01*
X786062Y-248155D01*
X786085Y-248072D01*
X786112Y-247994D01*
X786146Y-247922D01*
X786185Y-247861D01*
X786223Y-247800D01*
X786257Y-247750D01*
X786296Y-247700D01*
X786329Y-247661D01*
X786357Y-247628D01*
X786379Y-247606D01*
X786401Y-247589D01*
X786412Y-247578D01*
X786418Y-247573D01*
X786512Y-247506D01*
X786623Y-247450D01*
X786740Y-247395D01*
X786867Y-247356D01*
X786995Y-247317D01*
X787122Y-247289D01*
X787256Y-247262D01*
X787383Y-247240D01*
X787505Y-247229D01*
X787616Y-247217D01*
X787722Y-247206D01*
X787811Y-247201D01*
X787883Y-247195D01*
X787938D01*
X787961D01*
X787977D01*
X787983D01*
X787988D01*
X788188Y-247201D01*
D02*
G37*
G36*
X789959Y-251391D02*
X789831Y-251447D01*
X789714Y-251519D01*
X789603Y-251596D01*
X789515Y-251674D01*
X789442Y-251741D01*
X789387Y-251802D01*
X789365Y-251824D01*
X789348Y-251840D01*
X789342Y-251852D01*
X789337Y-251857D01*
X789248Y-251979D01*
X789171Y-252096D01*
X789109Y-252201D01*
X789065Y-252296D01*
X789032Y-252373D01*
X789004Y-252429D01*
X788998Y-252451D01*
X788993Y-252468D01*
X788987Y-252473D01*
Y-252479D01*
X788321D01*
X788399Y-252279D01*
X788482Y-252101D01*
X788527Y-252018D01*
X788577Y-251940D01*
X788621Y-251868D01*
X788665Y-251802D01*
X788710Y-251741D01*
X788749Y-251685D01*
X788782Y-251641D01*
X788815Y-251602D01*
X788843Y-251569D01*
X788860Y-251546D01*
X788871Y-251535D01*
X788876Y-251530D01*
X786096D01*
Y-250792D01*
X789959D01*
Y-251391D01*
D02*
G37*
G36*
X788310Y-257279D02*
X787677D01*
X786534Y-254643D01*
X787278D01*
X787999Y-256486D01*
X788704Y-254643D01*
X789454D01*
X788310Y-257279D01*
D02*
G37*
G36*
X752436Y-247245D02*
X750305D01*
X750222D01*
X750144D01*
X750072Y-247251D01*
X750005D01*
X749950Y-247256D01*
X749895D01*
X749845Y-247262D01*
X749800D01*
X749733Y-247273D01*
X749684Y-247278D01*
X749656Y-247284D01*
X749645D01*
X749573Y-247301D01*
X749511Y-247328D01*
X749456Y-247362D01*
X749406Y-247395D01*
X749367Y-247428D01*
X749339Y-247456D01*
X749323Y-247478D01*
X749317Y-247484D01*
X749273Y-247550D01*
X749240Y-247634D01*
X749217Y-247711D01*
X749201Y-247795D01*
X749190Y-247867D01*
X749184Y-247922D01*
Y-247978D01*
X749190Y-248094D01*
X749206Y-248194D01*
X749228Y-248283D01*
X749256Y-248361D01*
X749278Y-248416D01*
X749301Y-248461D01*
X749317Y-248483D01*
X749323Y-248494D01*
X749378Y-248555D01*
X749445Y-248605D01*
X749506Y-248649D01*
X749567Y-248677D01*
X749622Y-248699D01*
X749667Y-248716D01*
X749695Y-248727D01*
X749706D01*
X749739Y-248732D01*
X749772Y-248738D01*
X749817D01*
X749867Y-248744D01*
X749972Y-248749D01*
X750083D01*
X750183Y-248755D01*
X750227D01*
X750272D01*
X750305D01*
X750327D01*
X750344D01*
X750350D01*
X752436D01*
Y-249532D01*
X750383D01*
X750266D01*
X750155Y-249526D01*
X750050D01*
X749956Y-249521D01*
X749867Y-249515D01*
X749789Y-249510D01*
X749717Y-249504D01*
X749650Y-249493D01*
X749595Y-249487D01*
X749545Y-249482D01*
X749500Y-249476D01*
X749467Y-249471D01*
X749439Y-249465D01*
X749423D01*
X749412Y-249460D01*
X749406D01*
X749323Y-249432D01*
X749245Y-249404D01*
X749173Y-249365D01*
X749112Y-249332D01*
X749056Y-249299D01*
X749012Y-249271D01*
X748990Y-249249D01*
X748979Y-249243D01*
X748907Y-249177D01*
X748840Y-249104D01*
X748784Y-249027D01*
X748735Y-248955D01*
X748696Y-248893D01*
X748668Y-248838D01*
X748651Y-248805D01*
X748646Y-248799D01*
Y-248794D01*
X748624Y-248738D01*
X748607Y-248677D01*
X748574Y-248538D01*
X748551Y-248399D01*
X748540Y-248266D01*
X748535Y-248205D01*
X748529Y-248144D01*
Y-248094D01*
X748524Y-248044D01*
Y-247955D01*
X748529Y-247795D01*
X748540Y-247650D01*
X748562Y-247523D01*
X748585Y-247417D01*
X748590Y-247373D01*
X748601Y-247328D01*
X748612Y-247295D01*
X748624Y-247267D01*
X748629Y-247245D01*
X748635Y-247229D01*
X748640Y-247223D01*
Y-247217D01*
X748685Y-247117D01*
X748740Y-247029D01*
X748790Y-246951D01*
X748840Y-246884D01*
X748884Y-246834D01*
X748918Y-246796D01*
X748940Y-246773D01*
X748951Y-246768D01*
X749029Y-246707D01*
X749112Y-246657D01*
X749190Y-246618D01*
X749267Y-246585D01*
X749334Y-246563D01*
X749389Y-246546D01*
X749406Y-246540D01*
X749423D01*
X749428Y-246535D01*
X749434D01*
X749495Y-246524D01*
X749562Y-246513D01*
X749634Y-246501D01*
X749706Y-246496D01*
X749872Y-246485D01*
X750033Y-246474D01*
X750105D01*
X750177D01*
X750244Y-246468D01*
X750300D01*
X750344D01*
X750383D01*
X750405D01*
X750411D01*
X752436D01*
Y-247245D01*
D02*
G37*
G36*
X752386Y-252673D02*
X751704D01*
Y-251003D01*
X751454Y-251186D01*
X751193Y-251347D01*
X751071Y-251424D01*
X750943Y-251491D01*
X750827Y-251552D01*
X750716Y-251607D01*
X750610Y-251657D01*
X750516Y-251702D01*
X750427Y-251741D01*
X750355Y-251774D01*
X750300Y-251796D01*
X750255Y-251813D01*
X750227Y-251824D01*
X750216Y-251829D01*
X750061Y-251885D01*
X749911Y-251935D01*
X749761Y-251974D01*
X749617Y-252013D01*
X749473Y-252040D01*
X749339Y-252068D01*
X749212Y-252090D01*
X749095Y-252107D01*
X748990Y-252124D01*
X748890Y-252135D01*
X748807Y-252146D01*
X748735Y-252151D01*
X748673D01*
X748629Y-252157D01*
X748607D01*
X748596D01*
Y-251447D01*
X748790Y-251441D01*
X748990Y-251424D01*
X749184Y-251396D01*
X749273Y-251385D01*
X749362Y-251369D01*
X749439Y-251352D01*
X749517Y-251336D01*
X749578Y-251324D01*
X749634Y-251313D01*
X749684Y-251302D01*
X749717Y-251291D01*
X749739Y-251286D01*
X749745D01*
X749983Y-251213D01*
X750211Y-251136D01*
X750316Y-251097D01*
X750416Y-251052D01*
X750511Y-251014D01*
X750599Y-250975D01*
X750677Y-250936D01*
X750749Y-250903D01*
X750816Y-250869D01*
X750866Y-250847D01*
X750910Y-250825D01*
X750938Y-250808D01*
X750960Y-250797D01*
X750966Y-250792D01*
X751071Y-250730D01*
X751171Y-250670D01*
X751260Y-250614D01*
X751349Y-250558D01*
X751426Y-250503D01*
X751498Y-250448D01*
X751565Y-250397D01*
X751626Y-250353D01*
X751682Y-250309D01*
X751726Y-250270D01*
X751765Y-250237D01*
X751798Y-250209D01*
X751820Y-250187D01*
X751837Y-250170D01*
X751848Y-250159D01*
X751854Y-250153D01*
X752386D01*
Y-252673D01*
D02*
G37*
G36*
X750810Y-257279D02*
X750177D01*
X749034Y-254643D01*
X749778D01*
X750499Y-256486D01*
X751204Y-254643D01*
X751954D01*
X750810Y-257279D01*
D02*
G37*
G36*
X770936Y-240280D02*
X768805D01*
X768722D01*
X768644D01*
X768572Y-240286D01*
X768505D01*
X768450Y-240292D01*
X768395D01*
X768344Y-240297D01*
X768300D01*
X768233Y-240308D01*
X768184Y-240314D01*
X768156Y-240319D01*
X768145D01*
X768073Y-240336D01*
X768012Y-240364D01*
X767956Y-240397D01*
X767906Y-240430D01*
X767867Y-240463D01*
X767839Y-240491D01*
X767823Y-240513D01*
X767817Y-240519D01*
X767773Y-240586D01*
X767740Y-240669D01*
X767717Y-240747D01*
X767701Y-240830D01*
X767690Y-240902D01*
X767684Y-240957D01*
Y-241013D01*
X767690Y-241129D01*
X767706Y-241229D01*
X767729Y-241318D01*
X767756Y-241396D01*
X767778Y-241451D01*
X767801Y-241496D01*
X767817Y-241518D01*
X767823Y-241529D01*
X767878Y-241590D01*
X767945Y-241640D01*
X768006Y-241685D01*
X768067Y-241712D01*
X768122Y-241735D01*
X768167Y-241751D01*
X768195Y-241762D01*
X768206D01*
X768239Y-241768D01*
X768272Y-241773D01*
X768317D01*
X768367Y-241779D01*
X768472Y-241784D01*
X768583D01*
X768683Y-241790D01*
X768727D01*
X768772D01*
X768805D01*
X768827D01*
X768844D01*
X768850D01*
X770936D01*
Y-242567D01*
X768883D01*
X768766D01*
X768655Y-242561D01*
X768550D01*
X768456Y-242556D01*
X768367Y-242550D01*
X768289Y-242545D01*
X768217Y-242539D01*
X768150Y-242528D01*
X768095Y-242523D01*
X768045Y-242517D01*
X768000Y-242512D01*
X767967Y-242506D01*
X767939Y-242500D01*
X767923D01*
X767912Y-242495D01*
X767906D01*
X767823Y-242467D01*
X767745Y-242439D01*
X767673Y-242401D01*
X767612Y-242367D01*
X767556Y-242334D01*
X767512Y-242306D01*
X767490Y-242284D01*
X767479Y-242278D01*
X767407Y-242212D01*
X767340Y-242140D01*
X767284Y-242062D01*
X767235Y-241990D01*
X767196Y-241929D01*
X767168Y-241873D01*
X767151Y-241840D01*
X767146Y-241834D01*
Y-241829D01*
X767124Y-241773D01*
X767107Y-241712D01*
X767074Y-241574D01*
X767051Y-241435D01*
X767040Y-241302D01*
X767035Y-241241D01*
X767029Y-241179D01*
Y-241129D01*
X767024Y-241080D01*
Y-240991D01*
X767029Y-240830D01*
X767040Y-240686D01*
X767063Y-240558D01*
X767085Y-240452D01*
X767090Y-240408D01*
X767101Y-240364D01*
X767112Y-240330D01*
X767124Y-240303D01*
X767129Y-240280D01*
X767135Y-240264D01*
X767140Y-240258D01*
Y-240253D01*
X767185Y-240153D01*
X767240Y-240064D01*
X767290Y-239986D01*
X767340Y-239920D01*
X767384Y-239870D01*
X767418Y-239831D01*
X767440Y-239809D01*
X767451Y-239803D01*
X767529Y-239742D01*
X767612Y-239692D01*
X767690Y-239653D01*
X767767Y-239620D01*
X767834Y-239598D01*
X767889Y-239581D01*
X767906Y-239576D01*
X767923D01*
X767928Y-239570D01*
X767934D01*
X767995Y-239559D01*
X768061Y-239548D01*
X768134Y-239537D01*
X768206Y-239531D01*
X768372Y-239520D01*
X768533Y-239509D01*
X768605D01*
X768678D01*
X768744Y-239503D01*
X768800D01*
X768844D01*
X768883D01*
X768905D01*
X768911D01*
X770936D01*
Y-240280D01*
D02*
G37*
G36*
X768489Y-243116D02*
X768589Y-243127D01*
X768683Y-243144D01*
X768772Y-243166D01*
X768850Y-243189D01*
X768927Y-243222D01*
X768999Y-243250D01*
X769061Y-243283D01*
X769116Y-243316D01*
X769166Y-243344D01*
X769210Y-243377D01*
X769244Y-243400D01*
X769271Y-243422D01*
X769294Y-243438D01*
X769305Y-243449D01*
X769310Y-243455D01*
X769371Y-243522D01*
X769427Y-243588D01*
X769477Y-243660D01*
X769521Y-243733D01*
X769554Y-243799D01*
X769582Y-243871D01*
X769627Y-243999D01*
X769643Y-244060D01*
X769654Y-244115D01*
X769660Y-244165D01*
X769665Y-244204D01*
X769671Y-244237D01*
Y-244287D01*
X769665Y-244382D01*
X769649Y-244476D01*
X769632Y-244559D01*
X769610Y-244637D01*
X769582Y-244698D01*
X769565Y-244748D01*
X769549Y-244781D01*
X769543Y-244787D01*
Y-244793D01*
X770198Y-244676D01*
Y-243283D01*
X770886D01*
Y-245231D01*
X768883Y-245608D01*
X768800Y-245015D01*
X768850Y-244965D01*
X768894Y-244915D01*
X768933Y-244865D01*
X768966Y-244815D01*
X769016Y-244720D01*
X769049Y-244632D01*
X769066Y-244554D01*
X769077Y-244498D01*
X769083Y-244476D01*
Y-244443D01*
X769077Y-244354D01*
X769055Y-244271D01*
X769027Y-244199D01*
X768994Y-244138D01*
X768955Y-244093D01*
X768927Y-244054D01*
X768905Y-244032D01*
X768899Y-244027D01*
X768827Y-243971D01*
X768744Y-243932D01*
X768655Y-243904D01*
X768567Y-243888D01*
X768489Y-243871D01*
X768428Y-243866D01*
X768400D01*
X768383D01*
X768372D01*
X768367D01*
X768233Y-243871D01*
X768117Y-243888D01*
X768023Y-243916D01*
X767945Y-243943D01*
X767878Y-243977D01*
X767834Y-243999D01*
X767812Y-244021D01*
X767801Y-244027D01*
X767740Y-244088D01*
X767690Y-244154D01*
X767656Y-244221D01*
X767634Y-244282D01*
X767623Y-244337D01*
X767618Y-244382D01*
X767612Y-244410D01*
Y-244421D01*
X767618Y-244493D01*
X767634Y-244565D01*
X767656Y-244626D01*
X767684Y-244676D01*
X767712Y-244720D01*
X767734Y-244754D01*
X767751Y-244776D01*
X767756Y-244781D01*
X767817Y-244831D01*
X767878Y-244876D01*
X767945Y-244909D01*
X768006Y-244931D01*
X768061Y-244948D01*
X768111Y-244959D01*
X768139Y-244965D01*
X768150D01*
X768073Y-245697D01*
X767984Y-245680D01*
X767901Y-245664D01*
X767751Y-245608D01*
X767618Y-245547D01*
X767562Y-245514D01*
X767507Y-245475D01*
X767462Y-245442D01*
X767423Y-245414D01*
X767390Y-245381D01*
X767357Y-245359D01*
X767334Y-245336D01*
X767318Y-245320D01*
X767312Y-245309D01*
X767307Y-245303D01*
X767257Y-245236D01*
X767212Y-245170D01*
X767173Y-245098D01*
X767146Y-245026D01*
X767090Y-244876D01*
X767057Y-244743D01*
X767046Y-244676D01*
X767040Y-244620D01*
X767035Y-244565D01*
X767029Y-244521D01*
X767024Y-244482D01*
Y-244432D01*
X767029Y-244310D01*
X767046Y-244193D01*
X767068Y-244088D01*
X767101Y-243988D01*
X767140Y-243893D01*
X767185Y-243810D01*
X767229Y-243733D01*
X767279Y-243660D01*
X767323Y-243599D01*
X767368Y-243544D01*
X767412Y-243494D01*
X767451Y-243455D01*
X767484Y-243427D01*
X767507Y-243405D01*
X767523Y-243394D01*
X767529Y-243388D01*
X767601Y-243338D01*
X767673Y-243294D01*
X767745Y-243261D01*
X767823Y-243227D01*
X767967Y-243178D01*
X768100Y-243144D01*
X768156Y-243133D01*
X768211Y-243127D01*
X768261Y-243116D01*
X768306D01*
X768339Y-243111D01*
X768361D01*
X768378D01*
X768383D01*
X768489Y-243116D01*
D02*
G37*
G36*
X769965Y-246213D02*
X770048Y-246224D01*
X770126Y-246235D01*
X770198Y-246258D01*
X770326Y-246313D01*
X770437Y-246369D01*
X770487Y-246402D01*
X770526Y-246430D01*
X770565Y-246458D01*
X770592Y-246485D01*
X770614Y-246508D01*
X770637Y-246519D01*
X770642Y-246530D01*
X770648Y-246535D01*
X770703Y-246596D01*
X770753Y-246668D01*
X770792Y-246735D01*
X770825Y-246813D01*
X770881Y-246957D01*
X770920Y-247101D01*
X770931Y-247168D01*
X770942Y-247229D01*
X770948Y-247285D01*
X770953Y-247334D01*
X770959Y-247373D01*
Y-247429D01*
X770953Y-247523D01*
X770948Y-247612D01*
X770920Y-247784D01*
X770875Y-247928D01*
X770853Y-247995D01*
X770825Y-248056D01*
X770803Y-248111D01*
X770775Y-248156D01*
X770753Y-248200D01*
X770737Y-248234D01*
X770714Y-248261D01*
X770703Y-248278D01*
X770698Y-248289D01*
X770692Y-248295D01*
X770637Y-248356D01*
X770581Y-248411D01*
X770515Y-248461D01*
X770442Y-248505D01*
X770298Y-248572D01*
X770159Y-248628D01*
X770087Y-248644D01*
X770026Y-248661D01*
X769971Y-248677D01*
X769921Y-248683D01*
X769876Y-248694D01*
X769849D01*
X769826Y-248700D01*
X769821D01*
X769749Y-247967D01*
X769860Y-247956D01*
X769954Y-247934D01*
X770037Y-247912D01*
X770098Y-247884D01*
X770148Y-247862D01*
X770182Y-247839D01*
X770204Y-247823D01*
X770209Y-247817D01*
X770254Y-247762D01*
X770287Y-247701D01*
X770315Y-247640D01*
X770331Y-247579D01*
X770342Y-247529D01*
X770348Y-247484D01*
Y-247445D01*
X770342Y-247362D01*
X770326Y-247290D01*
X770304Y-247229D01*
X770282Y-247174D01*
X770259Y-247135D01*
X770237Y-247101D01*
X770220Y-247085D01*
X770215Y-247079D01*
X770159Y-247035D01*
X770098Y-247001D01*
X770037Y-246979D01*
X769976Y-246963D01*
X769921Y-246952D01*
X769871Y-246946D01*
X769843D01*
X769838D01*
X769832D01*
X769749Y-246952D01*
X769671Y-246968D01*
X769593Y-246996D01*
X769527Y-247024D01*
X769466Y-247051D01*
X769421Y-247079D01*
X769393Y-247096D01*
X769382Y-247101D01*
X769349Y-247124D01*
X769310Y-247157D01*
X769260Y-247201D01*
X769216Y-247246D01*
X769110Y-247345D01*
X769005Y-247445D01*
X768905Y-247545D01*
X768861Y-247590D01*
X768827Y-247634D01*
X768794Y-247667D01*
X768772Y-247690D01*
X768755Y-247706D01*
X768750Y-247712D01*
X768644Y-247823D01*
X768544Y-247923D01*
X768450Y-248017D01*
X768367Y-248100D01*
X768284Y-248178D01*
X768206Y-248245D01*
X768139Y-248306D01*
X768073Y-248356D01*
X768017Y-248400D01*
X767967Y-248439D01*
X767928Y-248472D01*
X767889Y-248494D01*
X767867Y-248517D01*
X767845Y-248528D01*
X767834Y-248539D01*
X767828D01*
X767701Y-248611D01*
X767567Y-248666D01*
X767445Y-248711D01*
X767334Y-248744D01*
X767235Y-248766D01*
X767196Y-248772D01*
X767162Y-248777D01*
X767135Y-248783D01*
X767112Y-248788D01*
X767101D01*
X767096D01*
Y-246208D01*
X767778D01*
Y-247673D01*
X767851Y-247629D01*
X767912Y-247579D01*
X767939Y-247556D01*
X767962Y-247540D01*
X767973Y-247529D01*
X767978Y-247523D01*
X768000Y-247501D01*
X768028Y-247479D01*
X768089Y-247412D01*
X768161Y-247340D01*
X768233Y-247268D01*
X768300Y-247196D01*
X768356Y-247135D01*
X768378Y-247112D01*
X768395Y-247096D01*
X768400Y-247085D01*
X768406Y-247079D01*
X768522Y-246957D01*
X768616Y-246857D01*
X768705Y-246774D01*
X768772Y-246707D01*
X768827Y-246657D01*
X768866Y-246624D01*
X768894Y-246602D01*
X768899Y-246596D01*
X768994Y-246524D01*
X769083Y-246463D01*
X769166Y-246413D01*
X769238Y-246374D01*
X769299Y-246341D01*
X769349Y-246319D01*
X769377Y-246308D01*
X769388Y-246302D01*
X769477Y-246269D01*
X769565Y-246247D01*
X769649Y-246230D01*
X769727Y-246219D01*
X769788Y-246213D01*
X769838Y-246208D01*
X769871D01*
X769882D01*
X769965Y-246213D01*
D02*
G37*
G36*
X767834Y-250032D02*
X767096D01*
Y-249294D01*
X767834D01*
Y-250032D01*
D02*
G37*
G36*
X768433Y-250609D02*
X768528Y-250620D01*
X768622Y-250637D01*
X768705Y-250653D01*
X768788Y-250681D01*
X768861Y-250709D01*
X768933Y-250737D01*
X768994Y-250770D01*
X769049Y-250803D01*
X769099Y-250831D01*
X769138Y-250859D01*
X769177Y-250886D01*
X769205Y-250903D01*
X769221Y-250920D01*
X769233Y-250931D01*
X769238Y-250936D01*
X769299Y-250997D01*
X769355Y-251064D01*
X769405Y-251131D01*
X769443Y-251197D01*
X769477Y-251264D01*
X769504Y-251330D01*
X769549Y-251452D01*
X769565Y-251508D01*
X769577Y-251564D01*
X769582Y-251608D01*
X769588Y-251647D01*
X769593Y-251680D01*
Y-251725D01*
X769588Y-251802D01*
X769577Y-251874D01*
X769565Y-251941D01*
X769543Y-252008D01*
X769488Y-252124D01*
X769432Y-252224D01*
X769371Y-252302D01*
X769344Y-252335D01*
X769316Y-252363D01*
X769294Y-252385D01*
X769282Y-252402D01*
X769271Y-252407D01*
X769266Y-252413D01*
X769382Y-252402D01*
X769493Y-252391D01*
X769593Y-252379D01*
X769682Y-252363D01*
X769760Y-252346D01*
X769832Y-252329D01*
X769893Y-252313D01*
X769948Y-252291D01*
X769998Y-252274D01*
X770037Y-252263D01*
X770071Y-252246D01*
X770093Y-252235D01*
X770115Y-252224D01*
X770126Y-252213D01*
X770137Y-252207D01*
X770209Y-252146D01*
X770259Y-252080D01*
X770298Y-252013D01*
X770320Y-251952D01*
X770337Y-251897D01*
X770342Y-251852D01*
X770348Y-251824D01*
Y-251813D01*
X770342Y-251752D01*
X770331Y-251691D01*
X770315Y-251641D01*
X770298Y-251602D01*
X770276Y-251569D01*
X770259Y-251547D01*
X770248Y-251530D01*
X770243Y-251525D01*
X770198Y-251486D01*
X770148Y-251458D01*
X770093Y-251430D01*
X770043Y-251414D01*
X769993Y-251403D01*
X769954Y-251392D01*
X769932Y-251386D01*
X769921D01*
X769998Y-250676D01*
X770165Y-250714D01*
X770304Y-250770D01*
X770426Y-250831D01*
X770531Y-250892D01*
X770609Y-250953D01*
X770637Y-250975D01*
X770664Y-251003D01*
X770681Y-251020D01*
X770698Y-251036D01*
X770709Y-251042D01*
Y-251047D01*
X770753Y-251103D01*
X770792Y-251158D01*
X770853Y-251280D01*
X770897Y-251403D01*
X770925Y-251514D01*
X770948Y-251613D01*
X770953Y-251658D01*
Y-251697D01*
X770959Y-251725D01*
Y-251769D01*
X770953Y-251885D01*
X770936Y-251991D01*
X770914Y-252096D01*
X770886Y-252191D01*
X770848Y-252279D01*
X770809Y-252368D01*
X770764Y-252440D01*
X770725Y-252513D01*
X770681Y-252574D01*
X770637Y-252629D01*
X770598Y-252674D01*
X770559Y-252712D01*
X770531Y-252746D01*
X770509Y-252768D01*
X770492Y-252779D01*
X770487Y-252784D01*
X770393Y-252851D01*
X770287Y-252912D01*
X770170Y-252962D01*
X770054Y-253007D01*
X769926Y-253045D01*
X769799Y-253079D01*
X769671Y-253106D01*
X769549Y-253123D01*
X769432Y-253140D01*
X769321Y-253151D01*
X769221Y-253162D01*
X769133Y-253168D01*
X769061Y-253173D01*
X769005D01*
X768988D01*
X768972D01*
X768966D01*
X768961D01*
X768772Y-253168D01*
X768600Y-253156D01*
X768439Y-253140D01*
X768295Y-253112D01*
X768156Y-253084D01*
X768034Y-253057D01*
X767928Y-253023D01*
X767828Y-252984D01*
X767745Y-252951D01*
X767673Y-252918D01*
X767612Y-252890D01*
X767562Y-252857D01*
X767523Y-252835D01*
X767495Y-252818D01*
X767479Y-252807D01*
X767473Y-252801D01*
X767395Y-252729D01*
X767323Y-252651D01*
X767262Y-252574D01*
X767212Y-252490D01*
X767168Y-252413D01*
X767135Y-252329D01*
X767101Y-252252D01*
X767079Y-252180D01*
X767063Y-252107D01*
X767046Y-252046D01*
X767040Y-251985D01*
X767029Y-251935D01*
Y-251897D01*
X767024Y-251869D01*
Y-251841D01*
X767029Y-251741D01*
X767040Y-251647D01*
X767057Y-251558D01*
X767079Y-251475D01*
X767107Y-251392D01*
X767135Y-251319D01*
X767168Y-251253D01*
X767201Y-251192D01*
X767235Y-251136D01*
X767268Y-251092D01*
X767296Y-251047D01*
X767323Y-251014D01*
X767346Y-250986D01*
X767362Y-250970D01*
X767373Y-250959D01*
X767379Y-250953D01*
X767445Y-250892D01*
X767523Y-250836D01*
X767601Y-250792D01*
X767678Y-250753D01*
X767756Y-250714D01*
X767834Y-250687D01*
X767989Y-250648D01*
X768056Y-250631D01*
X768122Y-250620D01*
X768178Y-250615D01*
X768228Y-250609D01*
X768272Y-250603D01*
X768300D01*
X768322D01*
X768328D01*
X768433Y-250609D01*
D02*
G37*
G36*
X769310Y-257780D02*
X768678D01*
X767534Y-255143D01*
X768278D01*
X768999Y-256986D01*
X769704Y-255143D01*
X770454D01*
X769310Y-257780D01*
D02*
G37*
G36*
X265436Y-244259D02*
X263305D01*
X263222D01*
X263144D01*
X263072Y-244265D01*
X263005D01*
X262950Y-244270D01*
X262895D01*
X262844Y-244276D01*
X262800D01*
X262734Y-244287D01*
X262684Y-244292D01*
X262656Y-244298D01*
X262645D01*
X262573Y-244315D01*
X262511Y-244342D01*
X262456Y-244376D01*
X262406Y-244409D01*
X262367Y-244442D01*
X262339Y-244470D01*
X262323Y-244492D01*
X262317Y-244498D01*
X262273Y-244565D01*
X262240Y-244648D01*
X262217Y-244725D01*
X262201Y-244809D01*
X262190Y-244881D01*
X262184Y-244936D01*
Y-244992D01*
X262190Y-245108D01*
X262206Y-245208D01*
X262228Y-245297D01*
X262256Y-245375D01*
X262278Y-245430D01*
X262301Y-245475D01*
X262317Y-245497D01*
X262323Y-245508D01*
X262378Y-245569D01*
X262445Y-245619D01*
X262506Y-245663D01*
X262567Y-245691D01*
X262622Y-245713D01*
X262667Y-245730D01*
X262695Y-245741D01*
X262706D01*
X262739Y-245747D01*
X262772Y-245752D01*
X262817D01*
X262867Y-245758D01*
X262972Y-245763D01*
X263083D01*
X263183Y-245769D01*
X263228D01*
X263272D01*
X263305D01*
X263327D01*
X263344D01*
X263350D01*
X265436D01*
Y-246546D01*
X263383D01*
X263266D01*
X263155Y-246540D01*
X263050D01*
X262955Y-246535D01*
X262867Y-246529D01*
X262789Y-246524D01*
X262717Y-246518D01*
X262650Y-246507D01*
X262595Y-246501D01*
X262545Y-246496D01*
X262500Y-246490D01*
X262467Y-246485D01*
X262439Y-246479D01*
X262423D01*
X262412Y-246474D01*
X262406D01*
X262323Y-246446D01*
X262245Y-246418D01*
X262173Y-246379D01*
X262112Y-246346D01*
X262056Y-246313D01*
X262012Y-246285D01*
X261990Y-246263D01*
X261979Y-246257D01*
X261907Y-246191D01*
X261840Y-246118D01*
X261785Y-246041D01*
X261735Y-245969D01*
X261696Y-245908D01*
X261668Y-245852D01*
X261651Y-245819D01*
X261646Y-245813D01*
Y-245808D01*
X261624Y-245752D01*
X261607Y-245691D01*
X261574Y-245552D01*
X261551Y-245414D01*
X261540Y-245280D01*
X261535Y-245219D01*
X261529Y-245158D01*
Y-245108D01*
X261524Y-245058D01*
Y-244970D01*
X261529Y-244809D01*
X261540Y-244664D01*
X261562Y-244537D01*
X261585Y-244431D01*
X261590Y-244387D01*
X261601Y-244342D01*
X261612Y-244309D01*
X261624Y-244281D01*
X261629Y-244259D01*
X261635Y-244243D01*
X261640Y-244237D01*
Y-244232D01*
X261685Y-244132D01*
X261740Y-244043D01*
X261790Y-243965D01*
X261840Y-243899D01*
X261884Y-243848D01*
X261918Y-243810D01*
X261940Y-243788D01*
X261951Y-243782D01*
X262029Y-243721D01*
X262112Y-243671D01*
X262190Y-243632D01*
X262267Y-243599D01*
X262334Y-243577D01*
X262389Y-243560D01*
X262406Y-243554D01*
X262423D01*
X262428Y-243549D01*
X262434D01*
X262495Y-243538D01*
X262561Y-243527D01*
X262634Y-243515D01*
X262706Y-243510D01*
X262872Y-243499D01*
X263033Y-243488D01*
X263105D01*
X263177D01*
X263244Y-243482D01*
X263300D01*
X263344D01*
X263383D01*
X263405D01*
X263411D01*
X265436D01*
Y-244259D01*
D02*
G37*
G36*
X263688Y-247201D02*
X263871Y-247212D01*
X264038Y-247229D01*
X264193Y-247256D01*
X264337Y-247284D01*
X264465Y-247312D01*
X264582Y-247351D01*
X264682Y-247384D01*
X264776Y-247417D01*
X264848Y-247450D01*
X264915Y-247484D01*
X264970Y-247512D01*
X265009Y-247539D01*
X265037Y-247556D01*
X265053Y-247567D01*
X265059Y-247573D01*
X265131Y-247634D01*
X265192Y-247700D01*
X265242Y-247772D01*
X265292Y-247845D01*
X265331Y-247917D01*
X265359Y-247989D01*
X265386Y-248055D01*
X265409Y-248128D01*
X265425Y-248194D01*
X265436Y-248250D01*
X265447Y-248305D01*
X265453Y-248350D01*
X265459Y-248388D01*
Y-248444D01*
X265453Y-248544D01*
X265442Y-248638D01*
X265420Y-248732D01*
X265398Y-248816D01*
X265364Y-248893D01*
X265331Y-248966D01*
X265298Y-249027D01*
X265259Y-249088D01*
X265220Y-249138D01*
X265187Y-249188D01*
X265153Y-249226D01*
X265120Y-249254D01*
X265098Y-249282D01*
X265076Y-249299D01*
X265065Y-249310D01*
X265059Y-249315D01*
X264965Y-249382D01*
X264854Y-249437D01*
X264737Y-249487D01*
X264615Y-249532D01*
X264487Y-249565D01*
X264354Y-249598D01*
X264227Y-249621D01*
X264099Y-249643D01*
X263977Y-249654D01*
X263866Y-249665D01*
X263760Y-249676D01*
X263671Y-249682D01*
X263599Y-249687D01*
X263544D01*
X263522D01*
X263505D01*
X263499D01*
X263494D01*
X263294Y-249682D01*
X263111Y-249671D01*
X262939Y-249654D01*
X262784Y-249632D01*
X262645Y-249609D01*
X262517Y-249582D01*
X262406Y-249548D01*
X262306Y-249515D01*
X262223Y-249487D01*
X262145Y-249454D01*
X262084Y-249426D01*
X262034Y-249398D01*
X262001Y-249382D01*
X261973Y-249365D01*
X261957Y-249354D01*
X261951Y-249349D01*
X261873Y-249282D01*
X261812Y-249210D01*
X261751Y-249138D01*
X261707Y-249060D01*
X261662Y-248988D01*
X261629Y-248910D01*
X261601Y-248838D01*
X261579Y-248766D01*
X261557Y-248699D01*
X261546Y-248638D01*
X261535Y-248583D01*
X261529Y-248538D01*
Y-248499D01*
X261524Y-248466D01*
Y-248444D01*
X261529Y-248344D01*
X261540Y-248250D01*
X261562Y-248155D01*
X261585Y-248072D01*
X261612Y-247994D01*
X261646Y-247922D01*
X261685Y-247861D01*
X261723Y-247800D01*
X261757Y-247750D01*
X261796Y-247700D01*
X261829Y-247661D01*
X261857Y-247628D01*
X261879Y-247606D01*
X261901Y-247589D01*
X261912Y-247578D01*
X261918Y-247573D01*
X262012Y-247506D01*
X262123Y-247450D01*
X262240Y-247395D01*
X262367Y-247356D01*
X262495Y-247317D01*
X262622Y-247289D01*
X262756Y-247262D01*
X262883Y-247240D01*
X263005Y-247229D01*
X263117Y-247217D01*
X263222Y-247206D01*
X263311Y-247201D01*
X263383Y-247195D01*
X263438D01*
X263461D01*
X263477D01*
X263483D01*
X263488D01*
X263688Y-247201D01*
D02*
G37*
G36*
X265459Y-251391D02*
X265331Y-251447D01*
X265214Y-251519D01*
X265103Y-251596D01*
X265015Y-251674D01*
X264942Y-251741D01*
X264887Y-251802D01*
X264865Y-251824D01*
X264848Y-251840D01*
X264843Y-251852D01*
X264837Y-251857D01*
X264748Y-251979D01*
X264670Y-252096D01*
X264609Y-252201D01*
X264565Y-252296D01*
X264532Y-252373D01*
X264504Y-252429D01*
X264498Y-252451D01*
X264493Y-252468D01*
X264487Y-252473D01*
Y-252479D01*
X263821D01*
X263899Y-252279D01*
X263982Y-252101D01*
X264027Y-252018D01*
X264077Y-251940D01*
X264121Y-251868D01*
X264165Y-251802D01*
X264210Y-251741D01*
X264249Y-251685D01*
X264282Y-251641D01*
X264315Y-251602D01*
X264343Y-251569D01*
X264360Y-251546D01*
X264371Y-251535D01*
X264376Y-251530D01*
X261596D01*
Y-250792D01*
X265459D01*
Y-251391D01*
D02*
G37*
G36*
X263810Y-257279D02*
X263177D01*
X262034Y-254643D01*
X262778D01*
X263499Y-256486D01*
X264204Y-254643D01*
X264953D01*
X263810Y-257279D01*
D02*
G37*
G36*
X302436Y-247245D02*
X300305D01*
X300222D01*
X300144D01*
X300072Y-247251D01*
X300006D01*
X299950Y-247256D01*
X299894D01*
X299845Y-247262D01*
X299800D01*
X299733Y-247273D01*
X299684Y-247278D01*
X299656Y-247284D01*
X299645D01*
X299573Y-247301D01*
X299512Y-247328D01*
X299456Y-247362D01*
X299406Y-247395D01*
X299367Y-247428D01*
X299340Y-247456D01*
X299323Y-247478D01*
X299317Y-247484D01*
X299273Y-247550D01*
X299240Y-247634D01*
X299217Y-247711D01*
X299201Y-247795D01*
X299190Y-247867D01*
X299184Y-247922D01*
Y-247978D01*
X299190Y-248094D01*
X299206Y-248194D01*
X299229Y-248283D01*
X299256Y-248361D01*
X299278Y-248416D01*
X299301Y-248461D01*
X299317Y-248483D01*
X299323Y-248494D01*
X299378Y-248555D01*
X299445Y-248605D01*
X299506Y-248649D01*
X299567Y-248677D01*
X299623Y-248699D01*
X299667Y-248716D01*
X299695Y-248727D01*
X299706D01*
X299739Y-248732D01*
X299772Y-248738D01*
X299817D01*
X299867Y-248744D01*
X299972Y-248749D01*
X300083D01*
X300183Y-248755D01*
X300227D01*
X300272D01*
X300305D01*
X300327D01*
X300344D01*
X300350D01*
X302436D01*
Y-249532D01*
X300383D01*
X300266D01*
X300155Y-249526D01*
X300050D01*
X299956Y-249521D01*
X299867Y-249515D01*
X299789Y-249510D01*
X299717Y-249504D01*
X299650Y-249493D01*
X299595Y-249487D01*
X299545Y-249482D01*
X299500Y-249476D01*
X299467Y-249471D01*
X299439Y-249465D01*
X299423D01*
X299412Y-249460D01*
X299406D01*
X299323Y-249432D01*
X299245Y-249404D01*
X299173Y-249365D01*
X299112Y-249332D01*
X299056Y-249299D01*
X299012Y-249271D01*
X298990Y-249249D01*
X298979Y-249243D01*
X298907Y-249177D01*
X298840Y-249104D01*
X298784Y-249027D01*
X298734Y-248955D01*
X298696Y-248893D01*
X298668Y-248838D01*
X298651Y-248805D01*
X298646Y-248799D01*
Y-248794D01*
X298623Y-248738D01*
X298607Y-248677D01*
X298574Y-248538D01*
X298551Y-248399D01*
X298540Y-248266D01*
X298535Y-248205D01*
X298529Y-248144D01*
Y-248094D01*
X298524Y-248044D01*
Y-247955D01*
X298529Y-247795D01*
X298540Y-247650D01*
X298563Y-247523D01*
X298585Y-247417D01*
X298590Y-247373D01*
X298601Y-247328D01*
X298612Y-247295D01*
X298623Y-247267D01*
X298629Y-247245D01*
X298635Y-247229D01*
X298640Y-247223D01*
Y-247217D01*
X298685Y-247117D01*
X298740Y-247029D01*
X298790Y-246951D01*
X298840Y-246884D01*
X298884Y-246834D01*
X298918Y-246796D01*
X298940Y-246773D01*
X298951Y-246768D01*
X299029Y-246707D01*
X299112Y-246657D01*
X299190Y-246618D01*
X299267Y-246585D01*
X299334Y-246563D01*
X299389Y-246546D01*
X299406Y-246540D01*
X299423D01*
X299428Y-246535D01*
X299434D01*
X299495Y-246524D01*
X299562Y-246513D01*
X299634Y-246501D01*
X299706Y-246496D01*
X299872Y-246485D01*
X300033Y-246474D01*
X300105D01*
X300178D01*
X300244Y-246468D01*
X300300D01*
X300344D01*
X300383D01*
X300405D01*
X300411D01*
X302436D01*
Y-247245D01*
D02*
G37*
G36*
X302386Y-252673D02*
X301704D01*
Y-251003D01*
X301454Y-251186D01*
X301193Y-251347D01*
X301071Y-251424D01*
X300943Y-251491D01*
X300827Y-251552D01*
X300716Y-251607D01*
X300610Y-251657D01*
X300516Y-251702D01*
X300427Y-251741D01*
X300355Y-251774D01*
X300300Y-251796D01*
X300255Y-251813D01*
X300227Y-251824D01*
X300216Y-251829D01*
X300061Y-251885D01*
X299911Y-251935D01*
X299761Y-251974D01*
X299617Y-252013D01*
X299473Y-252040D01*
X299340Y-252068D01*
X299212Y-252090D01*
X299095Y-252107D01*
X298990Y-252124D01*
X298890Y-252135D01*
X298807Y-252146D01*
X298734Y-252151D01*
X298674D01*
X298629Y-252157D01*
X298607D01*
X298596D01*
Y-251447D01*
X298790Y-251441D01*
X298990Y-251424D01*
X299184Y-251396D01*
X299273Y-251385D01*
X299362Y-251369D01*
X299439Y-251352D01*
X299517Y-251336D01*
X299578Y-251324D01*
X299634Y-251313D01*
X299684Y-251302D01*
X299717Y-251291D01*
X299739Y-251286D01*
X299745D01*
X299983Y-251213D01*
X300211Y-251136D01*
X300316Y-251097D01*
X300416Y-251052D01*
X300511Y-251014D01*
X300599Y-250975D01*
X300677Y-250936D01*
X300749Y-250903D01*
X300816Y-250869D01*
X300866Y-250847D01*
X300910Y-250825D01*
X300938Y-250808D01*
X300960Y-250797D01*
X300966Y-250792D01*
X301071Y-250730D01*
X301171Y-250670D01*
X301260Y-250614D01*
X301349Y-250558D01*
X301426Y-250503D01*
X301498Y-250448D01*
X301565Y-250397D01*
X301626Y-250353D01*
X301682Y-250309D01*
X301726Y-250270D01*
X301765Y-250237D01*
X301798Y-250209D01*
X301820Y-250187D01*
X301837Y-250170D01*
X301848Y-250159D01*
X301854Y-250153D01*
X302386D01*
Y-252673D01*
D02*
G37*
G36*
X300810Y-257279D02*
X300178D01*
X299034Y-254643D01*
X299778D01*
X300499Y-256486D01*
X301204Y-254643D01*
X301954D01*
X300810Y-257279D01*
D02*
G37*
G36*
X376436Y-239780D02*
X374305D01*
X374222D01*
X374144D01*
X374072Y-239786D01*
X374006D01*
X373950Y-239791D01*
X373895D01*
X373845Y-239797D01*
X373800D01*
X373733Y-239808D01*
X373684Y-239814D01*
X373656Y-239819D01*
X373645D01*
X373573Y-239836D01*
X373512Y-239864D01*
X373456Y-239897D01*
X373406Y-239930D01*
X373367Y-239964D01*
X373340Y-239991D01*
X373323Y-240014D01*
X373317Y-240019D01*
X373273Y-240086D01*
X373240Y-240169D01*
X373217Y-240247D01*
X373201Y-240330D01*
X373190Y-240402D01*
X373184Y-240458D01*
Y-240513D01*
X373190Y-240630D01*
X373206Y-240729D01*
X373229Y-240818D01*
X373256Y-240896D01*
X373278Y-240951D01*
X373301Y-240996D01*
X373317Y-241018D01*
X373323Y-241029D01*
X373378Y-241090D01*
X373445Y-241140D01*
X373506Y-241184D01*
X373567Y-241212D01*
X373622Y-241234D01*
X373667Y-241251D01*
X373695Y-241262D01*
X373706D01*
X373739Y-241268D01*
X373772Y-241273D01*
X373817D01*
X373867Y-241279D01*
X373972Y-241284D01*
X374083D01*
X374183Y-241290D01*
X374227D01*
X374272D01*
X374305D01*
X374327D01*
X374344D01*
X374350D01*
X376436D01*
Y-242067D01*
X374383D01*
X374266D01*
X374155Y-242061D01*
X374050D01*
X373955Y-242056D01*
X373867Y-242050D01*
X373789Y-242045D01*
X373717Y-242039D01*
X373650Y-242028D01*
X373595Y-242023D01*
X373545Y-242017D01*
X373500Y-242011D01*
X373467Y-242006D01*
X373439Y-242000D01*
X373423D01*
X373412Y-241995D01*
X373406D01*
X373323Y-241967D01*
X373245Y-241939D01*
X373173Y-241900D01*
X373112Y-241867D01*
X373056Y-241834D01*
X373012Y-241806D01*
X372990Y-241784D01*
X372979Y-241778D01*
X372907Y-241712D01*
X372840Y-241640D01*
X372784Y-241562D01*
X372734Y-241490D01*
X372696Y-241429D01*
X372668Y-241373D01*
X372651Y-241340D01*
X372646Y-241334D01*
Y-241329D01*
X372623Y-241273D01*
X372607Y-241212D01*
X372574Y-241073D01*
X372551Y-240935D01*
X372540Y-240802D01*
X372535Y-240740D01*
X372529Y-240680D01*
Y-240630D01*
X372524Y-240580D01*
Y-240491D01*
X372529Y-240330D01*
X372540Y-240185D01*
X372563Y-240058D01*
X372585Y-239952D01*
X372590Y-239908D01*
X372601Y-239864D01*
X372612Y-239830D01*
X372623Y-239803D01*
X372629Y-239780D01*
X372635Y-239764D01*
X372640Y-239758D01*
Y-239753D01*
X372685Y-239653D01*
X372740Y-239564D01*
X372790Y-239486D01*
X372840Y-239420D01*
X372884Y-239370D01*
X372918Y-239331D01*
X372940Y-239309D01*
X372951Y-239303D01*
X373029Y-239242D01*
X373112Y-239192D01*
X373190Y-239153D01*
X373267Y-239120D01*
X373334Y-239098D01*
X373389Y-239081D01*
X373406Y-239075D01*
X373423D01*
X373428Y-239070D01*
X373434D01*
X373495Y-239059D01*
X373562Y-239048D01*
X373634Y-239037D01*
X373706Y-239031D01*
X373872Y-239020D01*
X374033Y-239009D01*
X374105D01*
X374178D01*
X374244Y-239003D01*
X374300D01*
X374344D01*
X374383D01*
X374405D01*
X374411D01*
X376436D01*
Y-239780D01*
D02*
G37*
G36*
X373989Y-242616D02*
X374089Y-242628D01*
X374183Y-242644D01*
X374272Y-242666D01*
X374350Y-242689D01*
X374427Y-242722D01*
X374499Y-242750D01*
X374560Y-242783D01*
X374616Y-242816D01*
X374666Y-242844D01*
X374710Y-242877D01*
X374744Y-242899D01*
X374771Y-242922D01*
X374794Y-242938D01*
X374805Y-242949D01*
X374810Y-242955D01*
X374871Y-243022D01*
X374927Y-243088D01*
X374977Y-243160D01*
X375021Y-243232D01*
X375054Y-243299D01*
X375082Y-243371D01*
X375127Y-243499D01*
X375143Y-243560D01*
X375154Y-243615D01*
X375160Y-243665D01*
X375165Y-243704D01*
X375171Y-243738D01*
Y-243788D01*
X375165Y-243882D01*
X375149Y-243976D01*
X375132Y-244059D01*
X375110Y-244137D01*
X375082Y-244198D01*
X375065Y-244248D01*
X375049Y-244281D01*
X375043Y-244287D01*
Y-244292D01*
X375698Y-244176D01*
Y-242783D01*
X376386D01*
Y-244731D01*
X374383Y-245108D01*
X374300Y-244514D01*
X374350Y-244465D01*
X374394Y-244415D01*
X374433Y-244365D01*
X374466Y-244315D01*
X374516Y-244220D01*
X374549Y-244132D01*
X374566Y-244054D01*
X374577Y-243998D01*
X374583Y-243976D01*
Y-243943D01*
X374577Y-243854D01*
X374555Y-243771D01*
X374527Y-243699D01*
X374494Y-243638D01*
X374455Y-243593D01*
X374427Y-243554D01*
X374405Y-243532D01*
X374399Y-243527D01*
X374327Y-243471D01*
X374244Y-243432D01*
X374155Y-243405D01*
X374066Y-243388D01*
X373989Y-243371D01*
X373928Y-243366D01*
X373900D01*
X373883D01*
X373872D01*
X373867D01*
X373733Y-243371D01*
X373617Y-243388D01*
X373523Y-243416D01*
X373445Y-243443D01*
X373378Y-243477D01*
X373334Y-243499D01*
X373312Y-243521D01*
X373301Y-243527D01*
X373240Y-243588D01*
X373190Y-243654D01*
X373156Y-243721D01*
X373134Y-243782D01*
X373123Y-243837D01*
X373117Y-243882D01*
X373112Y-243910D01*
Y-243921D01*
X373117Y-243993D01*
X373134Y-244065D01*
X373156Y-244126D01*
X373184Y-244176D01*
X373212Y-244220D01*
X373234Y-244254D01*
X373251Y-244276D01*
X373256Y-244281D01*
X373317Y-244331D01*
X373378Y-244376D01*
X373445Y-244409D01*
X373506Y-244431D01*
X373562Y-244448D01*
X373611Y-244459D01*
X373639Y-244465D01*
X373650D01*
X373573Y-245197D01*
X373484Y-245181D01*
X373400Y-245164D01*
X373251Y-245108D01*
X373117Y-245047D01*
X373062Y-245014D01*
X373007Y-244975D01*
X372962Y-244942D01*
X372923Y-244914D01*
X372890Y-244881D01*
X372857Y-244859D01*
X372834Y-244836D01*
X372818Y-244820D01*
X372812Y-244809D01*
X372807Y-244803D01*
X372757Y-244737D01*
X372712Y-244670D01*
X372674Y-244598D01*
X372646Y-244526D01*
X372590Y-244376D01*
X372557Y-244243D01*
X372546Y-244176D01*
X372540Y-244121D01*
X372535Y-244065D01*
X372529Y-244021D01*
X372524Y-243982D01*
Y-243932D01*
X372529Y-243810D01*
X372546Y-243693D01*
X372568Y-243588D01*
X372601Y-243488D01*
X372640Y-243393D01*
X372685Y-243310D01*
X372729Y-243232D01*
X372779Y-243160D01*
X372823Y-243099D01*
X372868Y-243044D01*
X372912Y-242994D01*
X372951Y-242955D01*
X372984Y-242927D01*
X373007Y-242905D01*
X373023Y-242894D01*
X373029Y-242888D01*
X373101Y-242838D01*
X373173Y-242794D01*
X373245Y-242761D01*
X373323Y-242727D01*
X373467Y-242677D01*
X373600Y-242644D01*
X373656Y-242633D01*
X373711Y-242628D01*
X373761Y-242616D01*
X373806D01*
X373839Y-242611D01*
X373861D01*
X373878D01*
X373883D01*
X373989Y-242616D01*
D02*
G37*
G36*
X375465Y-245713D02*
X375548Y-245724D01*
X375626Y-245736D01*
X375698Y-245758D01*
X375826Y-245813D01*
X375937Y-245869D01*
X375987Y-245902D01*
X376026Y-245930D01*
X376064Y-245957D01*
X376092Y-245985D01*
X376115Y-246007D01*
X376137Y-246019D01*
X376142Y-246030D01*
X376148Y-246035D01*
X376203Y-246096D01*
X376253Y-246168D01*
X376292Y-246235D01*
X376325Y-246313D01*
X376381Y-246457D01*
X376420Y-246601D01*
X376431Y-246668D01*
X376442Y-246729D01*
X376448Y-246784D01*
X376453Y-246834D01*
X376459Y-246873D01*
Y-246929D01*
X376453Y-247023D01*
X376448Y-247112D01*
X376420Y-247284D01*
X376375Y-247428D01*
X376353Y-247495D01*
X376325Y-247556D01*
X376303Y-247611D01*
X376275Y-247656D01*
X376253Y-247700D01*
X376237Y-247733D01*
X376214Y-247761D01*
X376203Y-247778D01*
X376198Y-247789D01*
X376192Y-247795D01*
X376137Y-247856D01*
X376081Y-247911D01*
X376015Y-247961D01*
X375942Y-248006D01*
X375798Y-248072D01*
X375659Y-248128D01*
X375587Y-248144D01*
X375526Y-248161D01*
X375471Y-248178D01*
X375421Y-248183D01*
X375376Y-248194D01*
X375349D01*
X375326Y-248200D01*
X375321D01*
X375249Y-247467D01*
X375360Y-247456D01*
X375454Y-247434D01*
X375537Y-247412D01*
X375598Y-247384D01*
X375648Y-247362D01*
X375682Y-247340D01*
X375704Y-247323D01*
X375709Y-247317D01*
X375754Y-247262D01*
X375787Y-247201D01*
X375815Y-247140D01*
X375831Y-247079D01*
X375842Y-247029D01*
X375848Y-246984D01*
Y-246945D01*
X375842Y-246862D01*
X375826Y-246790D01*
X375804Y-246729D01*
X375781Y-246673D01*
X375759Y-246635D01*
X375737Y-246601D01*
X375720Y-246585D01*
X375715Y-246579D01*
X375659Y-246535D01*
X375598Y-246501D01*
X375537Y-246479D01*
X375476Y-246463D01*
X375421Y-246451D01*
X375371Y-246446D01*
X375343D01*
X375338D01*
X375332D01*
X375249Y-246451D01*
X375171Y-246468D01*
X375093Y-246496D01*
X375027Y-246524D01*
X374966Y-246551D01*
X374921Y-246579D01*
X374893Y-246596D01*
X374882Y-246601D01*
X374849Y-246623D01*
X374810Y-246657D01*
X374760Y-246701D01*
X374716Y-246746D01*
X374610Y-246846D01*
X374505Y-246945D01*
X374405Y-247045D01*
X374361Y-247090D01*
X374327Y-247134D01*
X374294Y-247167D01*
X374272Y-247190D01*
X374255Y-247206D01*
X374250Y-247212D01*
X374144Y-247323D01*
X374044Y-247423D01*
X373950Y-247517D01*
X373867Y-247600D01*
X373783Y-247678D01*
X373706Y-247745D01*
X373639Y-247806D01*
X373573Y-247856D01*
X373517Y-247900D01*
X373467Y-247939D01*
X373428Y-247972D01*
X373389Y-247994D01*
X373367Y-248017D01*
X373345Y-248028D01*
X373334Y-248039D01*
X373328D01*
X373201Y-248111D01*
X373067Y-248166D01*
X372945Y-248211D01*
X372834Y-248244D01*
X372734Y-248266D01*
X372696Y-248272D01*
X372662Y-248277D01*
X372635Y-248283D01*
X372612Y-248288D01*
X372601D01*
X372596D01*
Y-245708D01*
X373278D01*
Y-247173D01*
X373351Y-247129D01*
X373412Y-247079D01*
X373439Y-247056D01*
X373462Y-247040D01*
X373473Y-247029D01*
X373478Y-247023D01*
X373500Y-247001D01*
X373528Y-246979D01*
X373589Y-246912D01*
X373661Y-246840D01*
X373733Y-246768D01*
X373800Y-246696D01*
X373856Y-246635D01*
X373878Y-246612D01*
X373895Y-246596D01*
X373900Y-246585D01*
X373906Y-246579D01*
X374022Y-246457D01*
X374116Y-246357D01*
X374205Y-246274D01*
X374272Y-246207D01*
X374327Y-246157D01*
X374366Y-246124D01*
X374394Y-246102D01*
X374399Y-246096D01*
X374494Y-246024D01*
X374583Y-245963D01*
X374666Y-245913D01*
X374738Y-245874D01*
X374799Y-245841D01*
X374849Y-245819D01*
X374877Y-245808D01*
X374888Y-245802D01*
X374977Y-245769D01*
X375065Y-245747D01*
X375149Y-245730D01*
X375226Y-245719D01*
X375288Y-245713D01*
X375338Y-245708D01*
X375371D01*
X375382D01*
X375465Y-245713D01*
D02*
G37*
G36*
X373334Y-249532D02*
X372596D01*
Y-248794D01*
X373334D01*
Y-249532D01*
D02*
G37*
G36*
X373933Y-250109D02*
X374028Y-250120D01*
X374122Y-250137D01*
X374205Y-250153D01*
X374289Y-250181D01*
X374361Y-250209D01*
X374433Y-250237D01*
X374494Y-250270D01*
X374549Y-250303D01*
X374599Y-250331D01*
X374638Y-250359D01*
X374677Y-250386D01*
X374705Y-250403D01*
X374721Y-250420D01*
X374732Y-250431D01*
X374738Y-250436D01*
X374799Y-250497D01*
X374855Y-250564D01*
X374905Y-250631D01*
X374943Y-250697D01*
X374977Y-250764D01*
X375005Y-250830D01*
X375049Y-250953D01*
X375065Y-251008D01*
X375077Y-251063D01*
X375082Y-251108D01*
X375088Y-251147D01*
X375093Y-251180D01*
Y-251224D01*
X375088Y-251302D01*
X375077Y-251374D01*
X375065Y-251441D01*
X375043Y-251507D01*
X374988Y-251624D01*
X374932Y-251724D01*
X374871Y-251802D01*
X374844Y-251835D01*
X374816Y-251863D01*
X374794Y-251885D01*
X374782Y-251902D01*
X374771Y-251907D01*
X374766Y-251913D01*
X374882Y-251902D01*
X374993Y-251890D01*
X375093Y-251879D01*
X375182Y-251863D01*
X375260Y-251846D01*
X375332Y-251829D01*
X375393Y-251813D01*
X375448Y-251791D01*
X375498Y-251774D01*
X375537Y-251763D01*
X375571Y-251746D01*
X375593Y-251735D01*
X375615Y-251724D01*
X375626Y-251713D01*
X375637Y-251707D01*
X375709Y-251646D01*
X375759Y-251580D01*
X375798Y-251513D01*
X375820Y-251452D01*
X375837Y-251396D01*
X375842Y-251352D01*
X375848Y-251324D01*
Y-251313D01*
X375842Y-251252D01*
X375831Y-251191D01*
X375815Y-251141D01*
X375798Y-251102D01*
X375776Y-251069D01*
X375759Y-251047D01*
X375748Y-251030D01*
X375743Y-251025D01*
X375698Y-250986D01*
X375648Y-250958D01*
X375593Y-250930D01*
X375543Y-250914D01*
X375493Y-250903D01*
X375454Y-250891D01*
X375432Y-250886D01*
X375421D01*
X375498Y-250175D01*
X375665Y-250214D01*
X375804Y-250270D01*
X375926Y-250331D01*
X376031Y-250392D01*
X376109Y-250453D01*
X376137Y-250475D01*
X376164Y-250503D01*
X376181Y-250520D01*
X376198Y-250536D01*
X376209Y-250542D01*
Y-250547D01*
X376253Y-250603D01*
X376292Y-250658D01*
X376353Y-250781D01*
X376397Y-250903D01*
X376425Y-251014D01*
X376448Y-251114D01*
X376453Y-251158D01*
Y-251197D01*
X376459Y-251224D01*
Y-251269D01*
X376453Y-251385D01*
X376436Y-251491D01*
X376414Y-251596D01*
X376386Y-251691D01*
X376348Y-251780D01*
X376309Y-251868D01*
X376264Y-251940D01*
X376225Y-252013D01*
X376181Y-252074D01*
X376137Y-252129D01*
X376098Y-252173D01*
X376059Y-252212D01*
X376031Y-252246D01*
X376009Y-252268D01*
X375992Y-252279D01*
X375987Y-252285D01*
X375892Y-252351D01*
X375787Y-252412D01*
X375671Y-252462D01*
X375554Y-252506D01*
X375426Y-252545D01*
X375299Y-252579D01*
X375171Y-252606D01*
X375049Y-252623D01*
X374932Y-252640D01*
X374821Y-252651D01*
X374721Y-252662D01*
X374633Y-252667D01*
X374560Y-252673D01*
X374505D01*
X374488D01*
X374472D01*
X374466D01*
X374461D01*
X374272Y-252667D01*
X374100Y-252656D01*
X373939Y-252640D01*
X373795Y-252612D01*
X373656Y-252584D01*
X373534Y-252556D01*
X373428Y-252523D01*
X373328Y-252484D01*
X373245Y-252451D01*
X373173Y-252418D01*
X373112Y-252390D01*
X373062Y-252357D01*
X373023Y-252334D01*
X372995Y-252318D01*
X372979Y-252307D01*
X372973Y-252301D01*
X372896Y-252229D01*
X372823Y-252151D01*
X372762Y-252074D01*
X372712Y-251990D01*
X372668Y-251913D01*
X372635Y-251829D01*
X372601Y-251752D01*
X372579Y-251680D01*
X372563Y-251607D01*
X372546Y-251546D01*
X372540Y-251485D01*
X372529Y-251435D01*
Y-251396D01*
X372524Y-251369D01*
Y-251341D01*
X372529Y-251241D01*
X372540Y-251147D01*
X372557Y-251058D01*
X372579Y-250975D01*
X372607Y-250891D01*
X372635Y-250819D01*
X372668Y-250753D01*
X372701Y-250692D01*
X372734Y-250636D01*
X372768Y-250592D01*
X372796Y-250547D01*
X372823Y-250514D01*
X372846Y-250486D01*
X372862Y-250470D01*
X372873Y-250459D01*
X372879Y-250453D01*
X372945Y-250392D01*
X373023Y-250337D01*
X373101Y-250292D01*
X373179Y-250253D01*
X373256Y-250214D01*
X373334Y-250187D01*
X373489Y-250148D01*
X373556Y-250131D01*
X373622Y-250120D01*
X373678Y-250114D01*
X373728Y-250109D01*
X373772Y-250103D01*
X373800D01*
X373822D01*
X373828D01*
X373933Y-250109D01*
D02*
G37*
G36*
X374810Y-257279D02*
X374178D01*
X373034Y-254643D01*
X373778D01*
X374499Y-256486D01*
X375204Y-254643D01*
X375954D01*
X374810Y-257279D01*
D02*
G37*
%LPC*%
G36*
X788155Y-247972D02*
X788099D01*
X788055D01*
X788016D01*
X787994D01*
X787988D01*
X787866D01*
X787750Y-247978D01*
X787644D01*
X787550Y-247983D01*
X787461Y-247989D01*
X787383Y-247994D01*
X787311Y-248006D01*
X787250Y-248011D01*
X787195Y-248017D01*
X787150Y-248028D01*
X787111Y-248033D01*
X787078Y-248039D01*
X787056Y-248044D01*
X787034D01*
X787028Y-248050D01*
X787023D01*
X786945Y-248072D01*
X786884Y-248100D01*
X786828Y-248128D01*
X786790Y-248150D01*
X786756Y-248172D01*
X786734Y-248194D01*
X786723Y-248205D01*
X786717Y-248211D01*
X786690Y-248250D01*
X786667Y-248288D01*
X786656Y-248327D01*
X786645Y-248366D01*
X786640Y-248394D01*
X786634Y-248422D01*
Y-248444D01*
X786640Y-248494D01*
X786645Y-248538D01*
X786662Y-248577D01*
X786679Y-248610D01*
X786690Y-248638D01*
X786706Y-248660D01*
X786712Y-248672D01*
X786717Y-248677D01*
X786756Y-248710D01*
X786806Y-248744D01*
X786862Y-248771D01*
X786917Y-248799D01*
X786967Y-248816D01*
X787011Y-248832D01*
X787039Y-248838D01*
X787050Y-248844D01*
X787106Y-248855D01*
X787167Y-248866D01*
X787233Y-248877D01*
X787306Y-248882D01*
X787461Y-248893D01*
X787616Y-248899D01*
X787689Y-248905D01*
X787761D01*
X787822Y-248910D01*
X787877D01*
X787922D01*
X787961D01*
X787983D01*
X787988D01*
X788110D01*
X788227Y-248905D01*
X788327D01*
X788427Y-248899D01*
X788510Y-248893D01*
X788593Y-248888D01*
X788660Y-248882D01*
X788727Y-248871D01*
X788782Y-248866D01*
X788826Y-248860D01*
X788865Y-248855D01*
X788899Y-248849D01*
X788921Y-248844D01*
X788943D01*
X788948Y-248838D01*
X788954D01*
X789032Y-248816D01*
X789098Y-248788D01*
X789148Y-248766D01*
X789193Y-248738D01*
X789220Y-248716D01*
X789243Y-248699D01*
X789254Y-248688D01*
X789259Y-248683D01*
X789287Y-248644D01*
X789309Y-248599D01*
X789326Y-248561D01*
X789337Y-248522D01*
X789342Y-248494D01*
X789348Y-248466D01*
Y-248444D01*
X789342Y-248394D01*
X789337Y-248350D01*
X789320Y-248311D01*
X789304Y-248277D01*
X789287Y-248250D01*
X789276Y-248228D01*
X789265Y-248216D01*
X789259Y-248211D01*
X789220Y-248178D01*
X789171Y-248144D01*
X789115Y-248116D01*
X789059Y-248089D01*
X789004Y-248072D01*
X788960Y-248055D01*
X788932Y-248050D01*
X788926Y-248044D01*
X788921D01*
X788871Y-248033D01*
X788810Y-248022D01*
X788738Y-248011D01*
X788665Y-248000D01*
X788516Y-247989D01*
X788360Y-247983D01*
X788288Y-247978D01*
X788216D01*
X788155Y-247972D01*
D02*
G37*
G36*
X768378Y-251325D02*
X768356D01*
X768333D01*
X768322D01*
X768317D01*
X768189Y-251330D01*
X768078Y-251347D01*
X767989Y-251369D01*
X767917Y-251392D01*
X767862Y-251419D01*
X767823Y-251441D01*
X767795Y-251458D01*
X767790Y-251464D01*
X767740Y-251519D01*
X767701Y-251575D01*
X767673Y-251636D01*
X767656Y-251686D01*
X767645Y-251736D01*
X767634Y-251774D01*
Y-251808D01*
X767645Y-251885D01*
X767667Y-251958D01*
X767695Y-252019D01*
X767734Y-252074D01*
X767767Y-252118D01*
X767801Y-252157D01*
X767823Y-252180D01*
X767828Y-252185D01*
X767906Y-252241D01*
X767995Y-252279D01*
X768089Y-252307D01*
X768178Y-252324D01*
X768261Y-252335D01*
X768322Y-252346D01*
X768350D01*
X768367D01*
X768378D01*
X768383D01*
X768500Y-252341D01*
X768600Y-252324D01*
X768683Y-252302D01*
X768755Y-252274D01*
X768805Y-252246D01*
X768844Y-252224D01*
X768872Y-252207D01*
X768877Y-252202D01*
X768933Y-252146D01*
X768977Y-252085D01*
X769005Y-252024D01*
X769027Y-251969D01*
X769038Y-251919D01*
X769049Y-251874D01*
Y-251841D01*
X769044Y-251763D01*
X769022Y-251691D01*
X768994Y-251630D01*
X768961Y-251575D01*
X768927Y-251530D01*
X768899Y-251502D01*
X768877Y-251480D01*
X768872Y-251475D01*
X768800Y-251425D01*
X768711Y-251386D01*
X768616Y-251364D01*
X768528Y-251342D01*
X768444Y-251330D01*
X768378Y-251325D01*
D02*
G37*
G36*
X263655Y-247972D02*
X263599D01*
X263555D01*
X263516D01*
X263494D01*
X263488D01*
X263366D01*
X263250Y-247978D01*
X263144D01*
X263050Y-247983D01*
X262961Y-247989D01*
X262883Y-247994D01*
X262811Y-248006D01*
X262750Y-248011D01*
X262695Y-248017D01*
X262650Y-248028D01*
X262611Y-248033D01*
X262578Y-248039D01*
X262556Y-248044D01*
X262534D01*
X262528Y-248050D01*
X262523D01*
X262445Y-248072D01*
X262384Y-248100D01*
X262328Y-248128D01*
X262290Y-248150D01*
X262256Y-248172D01*
X262234Y-248194D01*
X262223Y-248205D01*
X262217Y-248211D01*
X262190Y-248250D01*
X262167Y-248288D01*
X262156Y-248327D01*
X262145Y-248366D01*
X262140Y-248394D01*
X262134Y-248422D01*
Y-248444D01*
X262140Y-248494D01*
X262145Y-248538D01*
X262162Y-248577D01*
X262178Y-248610D01*
X262190Y-248638D01*
X262206Y-248660D01*
X262212Y-248672D01*
X262217Y-248677D01*
X262256Y-248710D01*
X262306Y-248744D01*
X262362Y-248771D01*
X262417Y-248799D01*
X262467Y-248816D01*
X262511Y-248832D01*
X262539Y-248838D01*
X262550Y-248844D01*
X262606Y-248855D01*
X262667Y-248866D01*
X262734Y-248877D01*
X262806Y-248882D01*
X262961Y-248893D01*
X263117Y-248899D01*
X263189Y-248905D01*
X263261D01*
X263322Y-248910D01*
X263377D01*
X263422D01*
X263461D01*
X263483D01*
X263488D01*
X263610D01*
X263727Y-248905D01*
X263827D01*
X263927Y-248899D01*
X264010Y-248893D01*
X264093Y-248888D01*
X264160Y-248882D01*
X264227Y-248871D01*
X264282Y-248866D01*
X264326Y-248860D01*
X264365Y-248855D01*
X264399Y-248849D01*
X264421Y-248844D01*
X264443D01*
X264448Y-248838D01*
X264454D01*
X264532Y-248816D01*
X264598Y-248788D01*
X264648Y-248766D01*
X264693Y-248738D01*
X264720Y-248716D01*
X264743Y-248699D01*
X264754Y-248688D01*
X264759Y-248683D01*
X264787Y-248644D01*
X264809Y-248599D01*
X264826Y-248561D01*
X264837Y-248522D01*
X264843Y-248494D01*
X264848Y-248466D01*
Y-248444D01*
X264843Y-248394D01*
X264837Y-248350D01*
X264820Y-248311D01*
X264804Y-248277D01*
X264787Y-248250D01*
X264776Y-248228D01*
X264765Y-248216D01*
X264759Y-248211D01*
X264720Y-248178D01*
X264670Y-248144D01*
X264615Y-248116D01*
X264560Y-248089D01*
X264504Y-248072D01*
X264460Y-248055D01*
X264432Y-248050D01*
X264426Y-248044D01*
X264421D01*
X264371Y-248033D01*
X264310Y-248022D01*
X264238Y-248011D01*
X264165Y-248000D01*
X264016Y-247989D01*
X263860Y-247983D01*
X263788Y-247978D01*
X263716D01*
X263655Y-247972D01*
D02*
G37*
G36*
X373878Y-250825D02*
X373856D01*
X373833D01*
X373822D01*
X373817D01*
X373689Y-250830D01*
X373578Y-250847D01*
X373489Y-250869D01*
X373417Y-250891D01*
X373362Y-250919D01*
X373323Y-250941D01*
X373295Y-250958D01*
X373289Y-250964D01*
X373240Y-251019D01*
X373201Y-251075D01*
X373173Y-251136D01*
X373156Y-251186D01*
X373145Y-251236D01*
X373134Y-251274D01*
Y-251308D01*
X373145Y-251385D01*
X373167Y-251458D01*
X373195Y-251519D01*
X373234Y-251574D01*
X373267Y-251619D01*
X373301Y-251657D01*
X373323Y-251680D01*
X373328Y-251685D01*
X373406Y-251741D01*
X373495Y-251780D01*
X373589Y-251807D01*
X373678Y-251824D01*
X373761Y-251835D01*
X373822Y-251846D01*
X373850D01*
X373867D01*
X373878D01*
X373883D01*
X374000Y-251840D01*
X374100Y-251824D01*
X374183Y-251802D01*
X374255Y-251774D01*
X374305Y-251746D01*
X374344Y-251724D01*
X374372Y-251707D01*
X374377Y-251702D01*
X374433Y-251646D01*
X374477Y-251585D01*
X374505Y-251524D01*
X374527Y-251469D01*
X374538Y-251419D01*
X374549Y-251374D01*
Y-251341D01*
X374544Y-251263D01*
X374522Y-251191D01*
X374494Y-251130D01*
X374461Y-251075D01*
X374427Y-251030D01*
X374399Y-251003D01*
X374377Y-250980D01*
X374372Y-250975D01*
X374300Y-250925D01*
X374211Y-250886D01*
X374116Y-250864D01*
X374028Y-250841D01*
X373944Y-250830D01*
X373878Y-250825D01*
D02*
G37*
%LPD*%
D12*
X209807Y-256000D02*
X219129D01*
Y-258784D02*
X221913Y-256000D01*
X219129Y-258784D02*
Y-253216D01*
X221913Y-256000D01*
X163202D02*
X172524D01*
X160418D02*
X163202Y-253216D01*
Y-258784D02*
Y-253216D01*
X160418Y-256000D02*
X163202Y-258784D01*
X140024Y-266779D02*
X243024D01*
X887807Y-258000D02*
X897130D01*
Y-255216D02*
X899913Y-258000D01*
X897130Y-260784D02*
Y-255216D01*
Y-260784D02*
X899913Y-258000D01*
X838418D02*
X841202Y-260784D01*
Y-255216D01*
X838418Y-258000D02*
X841202Y-255216D01*
Y-258000D02*
X850524D01*
X812256Y-268779D02*
X922492D01*
D93*
X1033476Y-315779D02*
X1033316Y-314821D01*
X1032854Y-313966D01*
X1032139Y-313308D01*
X1031248Y-312917D01*
X1030280Y-312837D01*
X1029338Y-313075D01*
X1028524Y-313607D01*
X1027927Y-314374D01*
X1027611Y-315294D01*
Y-316266D01*
X1027927Y-317185D01*
X1028524Y-317952D01*
X1029338Y-318484D01*
X1030280Y-318722D01*
X1031248Y-318642D01*
X1032139Y-318251D01*
X1032854Y-317593D01*
X1033316Y-316738D01*
X1033476Y-315779D01*
X939764Y-328445D02*
X939604Y-327486D01*
X939141Y-326631D01*
X938426Y-325973D01*
X937536Y-325583D01*
X936567Y-325502D01*
X935625Y-325741D01*
X934811Y-326273D01*
X934214Y-327040D01*
X933899Y-327959D01*
Y-328931D01*
X934214Y-329850D01*
X934811Y-330617D01*
X935625Y-331149D01*
X936567Y-331388D01*
X937536Y-331307D01*
X938426Y-330917D01*
X939141Y-330258D01*
X939604Y-329404D01*
X939764Y-328445D01*
X845978Y-315779D02*
X845818Y-314821D01*
X845356Y-313966D01*
X844641Y-313308D01*
X843750Y-312917D01*
X842782Y-312837D01*
X841840Y-313075D01*
X841026Y-313607D01*
X840429Y-314374D01*
X840113Y-315294D01*
Y-316266D01*
X840429Y-317185D01*
X841026Y-317952D01*
X841840Y-318484D01*
X842782Y-318722D01*
X843750Y-318642D01*
X844641Y-318251D01*
X845356Y-317593D01*
X845818Y-316738D01*
X845978Y-315779D01*
X527228D02*
X527068Y-314821D01*
X526606Y-313966D01*
X525891Y-313308D01*
X525000Y-312917D01*
X524032Y-312837D01*
X523090Y-313075D01*
X522276Y-313607D01*
X521679Y-314374D01*
X521363Y-315294D01*
Y-316266D01*
X521679Y-317185D01*
X522276Y-317952D01*
X523090Y-318484D01*
X524032Y-318722D01*
X525000Y-318642D01*
X525891Y-318251D01*
X526606Y-317593D01*
X527068Y-316738D01*
X527228Y-315779D01*
X20978D02*
X20818Y-314821D01*
X20356Y-313966D01*
X19641Y-313308D01*
X18751Y-312917D01*
X17782Y-312837D01*
X16839Y-313075D01*
X16026Y-313607D01*
X15429Y-314374D01*
X15113Y-315294D01*
Y-316266D01*
X15429Y-317185D01*
X16026Y-317952D01*
X16839Y-318484D01*
X17782Y-318722D01*
X18751Y-318642D01*
X19641Y-318251D01*
X20356Y-317593D01*
X20818Y-316738D01*
X20978Y-315779D01*
X114764Y-325394D02*
X114604Y-324435D01*
X114141Y-323580D01*
X113426Y-322922D01*
X112536Y-322531D01*
X111567Y-322451D01*
X110625Y-322690D01*
X109811Y-323221D01*
X109214Y-323988D01*
X108898Y-324908D01*
Y-325880D01*
X109214Y-326799D01*
X109811Y-327566D01*
X110625Y-328098D01*
X111567Y-328336D01*
X112536Y-328256D01*
X113426Y-327866D01*
X114141Y-327207D01*
X114604Y-326353D01*
X114764Y-325394D01*
X208478Y-315779D02*
X208318Y-314821D01*
X207856Y-313966D01*
X207141Y-313308D01*
X206251Y-312917D01*
X205282Y-312837D01*
X204340Y-313075D01*
X203526Y-313607D01*
X202929Y-314374D01*
X202613Y-315294D01*
Y-316266D01*
X202929Y-317185D01*
X203526Y-317952D01*
X204340Y-318484D01*
X205282Y-318722D01*
X206251Y-318642D01*
X207141Y-318251D01*
X207856Y-317593D01*
X208318Y-316738D01*
X208478Y-315779D01*
X909205Y-258000D02*
X909045Y-257041D01*
X908582Y-256186D01*
X907867Y-255528D01*
X906977Y-255138D01*
X906008Y-255057D01*
X905066Y-255296D01*
X904252Y-255828D01*
X903655Y-256595D01*
X903339Y-257514D01*
Y-258486D01*
X903655Y-259405D01*
X904252Y-260172D01*
X905066Y-260704D01*
X906008Y-260943D01*
X906977Y-260862D01*
X907867Y-260472D01*
X908582Y-259814D01*
X909045Y-258959D01*
X909205Y-258000D01*
X834205D02*
X834045Y-257041D01*
X833582Y-256186D01*
X832867Y-255528D01*
X831977Y-255138D01*
X831008Y-255057D01*
X830066Y-255296D01*
X829252Y-255828D01*
X828655Y-256595D01*
X828339Y-257514D01*
Y-258486D01*
X828655Y-259405D01*
X829252Y-260172D01*
X830066Y-260704D01*
X831008Y-260943D01*
X831977Y-260862D01*
X832867Y-260472D01*
X833582Y-259814D01*
X834045Y-258959D01*
X834205Y-258000D01*
X569850Y-313613D02*
X574442Y-318205D01*
X572146Y-315909D01*
X574442Y-313613D01*
X569850Y-318205D01*
X1038598Y-313613D02*
X1043190Y-318205D01*
X1040894Y-315909D01*
X1043190Y-313613D01*
X1038598Y-318205D01*
X944886Y-326278D02*
X949477Y-330870D01*
X947182Y-328574D01*
X949477Y-326278D01*
X944886Y-330870D01*
X851100Y-313613D02*
X855692Y-318205D01*
X853396Y-315909D01*
X855692Y-313613D01*
X851100Y-318205D01*
X288598Y-313613D02*
X293190Y-318205D01*
X290894Y-315909D01*
X293190Y-313613D01*
X288598Y-318205D01*
X194850Y-313613D02*
X199442Y-318205D01*
X197146Y-315909D01*
X199442Y-313613D01*
X194850Y-318205D01*
X101136Y-323227D02*
X105728Y-327819D01*
X103432Y-325523D01*
X105728Y-323227D01*
X101136Y-327819D01*
X7350Y-313613D02*
X11942Y-318205D01*
X9646Y-315909D01*
X11942Y-313613D01*
X7350Y-318205D01*
X150098Y-254113D02*
X154690Y-258705D01*
X152394Y-256409D01*
X154690Y-254113D01*
X150098Y-258705D01*
X227098Y-254113D02*
X231690Y-258705D01*
X229394Y-256409D01*
X231690Y-254113D01*
X227098Y-258705D01*
D94*
X919556Y-264336D02*
X920048Y-263844D01*
X921032D01*
X921524Y-264336D01*
Y-266304D01*
X921032Y-266796D01*
X920048D01*
X919556Y-266304D01*
X918572Y-266796D02*
X917588D01*
X918080D01*
Y-264828D01*
X918572D01*
X916112D02*
Y-266796D01*
Y-265812D01*
X915620Y-265320D01*
X915128Y-264828D01*
X914636D01*
X911192D02*
X912668D01*
X913160Y-265320D01*
Y-266304D01*
X912668Y-266796D01*
X911192D01*
X910208D02*
X909224D01*
X909716D01*
Y-263844D01*
X910208D01*
X906273Y-266796D02*
X907257D01*
X907749Y-266304D01*
Y-265320D01*
X907257Y-264828D01*
X906273D01*
X905781Y-265320D01*
Y-265812D01*
X907749D01*
X904797Y-266796D02*
X903321D01*
X902829Y-266304D01*
X903321Y-265812D01*
X904305D01*
X904797Y-265320D01*
X904305Y-264828D01*
X902829D01*
X898893Y-266796D02*
X897417D01*
X896925Y-266304D01*
X897417Y-265812D01*
X898401D01*
X898893Y-265320D01*
X898401Y-264828D01*
X896925D01*
X895941Y-263844D02*
Y-266796D01*
Y-265320D01*
X895449Y-264828D01*
X894465D01*
X893973Y-265320D01*
Y-266796D01*
X892498D02*
X891514D01*
X891022Y-266304D01*
Y-265320D01*
X891514Y-264828D01*
X892498D01*
X892990Y-265320D01*
Y-266304D01*
X892498Y-266796D01*
X890038Y-264828D02*
Y-266304D01*
X889546Y-266796D01*
X889054Y-266304D01*
X888562Y-266796D01*
X888070Y-266304D01*
Y-264828D01*
X887086Y-266796D02*
X885610D01*
X885118Y-266304D01*
X885610Y-265812D01*
X886594D01*
X887086Y-265320D01*
X886594Y-264828D01*
X885118D01*
X881182Y-263844D02*
X879214D01*
X880198D01*
Y-266796D01*
X878230D02*
X876754D01*
X876262Y-266304D01*
X876754Y-265812D01*
X877738D01*
X878230Y-265320D01*
X877738Y-264828D01*
X876262D01*
X874787D02*
X873803D01*
X873311Y-265320D01*
Y-266796D01*
X874787D01*
X875279Y-266304D01*
X874787Y-265812D01*
X873311D01*
X872327Y-266796D02*
Y-264828D01*
X870851D01*
X870359Y-265320D01*
Y-266796D01*
X868391Y-267779D02*
X867899D01*
X867407Y-267288D01*
Y-264828D01*
X868883D01*
X869375Y-265320D01*
Y-266304D01*
X868883Y-266796D01*
X867407D01*
X865931Y-264828D02*
X864947D01*
X864455Y-265320D01*
Y-266796D01*
X865931D01*
X866423Y-266304D01*
X865931Y-265812D01*
X864455D01*
X863471Y-266796D02*
Y-264828D01*
X861996D01*
X861504Y-265320D01*
Y-266796D01*
X857568D02*
X856584D01*
X857076D01*
Y-263844D01*
X857568D01*
X854616Y-264828D02*
X853632D01*
X853140Y-265320D01*
Y-266796D01*
X854616D01*
X855108Y-266304D01*
X854616Y-265812D01*
X853140D01*
X852156Y-264828D02*
Y-266304D01*
X851664Y-266796D01*
X850188D01*
Y-267288D01*
X850680Y-267779D01*
X851172D01*
X850188Y-266796D02*
Y-264828D01*
X848712Y-266796D02*
X847728D01*
X847236Y-266304D01*
Y-265320D01*
X847728Y-264828D01*
X848712D01*
X849204Y-265320D01*
Y-266304D01*
X848712Y-266796D01*
X846253Y-264828D02*
Y-266304D01*
X845761Y-266796D01*
X844285D01*
Y-264828D01*
X842809Y-264336D02*
Y-264828D01*
X843301D01*
X842317D01*
X842809D01*
Y-266304D01*
X842317Y-266796D01*
X840349Y-267288D02*
X839857Y-266796D01*
Y-266304D01*
X840349D01*
Y-266796D01*
X839857D01*
X840349Y-267288D01*
X840841Y-267779D01*
X834937Y-263844D02*
X832969D01*
Y-264336D01*
X834937Y-266304D01*
Y-266796D01*
X831985Y-263844D02*
Y-266304D01*
X831493Y-266796D01*
X830509D01*
X830017Y-266304D01*
Y-263844D01*
X826082Y-266796D02*
X824606D01*
X824114Y-266304D01*
X824606Y-265812D01*
X825590D01*
X826082Y-265320D01*
X825590Y-264828D01*
X824114D01*
X823130Y-267779D02*
Y-264828D01*
X821654D01*
X821162Y-265320D01*
Y-266304D01*
X821654Y-266796D01*
X823130D01*
X819686Y-264828D02*
X818702D01*
X818210Y-265320D01*
Y-266796D01*
X819686D01*
X820178Y-266304D01*
X819686Y-265812D01*
X818210D01*
X815259Y-264828D02*
X816734D01*
X817226Y-265320D01*
Y-266304D01*
X816734Y-266796D01*
X815259D01*
X812799D02*
X813783D01*
X814275Y-266304D01*
Y-265320D01*
X813783Y-264828D01*
X812799D01*
X812307Y-265320D01*
Y-265812D01*
X814275D01*
X241024Y-261844D02*
X239056Y-264796D01*
Y-261844D02*
X241024Y-264796D01*
X235120D02*
X233644D01*
X233152Y-264304D01*
X233644Y-263812D01*
X234628D01*
X235120Y-263320D01*
X234628Y-262828D01*
X233152D01*
X232168Y-261844D02*
Y-264796D01*
Y-263320D01*
X231676Y-262828D01*
X230692D01*
X230200Y-263320D01*
Y-264796D01*
X228724D02*
X227741D01*
X227249Y-264304D01*
Y-263320D01*
X227741Y-262828D01*
X228724D01*
X229216Y-263320D01*
Y-264304D01*
X228724Y-264796D01*
X226265Y-262828D02*
Y-264304D01*
X225773Y-264796D01*
X225281Y-264304D01*
X224789Y-264796D01*
X224297Y-264304D01*
Y-262828D01*
X223313Y-264796D02*
X221837D01*
X221345Y-264304D01*
X221837Y-263812D01*
X222821D01*
X223313Y-263320D01*
X222821Y-262828D01*
X221345D01*
X215441Y-261844D02*
X216425Y-262336D01*
X217409Y-263320D01*
Y-264304D01*
X216917Y-264796D01*
X215933D01*
X215441Y-264304D01*
Y-263812D01*
X215933Y-263320D01*
X217409D01*
X214457Y-264796D02*
Y-264304D01*
X213965D01*
Y-264796D01*
X214457D01*
X210030D02*
X211998D01*
X210030Y-262828D01*
Y-262336D01*
X210522Y-261844D01*
X211506D01*
X211998Y-262336D01*
X207078Y-261844D02*
X209046D01*
Y-263320D01*
X208062Y-262828D01*
X207570D01*
X207078Y-263320D01*
Y-264304D01*
X207570Y-264796D01*
X208554D01*
X209046Y-264304D01*
X206094Y-261844D02*
Y-264304D01*
X205602Y-264796D01*
X204618D01*
X204126Y-264304D01*
Y-261844D01*
X200190Y-264796D02*
X198714D01*
X198222Y-264304D01*
X198714Y-263812D01*
X199698D01*
X200190Y-263320D01*
X199698Y-262828D01*
X198222D01*
X197238Y-265779D02*
Y-262828D01*
X195763D01*
X195271Y-263320D01*
Y-264304D01*
X195763Y-264796D01*
X197238D01*
X193795Y-262828D02*
X192811D01*
X192319Y-263320D01*
Y-264796D01*
X193795D01*
X194287Y-264304D01*
X193795Y-263812D01*
X192319D01*
X189367Y-262828D02*
X190843D01*
X191335Y-263320D01*
Y-264304D01*
X190843Y-264796D01*
X189367D01*
X186907D02*
X187891D01*
X188383Y-264304D01*
Y-263320D01*
X187891Y-262828D01*
X186907D01*
X186415Y-263320D01*
Y-263812D01*
X188383D01*
X182479Y-262828D02*
Y-264304D01*
X181987Y-264796D01*
X181495Y-264304D01*
X181003Y-264796D01*
X180511Y-264304D01*
Y-262828D01*
X179528Y-264796D02*
X178544D01*
X179036D01*
Y-262828D01*
X179528D01*
X176576Y-262336D02*
Y-262828D01*
X177068D01*
X176084D01*
X176576D01*
Y-264304D01*
X176084Y-264796D01*
X174608Y-261844D02*
Y-264796D01*
Y-263320D01*
X174116Y-262828D01*
X173132D01*
X172640Y-263320D01*
Y-264796D01*
X168704D02*
X167720D01*
X168212D01*
Y-261844D01*
X168704Y-262336D01*
X166244Y-264796D02*
Y-264304D01*
X165752D01*
Y-264796D01*
X166244D01*
X161817D02*
X163785D01*
X161817Y-262828D01*
Y-262336D01*
X162309Y-261844D01*
X163293D01*
X163785Y-262336D01*
X158865Y-261844D02*
X160833D01*
Y-263320D01*
X159849Y-262828D01*
X159357D01*
X158865Y-263320D01*
Y-264304D01*
X159357Y-264796D01*
X160341D01*
X160833Y-264304D01*
X157881Y-261844D02*
Y-264304D01*
X157389Y-264796D01*
X156405D01*
X155913Y-264304D01*
Y-261844D01*
X151977Y-264796D02*
Y-262828D01*
X151485D01*
X150993Y-263320D01*
Y-264796D01*
Y-263320D01*
X150502Y-262828D01*
X150010Y-263320D01*
Y-264796D01*
X148534D02*
X147550D01*
X147058Y-264304D01*
Y-263320D01*
X147550Y-262828D01*
X148534D01*
X149025Y-263320D01*
Y-264304D01*
X148534Y-264796D01*
X144106Y-261844D02*
Y-264796D01*
X145582D01*
X146074Y-264304D01*
Y-263320D01*
X145582Y-262828D01*
X144106D01*
X143122Y-264796D02*
X141646D01*
X141154Y-264304D01*
X141646Y-263812D01*
X142630D01*
X143122Y-263320D01*
X142630Y-262828D01*
X141154D01*
M02*
